<?xml version="1.0" encoding="UTF-8"?>
<svg version="1.1" xmlns="http://www.w3.org/2000/svg" width="727" height="644">
<path d="M0 0 C0.66 0 1.32 0 2 0 C4.94000129 6.85212528 7.8792662 13.70456607 10.81770039 20.55736351 C12.18355451 23.74264935 13.54962187 26.92784331 14.91625977 30.11279297 C15.44482439 31.34472649 15.97338884 32.57666008 16.50195312 33.80859375 C16.89514394 34.7248245 16.89514394 34.7248245 17.296278 35.65956497 C18.61981595 38.74480608 19.94103885 41.83100674 21.25784302 44.91912842 C21.78463271 46.15411714 22.31147792 47.38908219 22.83837891 48.62402344 C23.09781343 49.23214245 23.35724796 49.84026146 23.62454414 50.46680832 C25.21899578 54.19635088 26.83562032 57.91539883 28.46976566 61.62771416 C29.26767108 63.44330773 30.05909341 65.26174601 30.85038757 67.08023071 C31.83039714 69.33239378 32.82047477 71.58021116 33.82209778 73.82284546 C34.47319771 75.32906967 34.47319771 75.32906967 35.13745117 76.86572266 C35.71543709 78.17749985 35.71543709 78.17749985 36.30509949 79.51577759 C37.47780926 83.70813586 36.11422236 87.07106925 34.44042969 90.94702148 C34.12163849 91.69172195 33.80284729 92.43642242 33.47439575 93.20368958 C32.95339798 94.40030464 32.95339798 94.40030464 32.421875 95.62109375 C32.05867157 96.46576706 31.69546814 97.31044037 31.32125854 98.18070984 C30.13553131 100.93502363 28.9429177 103.68629375 27.75 106.4375 C26.93109946 108.33496043 26.1125797 110.23258525 25.29443359 112.13037109 C23.64861415 115.9457075 21.99988302 119.75976485 20.34863281 123.57275391 C18.55350787 127.71855945 16.76425747 131.86683901 14.97961426 136.01716614 C13.80157503 138.75655046 12.62140085 141.49501071 11.44055176 144.23318481 C10.64660143 146.07489171 9.85404289 147.9171984 9.06152344 149.75952148 C6.53390909 155.5996632 3.91781199 161.34414643 1 167 C-1.60422824 164.64459564 -3.17051437 162.18336334 -4.86328125 159.1171875 C-5.41314697 158.1276709 -5.9630127 157.1381543 -6.52954102 156.11865234 C-7.11791748 155.04824707 -7.70629395 153.9778418 -8.3125 152.875 C-9.57800737 150.59368474 -10.84363572 148.3124366 -12.109375 146.03125 C-12.7624922 144.85032811 -13.41548687 143.66933844 -14.06835938 142.48828125 C-17.04824847 137.10700529 -20.05516878 131.74097259 -23.0625 126.375 C-23.63444092 125.35269287 -24.20638184 124.33038574 -24.7956543 123.27709961 C-27.72589255 118.04249523 -30.66795229 112.81495425 -33.62890625 107.59765625 C-34.21599365 106.5627002 -34.80308105 105.52774414 -35.40795898 104.46142578 C-36.51628644 102.50952135 -37.62635007 100.55860124 -38.73852539 98.60888672 C-39.72643195 96.86929486 -40.69782165 95.12018269 -41.6496582 93.3605957 C-42.92721386 91.00397985 -42.92721386 91.00397985 -44.49682617 89.05151367 C-46.00225839 86.90850653 -46.69991524 85.61441766 -47 83 C-45.37108259 78.08453547 -42.73833909 73.83330749 -40.0625 69.4375 C-39.30562962 68.14146946 -38.55191723 66.84358986 -37.80126953 65.54394531 C-36.27949521 62.91863427 -34.74182489 60.30381807 -33.18896484 57.69677734 C-30.15859671 52.59982337 -27.27276144 47.4230746 -24.375 42.25 C-23.33299875 40.41221152 -22.29002367 38.57497486 -21.24609375 36.73828125 C-18.88721548 32.57876587 -16.54983372 28.40780255 -14.22265625 24.23046875 C-13.59117676 23.09770508 -12.95969727 21.96494141 -12.30908203 20.79785156 C-11.09317631 18.6147409 -9.87919844 16.430555 -8.66748047 14.24511719 C-2.79439757 3.70685392 -2.79439757 3.70685392 0 0 Z " fill="#9F73B2" transform="translate(615,241)"/>
<path d="M0 0 C2.91732851 1.00070826 5.43441759 2.27643916 8.12255859 3.79199219 C9.20617676 4.39857666 10.28979492 5.00516113 11.40625 5.63012695 C12.57478869 6.29331317 13.74324362 6.95664699 14.91162109 7.62011719 C16.12792414 8.30421852 17.34456295 8.98772318 18.56152344 9.6706543 C21.64462039 11.4030183 24.7231397 13.14333149 27.80004883 14.88665771 C30.38236875 16.34908288 32.96741773 17.8066627 35.55224609 19.26464844 C39.27985751 21.36859804 43.00457077 23.47757529 46.72802734 25.58886719 C50.91442953 27.95921057 55.11128738 30.31000293 59.31396484 32.65136719 C60.44560059 33.28228271 61.57723633 33.91319824 62.74316406 34.56323242 C64.92461729 35.77837773 67.10717548 36.99154225 69.29101562 38.20239258 C74.17420065 40.92379644 78.95363639 43.66594498 83.53662109 46.87011719 C81.44028906 48.96644922 79.98833784 49.67148157 77.28759766 50.81860352 C76.40257065 51.19734619 75.51754364 51.57608887 74.60569763 51.96630859 C73.15611412 52.57804932 73.15611412 52.57804932 71.67724609 53.20214844 C70.17019859 53.84518921 70.17019859 53.84518921 68.63270569 54.5012207 C65.35264667 55.89969756 62.06977092 57.29141367 58.78662109 58.68261719 C54.30544326 60.58720222 49.82528086 62.49416862 45.34521484 64.40136719 C44.23885178 64.87177933 43.13248871 65.34219147 41.99259949 65.82685852 C35.58190354 68.55682226 29.19018633 71.32422382 22.82177734 74.15136719 C22.11949005 74.46184494 21.41720276 74.77232269 20.69363403 75.09220886 C17.53888677 76.48705651 14.38924152 77.89070989 11.24658203 79.31274414 C10.16280273 79.79187256 9.07902344 80.27100098 7.96240234 80.76464844 C7.04885986 81.17561768 6.13531738 81.58658691 5.1940918 82.01000977 C0.18902747 83.62993091 -3.82209179 83.04271204 -8.56542969 80.94921875 C-9.53656204 80.52710617 -10.5076944 80.10499359 -11.508255 79.67008972 C-12.54789902 79.20500504 -13.58754303 78.73992035 -14.65869141 78.26074219 C-16.29930794 77.54263115 -16.29930794 77.54263115 -17.97306824 76.81001282 C-21.51600016 75.25672236 -25.05210291 73.68849351 -28.58837891 72.12011719 C-31.00217983 71.05898886 -33.41648709 69.99901156 -35.83129883 68.94018555 C-40.56682405 66.86297086 -45.30029365 64.78118484 -50.03222656 62.69580078 C-57.92447419 59.22215785 -65.84399182 55.81455515 -73.77587891 52.43261719 C-74.90461426 51.95018555 -76.03334961 51.46775391 -77.19628906 50.97070312 C-79.61810185 49.93587492 -82.04039013 48.90218794 -84.46337891 47.87011719 C-84.46337891 47.21011719 -84.46337891 46.55011719 -84.46337891 45.87011719 C-83.71580322 45.45874512 -82.96822754 45.04737305 -82.19799805 44.62353516 C-60.63931271 32.75597651 -39.14406477 20.78014574 -17.71337891 8.68261719 C-16.75447754 8.14161377 -15.79557617 7.60061035 -14.80761719 7.04321289 C-13.9154248 6.53878662 -13.02323242 6.03436035 -12.10400391 5.51464844 C-11.32573242 5.07483643 -10.54746094 4.63502441 -9.74560547 4.18188477 C-7.3867819 2.87021129 -7.3867819 2.87021129 -4.98583984 1.14233398 C-2.46337891 -0.12988281 -2.46337891 -0.12988281 0 0 Z " fill="#9F73B2" transform="translate(361.46337890625,532.1298828125)"/>
<path d="M0 0 C1.01908447 0.46116211 2.03816895 0.92232422 3.08813477 1.39746094 C4.18955811 1.9030957 5.29098145 2.40873047 6.42578125 2.9296875 C8.84407231 4.02308247 11.26310296 5.11462813 13.68359375 6.203125 C14.32259109 6.49102905 14.96158844 6.77893311 15.61994934 7.07556152 C23.63425939 10.67509709 31.71920488 14.1096288 39.80078125 17.5546875 C51.48988829 22.54304756 63.15534998 27.57314711 74.73828125 32.8046875 C72.1836851 35.70963454 69.29280042 37.30331184 65.91015625 39.140625 C65.33342163 39.45606262 64.75668701 39.77150024 64.16247559 40.09649658 C62.92109814 40.77483518 61.67845805 41.45086722 60.43469238 42.12481689 C57.12392593 43.91910904 53.82251469 45.73049642 50.51953125 47.5390625 C49.85415344 47.90274933 49.18877563 48.26643616 48.50323486 48.6411438 C42.63499884 51.85150949 36.80490275 55.12673263 30.98828125 58.4296875 C29.15238111 59.47011801 27.31644336 60.51048215 25.48046875 61.55078125 C24.09939941 62.33364502 24.09939941 62.33364502 22.69042969 63.13232422 C17.16910074 66.26010319 11.64332231 69.37983878 6.11328125 72.4921875 C4.5204834 73.39348389 4.5204834 73.39348389 2.89550781 74.31298828 C1.90260742 74.87099121 0.90970703 75.42899414 -0.11328125 76.00390625 C-0.98807129 76.49721436 -1.86286133 76.99052246 -2.76416016 77.4987793 C-3.58835449 77.929729 -4.41254883 78.36067871 -5.26171875 78.8046875 C-6.50139404 79.45981323 -6.50139404 79.45981323 -7.76611328 80.12817383 C-10.26171875 80.8046875 -10.26171875 80.8046875 -12.72753906 79.96875 C-14.02062988 79.20691406 -14.02062988 79.20691406 -15.33984375 78.4296875 C-16.32275391 77.86378906 -17.30566406 77.29789062 -18.31835938 76.71484375 C-19.37216797 76.08449219 -20.42597656 75.45414062 -21.51171875 74.8046875 C-23.77706711 73.49171008 -26.04269998 72.17922344 -28.30859375 70.8671875 C-29.47742653 70.18265521 -30.64604636 69.49775918 -31.81445312 68.8125 C-37.09098351 65.73925737 -42.4264563 62.77436663 -47.76171875 59.8046875 C-49.82321373 58.6502699 -51.88440997 57.49531867 -53.9453125 56.33984375 C-58.33031691 53.88388405 -62.71885486 51.43436602 -67.109375 48.98828125 C-68.2334375 48.36115234 -69.3575 47.73402344 -70.515625 47.08789062 C-72.6566302 45.89352822 -74.7985012 44.70071599 -76.94140625 43.50976562 C-82.48192111 40.41661726 -87.91329616 37.21979206 -93.26171875 33.8046875 C-90.63228751 30.65287203 -87.60155909 29.47062359 -83.859375 27.8984375 C-83.20574982 27.6209668 -82.55212463 27.34349609 -81.87869263 27.05761719 C-79.69675125 26.13297578 -77.51066582 25.21861842 -75.32421875 24.3046875 C-72.1641194 22.97429748 -69.00581124 21.63968552 -65.84765625 20.3046875 C-65.01121078 19.95192749 -64.17476532 19.59916748 -63.31297302 19.23571777 C-56.63270505 16.4095062 -49.99497445 13.49278324 -43.36328125 10.5546875 C-40.37355228 9.23721118 -37.38326539 7.92100966 -34.39279175 6.60522461 C-32.4345788 5.74004185 -30.47860285 4.86977767 -28.52493286 3.99438477 C-25.76990723 2.76103932 -23.00718718 1.54672167 -20.2421875 0.3359375 C-19.42170929 -0.03724609 -18.60123108 -0.41042969 -17.75588989 -0.79492188 C-10.9395872 -3.74401829 -6.74676618 -3.09291348 0 0 Z " fill="#9F73B2" transform="translate(370.26171875,36.1953125)"/>
<path d="M0 0 C3.60196261 1.2006542 3.7552492 1.85266478 5.4609375 5.1015625 C5.9254834 5.97208252 6.3900293 6.84260254 6.86865234 7.73950195 C7.36574707 8.69171631 7.8628418 9.64393066 8.375 10.625 C9.45669453 12.65321861 10.54008092 14.68053566 11.625 16.70703125 C12.18316406 17.7532666 12.74132812 18.79950195 13.31640625 19.87744141 C15.93233307 24.72919663 18.64947908 29.52169822 21.375 34.3125 C26.67829317 43.65172866 31.93513031 53.01589817 37.15576172 62.40161133 C37.70119629 63.3789624 38.24663086 64.35631348 38.80859375 65.36328125 C39.59532471 66.77988037 39.59532471 66.77988037 40.39794922 68.22509766 C41.47592823 70.0922585 42.60423201 71.93115787 43.77783203 73.73974609 C47.9346789 80.15525421 47.9346789 80.15525421 48.23046875 83.98046875 C46.3216379 88.66467905 43.86978498 92.95465879 41.3125 97.3125 C40.11911714 99.38372608 38.92643239 101.45535453 37.734375 103.52734375 C37.11626953 104.59581543 36.49816406 105.66428711 35.86132812 106.76513672 C32.88221418 111.94263669 29.97325094 117.15885859 27.0625 122.375 C25.89990704 124.45321869 24.73714521 126.53134292 23.57421875 128.609375 C22.9920459 129.65029297 22.40987305 130.69121094 21.81005859 131.76367188 C18.66621198 137.38477125 15.52079811 143.0049926 12.375 148.625 C11.79500244 149.66188965 11.21500488 150.6987793 10.61743164 151.76708984 C7.76784117 156.85813415 4.90529999 161.94052635 2 167 C1.34 167 0.68 167 0 167 C-1.53662726 163.46361505 -3.07300937 159.92712363 -4.609375 156.390625 C-5.08816101 155.28875351 -5.56694702 154.18688202 -6.0602417 153.05162048 C-8.68685367 147.00533955 -11.31021456 140.957692 -13.92773438 134.9074707 C-20.51096375 119.68657298 -20.51096375 119.68657298 -27.234375 104.52734375 C-27.80950929 103.23496293 -28.38408845 101.94233487 -28.95800781 100.64941406 C-29.9525189 98.41664535 -30.96127472 96.19014108 -31.98730469 93.97167969 C-32.41430664 93.00520508 -32.84130859 92.03873047 -33.28125 91.04296875 C-33.64283203 90.24914795 -34.00441406 89.45532715 -34.37695312 88.63745117 C-35.87416243 82.29953892 -33.75790661 76.7465749 -31.1484375 71.01171875 C-30.85742661 70.36293762 -30.56641571 69.71415649 -30.2665863 69.04571533 C-29.63895682 67.64930349 -29.00654617 66.25503238 -28.36978149 64.86276245 C-26.65389606 61.11068103 -24.97282663 57.34295844 -23.28515625 53.578125 C-22.93416367 52.79803574 -22.58317108 52.01794647 -22.22154236 51.21421814 C-18.30854567 42.50242184 -14.55614352 33.72308252 -10.8125 24.9375 C-9.59033726 22.07140381 -8.36771649 19.20550371 -7.14453125 16.33984375 C-6.86639587 15.68795578 -6.5882605 15.03606781 -6.30169678 14.36442566 C-4.24635592 9.55540524 -2.14323263 4.77042101 0 0 Z " fill="#9F73B2" transform="translate(105,241)"/>
<path d="M0 0 C-0.62186797 4.89847072 -2.07963721 9.2333768 -3.89575195 13.79370117 C-4.1918335 14.55053696 -4.48791504 15.30737274 -4.79296875 16.08714294 C-5.76842325 18.57495629 -6.75277461 21.05912176 -7.73828125 23.54296875 C-8.42246855 25.27591806 -9.10648189 27.00893606 -9.79032898 28.74201965 C-11.22273451 32.36739784 -12.66006259 35.99078025 -14.1003418 39.61303711 C-15.94529724 44.25537034 -17.77352342 48.90409508 -19.59759235 53.55466747 C-21.00396236 57.13271444 -22.42130766 60.70633689 -23.84178734 64.27880287 C-24.5206802 65.99127521 -25.19563649 67.7053136 -25.86657143 69.42091942 C-26.80496264 71.81683905 -27.758495 74.20617518 -28.71606445 76.59448242 C-28.9899852 77.30362793 -29.26390594 78.01277344 -29.54612732 78.7434082 C-31.74524877 84.1542603 -33.76297847 85.98099342 -38.96835327 88.35214233 C-40.12525665 88.81005157 -41.28216003 89.26796082 -42.47412109 89.73974609 C-43.1154599 89.99549911 -43.75679871 90.25125214 -44.41757202 90.51475525 C-46.53389162 91.3569199 -48.65355427 92.19028827 -50.7734375 93.0234375 C-52.25894274 93.61205366 -53.74426082 94.20114236 -55.22940063 94.79067993 C-58.34661829 96.02663147 -61.46539135 97.25854106 -64.58544922 98.48730469 C-68.54562917 100.04701782 -72.50289427 101.61395905 -76.45911217 103.18369102 C-79.53162939 104.40235201 -82.60518709 105.61836985 -85.67909622 106.83351517 C-87.1358304 107.4094388 -88.59237717 107.98583675 -90.0487175 108.56275558 C-99.30519403 112.22617259 -108.60195441 115.7148257 -118 119 C-117.38083143 113.34352783 -116.40458129 107.92694311 -115.06420898 102.40014648 C-114.86852829 101.58116882 -114.6728476 100.76219116 -114.47123718 99.918396 C-112.66044866 92.40897275 -110.73594874 84.92890588 -108.77372646 77.45776272 C-107.46118744 72.45210647 -106.18971283 67.44319551 -105.00952148 62.40454102 C-97.47384507 30.41054999 -97.47384507 30.41054999 -90.61645508 23.650177 C-84.98565862 20.35852208 -79.04807706 19.91618163 -72.64956665 19.43405151 C-66.32602745 18.68197818 -60.36074333 16.68785474 -54.28725243 14.83029366 C-50.59612619 13.71453868 -46.88343262 12.67619136 -43.171875 11.63085938 C-41.67242795 11.20566803 -40.17307937 10.78012929 -38.67382812 10.35424805 C-37.92675598 10.14219727 -37.17968384 9.93014648 -36.40997314 9.71166992 C-33.31547861 8.83251177 -30.22172069 7.9507752 -27.12791634 7.06919193 C-24.13625257 6.21732557 -21.14393402 5.36777818 -18.15142441 4.51888847 C-16.72937283 4.11506136 -15.30756854 3.71036235 -13.88602066 3.3047657 C-11.92357391 2.74507101 -9.96010339 2.18896966 -7.99658203 1.63305664 C-6.88316437 1.31663712 -5.7697467 1.00021759 -4.62258911 0.67420959 C-2 0 -2 0 0 0 Z " fill="#9F73B2" transform="translate(600,445)"/>
<path d="M0 0 C8.8757356 1.53629267 17.47093742 4.00109658 26.12109375 6.46484375 C27.67218868 6.90355105 29.22338387 7.34190403 30.77467346 7.77992249 C34.83685581 8.92785296 38.89775968 10.08024067 42.95837402 11.23370361 C47.87184761 12.62858431 52.78676174 14.01837849 57.70151615 15.40873814 C61.52979167 16.49181272 65.35784196 17.57565942 69.18516541 18.66209412 C69.88946214 18.8614837 70.59375887 19.06087328 71.31939793 19.26630497 C72.6807653 19.65306846 74.04131451 20.04272579 75.40094662 20.43554592 C78.37107412 21.28842304 81.32996035 22.07303543 84.34768677 22.74099731 C85.33131195 22.96254486 86.31493713 23.18409241 87.32836914 23.41235352 C88.16783585 23.57969498 89.00730255 23.74703644 89.87220764 23.91944885 C93.10690722 25.56211776 93.67332865 27.67633461 95 31 C95.87389686 33.70185882 96.68272055 36.37902823 97.43603516 39.11328125 C97.65919907 39.90431244 97.88236298 40.69534363 98.11228943 41.51034546 C98.84385194 44.10942987 99.56662728 46.71086519 100.2890625 49.3125 C100.79760222 51.1281351 101.30659149 52.94364434 101.81600952 54.7590332 C102.88048206 58.55738281 103.94084267 62.35684767 104.99804688 66.15722656 C106.35126849 71.02117135 107.71263182 75.88278926 109.07682228 80.7436676 C110.12768662 84.49021378 111.17526455 88.23767231 112.22175217 91.98544312 C112.72254199 93.7781618 113.22410364 95.57066507 113.7264595 97.36294556 C114.42840162 99.86999741 115.12616343 102.37817544 115.82275391 104.88671875 C116.02951248 105.62248138 116.23627106 106.35824402 116.44929504 107.11630249 C117.53849009 111.05743583 118.40929703 114.95359794 119 119 C105.35586881 115.30280419 92.24427427 109.73965639 79.10138988 104.58899689 C74.69965714 102.86416606 70.29313446 101.15522653 65.87133789 99.48242188 C61.56646865 97.85351002 57.27816539 96.18665335 52.9986515 94.49229431 C51.37526544 93.85697367 49.74658443 93.2350034 48.11269188 92.62721252 C33.80202872 87.2848201 33.80202872 87.2848201 30.71850586 80.66601562 C30.10261632 78.79094181 29.52829525 76.90161138 29 75 C28.33549392 73.3120979 27.65392118 71.63080469 26.95458984 69.95703125 C26.28699153 68.24337162 25.62254064 66.52848313 24.9609375 64.8125 C24.59774414 63.87887634 24.23455078 62.94525269 23.86035156 61.9833374 C23.0909227 60.00512857 22.32277614 58.02642056 21.55584717 56.04724121 C19.56474722 50.90909803 17.56471548 45.77444553 15.5625 40.640625 C15.16976898 39.63356506 14.77703796 38.62650513 14.37240601 37.58892822 C10.68772411 28.16200148 6.88766632 18.7853871 2.99755859 9.44140625 C2.59359863 8.46558594 2.18963867 7.48976563 1.7734375 6.484375 C1.25402588 5.24252441 1.25402588 5.24252441 0.72412109 3.97558594 C0 2 0 2 0 0 Z " fill="#9F73B2" transform="translate(121,445)"/>
<path d="M0 0 C-1.68564897 9.46808554 -4.31658248 18.6219986 -6.9375 27.86328125 C-7.42334904 29.58571856 -7.90894035 31.30822859 -8.39428711 33.0308075 C-9.40726444 36.62286637 -10.42285425 40.21417271 -11.44042969 43.80493164 C-12.74281058 48.40123981 -14.03934157 52.9991733 -15.33403015 57.59765339 C-16.33397548 61.14729307 -17.33661957 64.69616591 -18.34011841 68.24480247 C-18.81928697 69.94022866 -19.29770862 71.63586613 -19.77536011 73.33172035 C-20.44260996 75.6988853 -21.11339793 78.06501933 -21.78515625 80.4309082 C-22.07823166 81.47441437 -22.07823166 81.47441437 -22.37722778 82.53900146 C-22.89793531 84.36522002 -23.44779202 86.18305838 -24 88 C-24.34038048 89.39310143 -24.34038048 89.39310143 -24.68763733 90.81434631 C-26.69105166 94.15090108 -29.6444583 94.61305453 -33.21264648 95.53955078 C-33.95604782 95.75004059 -34.69944916 95.9605304 -35.46537781 96.17739868 C-37.9289451 96.86968056 -40.39946702 97.5324368 -42.87109375 98.1953125 C-44.5911591 98.67243868 -46.31072233 99.15137842 -48.02980042 99.63204956 C-52.56632246 100.89521319 -57.10927766 102.13350815 -61.6539917 103.36682129 C-66.24154583 104.61639036 -70.82262084 105.88923812 -75.40429688 107.16015625 C-82.88689723 109.23236925 -90.37099528 111.29909878 -97.86606503 113.32583809 C-101.06219601 114.19076562 -104.24754462 115.07281464 -107.42434692 116.00726318 C-108.39943207 116.29216614 -109.37451721 116.57706909 -110.37915039 116.87060547 C-111.19066055 117.1161618 -112.00217072 117.36171814 -112.83827209 117.61471558 C-115.22393498 118.0399119 -116.72029413 117.76015267 -119 117 C-118.15366679 114.85854923 -117.30723106 112.71713906 -116.4606781 110.57577515 C-115.69782317 108.64594704 -114.93518578 106.71603293 -114.17274475 104.78604126 C-112.0416837 99.39378958 -109.90492767 94.00389816 -107.75805664 88.61791992 C-102.21973907 74.72088995 -102.21973907 74.72088995 -96.91210938 60.73472595 C-95.71568089 57.5006885 -94.49561129 54.27582612 -93.27349854 51.05142212 C-92.72099015 49.57172666 -92.1809712 48.0873009 -91.65423584 46.59823608 C-90.92450794 44.53791922 -90.15311865 42.49796034 -89.37109375 40.45703125 C-88.7512561 38.7551062 -88.7512561 38.7551062 -88.11889648 37.01879883 C-84.96793713 32.52961662 -80.97278243 31.07135844 -76 29 C-75.07575729 28.60995285 -74.15151459 28.2199057 -73.19926453 27.81803894 C-70.18918096 26.57902207 -67.16454139 25.38424342 -64.1328125 24.19921875 C-63.01800507 23.75914993 -61.90319763 23.31908112 -60.75460815 22.86567688 C-57.2130708 21.46867928 -53.66913156 20.07790124 -50.125 18.6875 C-46.62819772 17.3107432 -43.13190132 15.93270816 -39.63568115 14.55447388 C-37.35480579 13.65597481 -35.07343857 12.75872325 -32.79156494 11.86276245 C-27.50101042 9.78400281 -22.21772913 7.6906352 -16.95214844 5.54931641 C-15.56151688 4.98528862 -15.56151688 4.98528862 -14.14279175 4.40986633 C-12.42474314 3.71124334 -10.70841519 3.0083679 -8.99417114 2.30046082 C-3.33160915 0 -3.33160915 0 0 0 Z " fill="#9F73B2" transform="translate(240,85)"/>
<path d="M0 0 C4.41430905 0.73575158 8.53351427 2.12940913 12.73681641 3.62255859 C13.50016296 3.89144897 14.26350952 4.16033936 15.04998779 4.43737793 C22.10893602 6.9405542 29.12694008 9.55240717 36.1328373 12.20004845 C40.82583063 13.97105 45.52582893 15.70268861 50.26513672 17.34619141 C83.2582126 28.83427921 83.2582126 28.83427921 89.56469727 39.10644531 C92.15439451 44.6749732 93.68570153 50.40509569 95.06274414 56.37481689 C96.69444698 62.68603009 99.35073642 68.57117401 101.88671875 74.5625 C102.85868846 76.96536195 103.8255119 79.37031218 104.78710938 81.77734375 C106.25665526 85.43889382 107.72707337 89.10005911 109.20483398 92.75830078 C110.66705865 96.37822707 112.12095776 100.00146522 113.57421875 103.625 C114.0209343 104.72787354 114.46764984 105.83074707 114.92790222 106.96704102 C115.33285416 107.98080811 115.73780609 108.9945752 116.1550293 110.0390625 C116.51267868 110.92803223 116.87032806 111.81700195 117.23881531 112.73291016 C118 115 118 115 118 118 C112.51227318 117.42084474 107.35311008 116.4347286 102.04272461 114.91455078 C101.29202194 114.70464508 100.54131927 114.49473938 99.76786804 114.2784729 C97.31103375 113.58983812 94.85666409 112.89284931 92.40234375 112.1953125 C90.68187238 111.71031199 88.96129459 111.22568885 87.24061584 110.74142456 C83.64461897 109.72797753 80.04980564 108.71046398 76.45581055 107.68994141 C71.86265075 106.38598346 67.26689281 105.09147424 62.67023373 103.79991341 C59.12008749 102.80140734 55.57126488 101.79826315 52.02282906 100.79369736 C50.32922537 100.3147551 48.63524333 99.83714852 46.94087029 99.36093521 C44.56853027 98.69334169 42.19801949 98.01959959 39.82788086 97.34423828 C39.13625854 97.15087891 38.44463623 96.95751953 37.73205566 96.75830078 C35.81103883 96.20700607 33.90501423 95.60427833 32 95 C30.74283173 94.61343231 29.48566345 94.22686462 28.19039917 93.82858276 C24.68178229 91.81761298 23.83650738 90.43755379 22.69166565 86.60856628 C22.50490768 85.87922379 22.31814972 85.14988129 22.12573242 84.3984375 C21.9035907 83.62562943 21.68144897 82.85282135 21.45257568 82.05659485 C20.72601274 79.50291073 20.04065411 76.94006703 19.35546875 74.375 C18.85694241 72.58894386 18.3560353 70.80355068 17.8528595 69.01879883 C16.5342755 64.3148843 15.25099515 59.60200433 13.97399902 54.88665771 C12.93231659 51.06340993 11.86595058 47.24727086 10.79806042 43.43127441 C9.51716355 38.85232926 8.24717675 34.27038829 6.98046875 29.6875 C6.7417272 28.82445251 6.50298565 27.96140503 6.25700951 27.07220459 C3.78741657 18.10633914 1.38196855 9.21258795 0 0 Z " fill="#9F73B2" transform="translate(482,85)"/>
<path d="M0 0 C0.66 0 1.32 0 2 0 C4.9899636 10.53366762 7.97218262 21.06949429 10.94467068 31.60810757 C12.32531489 36.50210289 13.70856541 41.39532934 15.09790039 46.28686523 C16.43983464 51.01188607 17.77475474 55.73883801 19.1049366 60.46718025 C19.61236915 62.26628455 20.12227929 64.06469205 20.63476372 65.86236382 C21.35489657 68.3900566 22.06599348 70.92013596 22.77514648 73.45092773 C23.09235405 74.55253235 23.09235405 74.55253235 23.41596985 75.6763916 C23.99815226 77.77431492 24.49894735 79.88146772 25 82 C25.22756202 82.71278642 25.45512403 83.42557283 25.68958187 84.15995884 C26.30788585 86.70861811 26.4713512 88.40982172 26 91 C23.41371216 95.04379548 20.03347725 98.2524953 16.59838867 101.56860352 C15.57502781 102.59241805 14.55385515 103.61842379 13.53471375 104.6464386 C10.76752325 107.42502357 7.9704437 110.17160963 5.16663146 112.91317105 C2.23810414 115.78655388 -0.66282238 118.6875426 -3.56706238 121.58543396 C-8.44450153 126.44448021 -13.33986354 131.28481615 -18.24829102 136.11254883 C-25.17801392 142.9284524 -32.07288161 149.77881632 -38.9620167 156.63570511 C-43.73017666 161.3789831 -48.50654806 166.11398935 -53.28448653 170.84741473 C-54.44443697 171.99663293 -55.60415855 173.14608218 -56.76365495 174.29575849 C-60.06620039 177.56975178 -63.37374537 180.83851818 -66.68974113 184.0988903 C-67.69522516 185.08889528 -68.69903831 186.08060042 -69.70108795 187.07408142 C-71.06425263 188.42486558 -72.4341936 189.76880132 -73.80451965 191.11231995 C-74.57090665 191.86756234 -75.33729364 192.62280474 -76.12690449 193.40093327 C-78 195 -78 195 -80 195 C-77.83122156 186.54692784 -74.45112345 178.63651821 -71.02346802 170.63900757 C-69.22129331 166.43232115 -67.43792347 162.21765691 -65.65234375 158.00390625 C-65.27456284 157.11347122 -64.89678192 156.22303619 -64.5075531 155.30561829 C-60.12458629 144.9610051 -55.84248537 134.57503978 -51.5625 124.1875 C-50.75819622 122.23679241 -49.9538341 120.28610887 -49.14941406 118.33544922 C-47.94554338 115.41604684 -46.74172076 112.49662477 -45.53817749 109.5770874 C-41.45406085 99.67143939 -37.35457533 89.77218561 -33.25 79.875 C-32.90211426 79.03610229 -32.55422852 78.19720459 -32.19580078 77.33288574 C-25.37347723 60.88377066 -18.52641689 44.44498803 -11.671875 28.00927734 C-9.13388062 21.9234916 -6.59828257 15.83670761 -4.0625 9.75 C-3.26172967 7.82812045 -2.46094977 5.90624489 -1.66015625 3.984375 C-1.17494507 2.81986816 -1.17494507 2.81986816 -0.67993164 1.63183594 C-0.4555542 1.09333008 -0.23117676 0.55482422 0 0 Z " fill="#9F73B2" transform="translate(476,90)"/>
<path d="M0 0 C3.43660092 1.48551741 5.70157136 3.43328563 8.36006165 6.05226135 C9.22524918 6.90024796 10.09043671 7.74823456 10.98184204 8.62191772 C11.93244309 9.56364944 12.88290854 10.50551806 13.83325195 11.44750977 C14.84002626 12.43847272 15.84716131 13.42906929 16.85462952 14.41932678 C20.1567136 17.66909807 23.44801395 20.92967792 26.73828125 24.19140625 C27.87250897 25.31491107 29.00675268 26.43839976 30.14101219 27.56187248 C34.85766585 32.23529553 39.57143851 36.91159285 44.27778339 41.5953989 C51.0189051 48.30402152 57.7764164 54.99510108 64.55800658 61.6628204 C69.32799272 66.35542252 74.07867109 71.06702372 78.81540841 75.79318279 C81.6441562 78.61462383 84.48065213 81.42708472 87.33800697 84.21957588 C90.02526702 86.84669313 92.68779308 89.49656629 95.33333397 92.16567039 C96.30707023 93.13984827 97.28938497 94.10553924 98.28074646 95.06177521 C105.68415996 102.21694998 105.68415996 102.21694998 106.4152441 106.34422779 C106.20500309 108.71071757 105.7139866 110.73671238 105 113 C104.83646121 113.68764781 104.67292242 114.37529562 104.50442791 115.08378124 C103.98919368 117.2297646 103.39306209 119.33868869 102.77514648 121.45727539 C102.55066833 122.24862885 102.32619019 123.0399823 102.09490967 123.85531616 C101.36045453 126.43809704 100.61588334 129.0178385 99.87109375 131.59765625 C99.35622662 133.40065315 98.84200007 135.20383309 98.3283844 137.00718689 C96.98176946 141.72880242 95.62652351 146.44789715 94.26940918 151.16650391 C92.88332606 155.99165959 91.5054973 160.81917054 90.12695312 165.64648438 C87.42600062 175.09996748 84.71591574 184.55080574 82 194 C79 193 79 193 77.42871094 189.87768555 C76.85259778 188.46861113 76.28876651 187.05448006 75.734375 185.63671875 C75.42463242 184.87123718 75.11488983 184.10575562 74.79576111 183.31707764 C73.77054573 180.77777111 72.76060886 178.23265082 71.75 175.6875 C71.03100548 173.90124958 70.31069124 172.11552985 69.58911133 170.33032227 C68.47758248 167.57999674 67.36684521 164.82938203 66.26008606 162.07713318 C63.09966875 154.21938121 59.85971811 146.39683217 56.58709717 138.58526611 C55.04546346 134.90465354 53.50888215 131.22193486 51.97265625 127.5390625 C51.65695679 126.78229218 51.34125732 126.02552185 51.01599121 125.24581909 C46.86112077 115.27820751 42.74441966 105.29480061 38.625 95.3125 C32.80581079 81.21198769 26.98016542 67.11422736 21.13540649 53.02429199 C20.07644167 50.47111355 19.01800815 47.91771547 17.9597168 45.36425781 C15.03853646 38.31718767 12.11538957 31.27100098 9.17573547 24.23161316 C8.02693382 21.47985505 6.88059184 18.72707614 5.73458862 15.97415161 C4.95915433 14.11443341 4.17994814 12.25628937 3.40063477 10.39819336 C2.72085571 8.76442749 2.72085571 8.76442749 2.02734375 7.09765625 C1.63281006 6.15414307 1.23827637 5.21062988 0.83178711 4.23852539 C0 2 0 2 0 0 Z " fill="#9F73B2" transform="translate(396,364)"/>
<path d="M0 0 C2.41660164 2.17711522 3.6723019 4.09733083 4.90673828 7.09619141 C5.25273575 7.92626709 5.59873322 8.75634277 5.95521545 9.61157227 C6.32319748 10.51576904 6.6911795 11.41996582 7.0703125 12.3515625 C7.66017189 13.77529175 7.66017189 13.77529175 8.26194763 15.2277832 C9.55664048 18.35734579 10.84078213 21.49112614 12.125 24.625 C13.02914928 26.81588859 13.93402419 29.00647785 14.83959961 31.19677734 C16.68469891 35.66221847 18.52588373 40.12924148 20.36376953 44.59765625 C22.70953077 50.29880065 25.0676564 55.99470275 27.43359375 61.6875 C27.77890137 62.51849213 28.12420898 63.34948425 28.47998047 64.20565796 C29.16647241 65.85771134 29.85297538 67.50976014 30.53948975 69.1618042 C37.68125328 86.35768457 44.7841874 103.5697121 51.88574219 120.78222656 C55.83312612 130.34761427 59.79049818 139.90866761 63.76953125 149.4609375 C64.54169894 151.31639282 65.31383487 153.17186136 66.0859375 155.02734375 C67.51911843 158.47132096 68.95576983 161.91381983 70.39453125 165.35546875 C74.4815556 175.16068017 78.34610109 185.02517267 82 195 C78.56485343 193.5108423 76.26324392 191.5533086 73.58178711 188.95687866 C72.70384995 188.11059402 71.82591278 187.26430939 70.92137146 186.39237976 C69.95652683 185.4523521 68.99185676 184.51214526 68.02734375 183.57177734 C67.00577262 182.58239383 65.98391995 181.59330095 64.96180725 180.60447693 C55.64899772 171.58060269 46.40406848 162.48618614 37.17562866 153.37613487 C30.35692335 146.64659678 23.50764765 139.95167396 16.6146059 133.29828107 C11.76530503 128.61197136 6.95498281 123.88778984 2.17135906 119.13446963 C-0.684916 116.29849889 -3.55564152 113.48208144 -6.47000122 110.70573044 C-23.96285374 94.00472975 -23.96285374 94.00472975 -25.59819603 87.69018745 C-25.65040638 83.24600182 -24.02748048 79.75079615 -21.94713974 75.90291595 C-20.33460603 72.66314468 -19.59974385 69.20949987 -18.72583008 65.71362305 C-18.33009293 64.287352 -17.92911953 62.86252433 -17.52314758 61.43913269 C-17.21653419 60.35605866 -17.21653419 60.35605866 -16.90372658 59.25110435 C-16.69444212 58.51210711 -16.48515766 57.77310986 -16.26953125 57.01171875 C-15.82905264 55.44998843 -15.38876416 53.88820448 -14.94865417 52.32637024 C-14.03662048 49.09160369 -13.12307835 45.85726885 -12.20825195 42.62329102 C-11.03598675 38.47918288 -9.86646686 34.33430634 -8.69791126 30.18915081 C-7.57689002 26.21307504 -6.45450269 22.23738531 -5.33203125 18.26171875 C-5.01293258 17.13081094 -5.01293258 17.13081094 -4.68738747 15.9770565 C-4.08767926 13.85257163 -3.4869941 11.7283656 -2.88598633 9.60424805 C-2.54497391 8.39786179 -2.20396149 7.19147552 -1.85261536 5.9485321 C-1.27571563 3.95348551 -0.65673619 1.97020856 0 0 Z " fill="#9F73B2" transform="translate(244,90)"/>
<path d="M0 0 C11.11587538 4.05328662 22.05333748 8.45266539 32.95123291 13.05789185 C37.66243122 15.04827016 42.37829084 17.02755478 47.09375 19.0078125 C48.07215851 19.41892776 49.05056702 19.83004303 50.05862427 20.25361633 C60.72942688 24.73350036 71.42577422 29.15102831 82.125 33.5625 C84.05665282 34.35926406 85.98829344 35.15605768 87.91992188 35.95288086 C90.79697201 37.13968379 93.67402714 38.32647453 96.55114746 39.5131073 C106.41350535 43.58144107 116.27022976 47.66332539 126.125 51.75 C127.37804428 52.269608 127.37804428 52.269608 128.65640259 52.79971313 C142.52109763 58.55000167 156.37887429 64.31685517 170.23291016 70.09277344 C170.9302124 70.38339661 171.62751465 70.67401978 172.34594727 70.97344971 C173.68958951 71.53402122 175.0328646 72.09547379 176.37573242 72.65789795 C179.45419128 73.94618942 182.5371736 75.2156489 185.63427734 76.45898438 C186.72820801 76.90048828 187.82213867 77.34199219 188.94921875 77.796875 C189.90530029 78.17682617 190.86138184 78.55677734 191.84643555 78.94824219 C194 80 194 80 195 82 C177.78453703 87.34302141 160.4855288 92.36990463 143.14086914 97.2734375 C140.21963306 98.0998262 137.30020614 98.9322278 134.38208008 99.76953125 C130.79834927 100.79781368 127.2120279 101.81650752 123.6235714 102.82817078 C122.27224524 103.21081012 120.92185187 103.59676053 119.57245827 103.98616028 C117.7056425 104.52408588 115.83494977 105.04850174 113.96411133 105.57226562 C112.90541336 105.87314087 111.84671539 106.17401611 110.75593567 106.48400879 C107.84592155 107.02884796 106.72785532 107.01837138 104 106 C101.88360214 104.25833225 101.88360214 104.25833225 99.57073975 101.94496155 C98.69016907 101.07140518 97.80959839 100.19784882 96.90234375 99.29782104 C95.93442306 98.32247277 94.96665472 97.34697329 93.99902344 96.37133789 C92.97444476 95.34918718 91.94922098 94.32768277 90.92340088 93.30677795 C88.13990808 90.53269528 85.36592174 87.74928221 82.59379864 84.96384358 C79.69444626 82.05318466 76.78739558 79.15023281 73.88140869 76.24620056 C69.00393074 71.36960562 64.13247094 66.48706202 59.26464844 61.60083008 C53.63032462 55.94532077 47.98720304 50.29871091 42.33916068 44.65690428 C36.91178644 39.23521626 31.49008743 33.80788894 26.07117462 28.37774467 C23.76190934 26.06382538 21.4507592 23.75181285 19.13811493 21.44127083 C16.4182985 18.72333228 13.70350317 16.00047676 10.9925766 13.2736721 C9.99453345 12.27137186 8.99476989 11.27078149 7.99320984 10.27199554 C6.63129697 8.91328441 5.27610662 7.54784463 3.92132568 6.18202209 C3.1595892 5.41823274 2.39785271 4.65444338 1.61303329 3.86750889 C0 2 0 2 0 0 Z " fill="#9F73B2" transform="translate(400,359)"/>
<path d="M0 0 C-0.40613525 0.95737061 -0.81227051 1.91474121 -1.23071289 2.90112305 C-8.78280703 20.71589369 -16.27102857 38.55137586 -23.5 56.5 C-28.47907292 68.85778988 -33.55880749 81.16729202 -38.75 93.4375 C-44.77525079 107.6810307 -50.72722791 121.95318897 -56.625 136.25 C-57.02357208 137.21616241 -57.42214417 138.18232483 -57.83279419 139.17776489 C-60.18122849 144.87196622 -62.52751837 150.56704878 -64.8727417 156.26257324 C-65.98272627 158.95805258 -67.09309573 161.65337302 -68.20361328 164.34863281 C-72.13820629 173.89807528 -76.07070703 183.44837544 -80 193 C-80.66 193 -81.32 193 -82 193 C-82 143.5 -82 94 -82 43 C-67.645 35.08 -67.645 35.08 -53 27 C-39.70594654 19.50490308 -39.70594654 19.50490308 -26.43652344 11.96630859 C-23.32314169 10.18907612 -20.20401073 8.42229811 -17.08135986 6.66140747 C-15.86796529 5.97472037 -14.65662417 5.28439106 -13.44744873 4.59030151 C-11.7671736 3.62636589 -10.0790588 2.67613487 -8.390625 1.7265625 C-7.42157227 1.17564941 -6.45251953 0.62473633 -5.45410156 0.05712891 C-3 -1 -3 -1 0 0 Z " fill="#9F73B2" transform="translate(445,78)"/>
<path d="M0 0 C2.25506306 1.63982391 2.25506306 1.63982391 4.58747864 3.98620605 C5.47783813 4.86969223 6.36819763 5.75317841 7.28553772 6.66343689 C8.25935829 7.65495258 9.23293726 8.64670559 10.20629883 9.63867188 C11.24043182 10.67421525 12.2756671 11.70865884 13.31192017 12.74208069 C16.12242723 15.5511518 18.91724041 18.37538436 21.70952439 21.2025547 C24.63006398 24.15432754 27.56474683 27.091969 30.49797058 30.03112793 C36.05047947 35.59918412 41.59011894 41.17986428 47.12526768 46.76517248 C53.42736388 53.12313436 59.74364507 59.46692289 66.06116831 65.80955029 C79.05664569 78.85730593 92.03416807 91.92278801 105 105 C100.7733294 106.4088902 98.08124303 104.65444221 94.1796875 102.9765625 C93.38599762 102.64429657 92.59230774 102.31203064 91.77456665 101.96969604 C89.13761622 100.86351701 86.50646976 99.74414708 83.875 98.625 C82.02060628 97.84469474 80.16578151 97.06541317 78.31054688 96.28710938 C74.45110963 94.66706494 70.59357801 93.04259964 66.73730469 91.41503906 C58.84776152 88.08905843 50.93620021 84.8165511 43.02423096 81.54437256 C38.7650715 79.78219258 34.50763055 78.01586997 30.25 76.25 C28.54167474 75.54164719 26.83334141 74.83331385 25.125 74.125 C21.70833333 72.70833333 18.29166667 71.29166667 14.875 69.875 C13.60666824 69.34910782 13.60666824 69.34910782 12.31271362 68.81259155 C10.6036654 68.10395982 8.89462 67.3953213 7.18557739 66.68667603 C2.92570478 64.92035276 -1.33421594 63.15414572 -5.59423828 61.38818359 C-13.41241143 58.14707734 -21.23018767 54.90502756 -29.04620361 51.65872192 C-31.72923077 50.54444351 -34.41244965 49.43062784 -37.09570312 48.31689453 C-40.57162326 46.87413974 -44.04678404 45.42957647 -47.52148438 43.98388672 C-55.17450683 40.80329793 -62.83502398 37.64895288 -70.5390625 34.59375 C-71.82635874 34.08062688 -73.11363175 33.56744546 -74.40087891 33.05419922 C-76.73000038 32.1293127 -79.062812 31.21364306 -81.39990234 30.30908203 C-82.40230957 29.91060059 -83.4047168 29.51211914 -84.4375 29.1015625 C-85.30246094 28.76463379 -86.16742188 28.42770508 -87.05859375 28.08056641 C-89 27 -89 27 -90 24 C-79.0059146 20.8630805 -68.00984645 17.73322115 -57.01118946 14.61236572 C-51.90416896 13.16301525 -46.79786403 11.71123957 -41.69311523 10.25390625 C-36.76697805 8.84766062 -31.83906605 7.44780575 -26.9098568 6.05236816 C-25.02934809 5.518792 -23.1494909 4.98291411 -21.27030373 4.44470215 C-18.63867603 3.69141057 -16.00485331 2.94632703 -13.37036133 2.203125 C-12.59352493 1.97870728 -11.81668854 1.75428955 -11.01631165 1.52307129 C-3.89629395 -0.4681504 -3.89629395 -0.4681504 0 0 Z " fill="#9F73B2" transform="translate(217,183)"/>
<path d="M0 0 C2.2977191 2.21157324 3.60784079 3.94721626 4.81494141 6.91259766 C5.14092316 7.70264191 5.46690491 8.49268616 5.80276489 9.30667114 C6.1488681 10.16711029 6.49497131 11.02754944 6.8515625 11.9140625 C7.22256073 12.8187326 7.59355896 13.72340271 7.97579956 14.65548706 C9.19908229 17.64256249 10.41190612 20.63377398 11.625 23.625 C12.48159946 25.72103941 13.33903201 27.81673854 14.19726562 29.91210938 C15.9550053 34.20489425 17.70953194 38.49897081 19.46191406 42.79394531 C22.76642962 50.88450454 26.11652889 58.95595402 29.47155762 67.02566528 C31.2151441 71.2205688 32.95527906 75.41690295 34.6953125 79.61328125 C35.04464844 80.4556987 35.39398438 81.29811615 35.75390625 82.1660614 C40.76228106 94.24688979 45.75314868 106.33496154 50.74267578 118.42358398 C51.53677741 120.34749615 52.33088551 122.27140564 53.125 124.1953125 C53.52024872 125.1529097 53.91549744 126.1105069 54.32272339 127.09712219 C56.85491968 133.23060534 59.3911919 139.36238824 61.93026733 145.49302673 C63.66274257 149.67630643 65.39405211 153.86006815 67.12530518 158.04385376 C67.94630393 160.02698177 68.76786065 162.0098789 69.59002686 163.99252319 C73.85635865 174.28130852 78.08798459 184.5699725 82 195 C78.71113602 194.33229677 76.10915549 193.11810952 73.16796875 191.515625 C72.21688232 190.9995166 71.2657959 190.4834082 70.28588867 189.95166016 C69.26342041 189.3901123 68.24095215 188.82856445 67.1875 188.25 C66.11798096 187.66653809 65.04846191 187.08307617 63.9465332 186.48193359 C55.89093557 182.07311478 47.88399856 177.58076474 39.90185547 173.04052734 C34.51706621 169.97920401 29.11723775 166.94802439 23.6953125 163.953125 C23.07974991 163.61280243 22.46418732 163.27247986 21.82997131 162.92184448 C18.81606123 161.25608068 15.80035208 159.59370383 12.78198242 157.93603516 C11.69506104 157.33581543 10.60813965 156.7355957 9.48828125 156.1171875 C8.52446533 155.58722168 7.56064941 155.05725586 6.56762695 154.51123047 C5.72031006 154.01252441 4.87299316 153.51381836 4 153 C3.29696369 152.59872233 2.59392738 152.19744467 1.86958694 151.78400707 C0 150 0 150 -0.49219131 147.28825092 C-0.48850414 146.18486472 -0.48481697 145.08147852 -0.48101807 143.94465637 C-0.48651672 142.67840927 -0.49201538 141.41216217 -0.49768066 140.10754395 C-0.48352403 138.70165638 -0.46898479 137.29577263 -0.45410156 135.88989258 C-0.45297345 134.41163667 -0.45360624 132.93337851 -0.45587158 131.4551239 C-0.45702109 127.43870508 -0.4334739 123.42276233 -0.40557575 119.40645432 C-0.38060132 115.21042168 -0.37822324 111.01437859 -0.37347412 106.81828308 C-0.36103266 98.87093446 -0.32819533 90.92380545 -0.28807616 82.97655362 C-0.24339477 73.92952879 -0.22138057 64.88249358 -0.20129442 55.83538592 C-0.15946364 37.22346601 -0.08908895 18.61175065 0 0 Z " fill="#9F73B2" transform="translate(363,377)"/>
<path d="M0 0 C4.65892188 0.59872629 8.52549596 1.87914683 12.84375 3.7109375 C13.50831711 3.99042236 14.17288422 4.26990723 14.85758972 4.55786133 C16.30764048 5.16848339 17.75646477 5.78202429 19.20419312 6.39813232 C22.38423908 7.75124444 25.57032277 9.08987242 28.75602722 10.42959595 C30.47346155 11.15200316 32.19058714 11.87514473 33.90742493 12.59896851 C43.17822409 16.50534855 52.47736519 20.3423765 61.7784729 24.17590332 C66.67337807 26.19357601 71.56714416 28.21400742 76.4609375 30.234375 C77.42894791 30.63396423 78.39695831 31.03355347 79.39430237 31.44525146 C93.39105923 37.22421464 107.37721647 43.0287551 121.36386108 48.83213806 C128.42198424 51.7606212 135.48101763 54.6869053 142.54045105 57.61222839 C146.93878119 59.43495016 151.3367176 61.25860769 155.73364258 63.0847168 C165.87157581 67.29556235 165.87157581 67.29556235 176.02635193 71.46556091 C177.79432748 72.18740712 179.56113166 72.91212031 181.32788086 73.63696289 C183.37200119 74.47503177 185.41824243 75.30795525 187.46704102 76.13452148 C188.76726196 76.66928101 188.76726196 76.66928101 190.09375 77.21484375 C190.83302734 77.51511475 191.57230469 77.81538574 192.33398438 78.12475586 C194 79 194 79 195 81 C175.54632874 81.2336362 156.09294223 81.40995912 136.6381588 81.51812172 C127.60481231 81.56967959 118.57233764 81.63996343 109.53955078 81.75439453 C101.66618605 81.85409002 93.79345262 81.91858672 85.91947424 81.94088495 C81.75011071 81.95391981 77.58255312 81.98452825 73.41376877 82.05730057 C69.48812897 82.12527212 65.56503498 82.14610116 61.63886261 82.13107681 C60.19961571 82.13382424 58.76028228 82.15367233 57.32154465 82.19205475 C53.03556852 82.30077027 49.11213954 82.27128945 45 81 C42.04950918 78.00583613 40.54666455 74.86914265 39 71 C38.38890381 69.92790283 37.77780762 68.85580566 37.14819336 67.7512207 C36.63393799 66.81882568 36.11968262 65.88643066 35.58984375 64.92578125 C34.70377441 63.32391968 34.70377441 63.32391968 33.79980469 61.68969727 C33.18524414 60.57522217 32.57068359 59.46074707 31.9375 58.3125 C30.60937711 55.91073516 29.27959046 53.50989482 27.94921875 51.109375 C27.61673126 50.50928116 27.28424377 49.90918732 26.94168091 49.29090881 C23.74540045 43.52859006 20.5018558 37.79357617 17.25 32.0625 C13.02336261 24.6047609 8.82947479 17.13013404 4.6875 9.625 C3.9754541 8.33928101 3.9754541 8.33928101 3.24902344 7.02758789 C2.82008789 6.24762451 2.39115234 5.46766113 1.94921875 4.6640625 C1.57112061 3.97779785 1.19302246 3.2915332 0.8034668 2.58447266 C0 1 0 1 0 0 Z " fill="#9F73B2" transform="translate(113,241)"/>
<path d="M0 0 C-9.03615146 16.28990772 -18.1017042 32.56272615 -27.21337891 48.81054688 C-28.78716758 51.62005429 -30.35849344 54.43092055 -31.9282074 57.2427063 C-32.90546481 58.99322721 -33.88327086 60.74344179 -34.86108398 62.49365234 C-36.09460953 64.70178584 -37.32723453 66.91042272 -38.55883789 69.11962891 C-39.11176514 70.10882324 -39.66469238 71.09801758 -40.234375 72.1171875 C-40.96479004 73.42598877 -40.96479004 73.42598877 -41.70996094 74.76123047 C-42.73948839 76.54790094 -43.85617132 78.28425698 -45 80 C-47.60431862 80.36914349 -47.60431862 80.36914349 -50.97305298 80.36076355 C-52.88298286 80.36694954 -52.88298286 80.36694954 -54.83149719 80.3732605 C-56.25045986 80.36264233 -57.66942041 80.35173789 -59.08837891 80.34057617 C-60.57633955 80.33973034 -62.06430144 80.34020419 -63.55226135 80.34190369 C-67.59964345 80.34276677 -71.6467605 80.32509056 -75.69408083 80.30418181 C-79.92082671 80.28546706 -84.14757821 80.28366869 -88.37435913 80.28010559 C-96.38190153 80.27076979 -104.38932152 80.24613532 -112.39680994 80.21605712 C-121.51153867 80.18256079 -130.62627316 80.16603912 -139.7410481 80.15097082 C-158.49410155 80.11958704 -177.24704094 80.06679681 -196 80 C-192.29858092 77.08802587 -188.42149637 75.34494814 -184.08203125 73.5859375 C-182.89361885 73.09602829 -182.89361885 73.09602829 -181.68119812 72.59622192 C-179.06043811 71.51719259 -176.43647359 70.44618806 -173.8125 69.375 C-171.96198936 68.61454091 -170.11173292 67.85346298 -168.26171875 67.09179688 C-164.41585891 65.5089884 -160.56891563 63.9288565 -156.72119141 62.35058594 C-148.8140683 59.10490223 -140.92036467 55.82698146 -133.02661133 52.5489502 C-128.76190202 50.7784097 -124.4961134 49.01047306 -120.23046875 47.2421875 C-114.30039004 44.78352746 -108.3706018 42.32416865 -102.44116211 39.8639679 C-98.23170054 38.11742233 -94.0221206 36.3711622 -89.8125 34.625 C-88.98224304 34.28058868 -88.15198608 33.93617737 -87.29656982 33.58132935 C-77.15565638 29.37511458 -67.01149625 25.17685101 -56.86328125 20.98828125 C-55.84118057 20.56637512 -54.8190799 20.14446899 -53.76600647 19.70977783 C-48.82465108 17.67023913 -43.88295095 15.63154237 -38.94067383 13.59423828 C-38.03060074 13.21865784 -37.12052765 12.84307739 -36.18287659 12.45611572 C-34.39715753 11.71956111 -32.61090289 10.98430347 -30.82408142 10.25042725 C-26.38485145 8.42212729 -21.96596621 6.55810032 -17.56933594 4.62939453 C-16.26420547 4.06219444 -16.26420547 4.06219444 -14.93270874 3.48353577 C-13.28622277 2.76587107 -11.6437008 2.0390172 -10.00601196 1.30149841 C-9.27361298 0.98358841 -8.54121399 0.66567841 -7.78662109 0.33813477 C-7.1492099 0.05462662 -6.51179871 -0.22888153 -5.85507202 -0.52098083 C-3.58761452 -1.10648673 -2.19679536 -0.72710083 0 0 Z " fill="#9F73B2" transform="translate(609,242)"/>
<path d="M0 0 C1.93742561 0.54042339 1.93742561 0.54042339 3.86131287 1.23239136 C5.2035498 1.56403655 6.54705827 1.89057143 7.89169312 2.21235657 C9.32585313 2.6108133 10.75829025 3.01550909 12.18919373 3.42550659 C13.37359543 3.75740494 13.37359543 3.75740494 14.58192444 4.0960083 C17.16506269 4.82169292 19.74567114 5.55592784 22.32615662 6.29098511 C24.1282868 6.80071431 25.93049858 7.31015509 27.73278809 7.81932068 C31.49526765 8.88381149 35.25645547 9.95272704 39.01683044 11.02462769 C43.84535516 12.40046906 48.67734718 13.76366797 53.51041317 15.12345791 C57.22561243 16.17048364 60.93870044 17.22483947 64.65120125 18.28138924 C66.43317515 18.7874089 68.21585555 19.29094727 69.99923515 19.79199028 C72.4814475 20.49039741 74.96059595 21.19877029 77.43919373 21.90988159 C78.18043991 22.11618698 78.9216861 22.32249237 79.68539429 22.53504944 C81.42915741 23.0410923 83.1488093 23.62896719 84.86131287 24.23239136 C85.19131287 24.89239136 85.52131287 25.55239136 85.86131287 26.23239136 C65.08640738 35.47888819 44.03077855 44.0510755 23.00389099 52.70358276 C13.18187403 56.74598939 3.36548727 60.80203263 -6.45118713 64.85739136 C-8.3716785 65.65060465 -10.29217004 66.44381754 -12.21266174 67.23703003 C-24.04600904 72.12508806 -35.87688308 77.01908547 -47.70414734 81.92184448 C-50.23134456 82.96899019 -52.7590725 84.01484605 -55.28688049 85.06051636 C-62.86584193 88.19816464 -70.43751626 91.35096468 -77.98796082 94.55673218 C-81.3593134 95.98788662 -84.73332285 97.41272045 -88.1073761 98.8374939 C-89.69860594 99.51192511 -91.28836052 100.18984877 -92.87654114 100.87142944 C-95.05160206 101.80486768 -97.23120444 102.72680772 -99.41212463 103.64645386 C-100.05377563 103.92568695 -100.69542664 104.20492004 -101.35652161 104.49261475 C-105.79726712 106.34619803 -105.79726712 106.34619803 -109.13868713 105.23239136 C-95.61401861 91.49751429 -82.06369042 77.78846126 -68.48228455 64.10967922 C-62.17683251 57.75781257 -55.8800664 51.39776347 -49.6030426 45.01779175 C-44.13217986 39.45724583 -38.64569811 33.91268351 -33.13985538 28.38676316 C-30.22478018 25.45995064 -27.31815632 22.52572986 -24.43009949 19.5722332 C-21.71125615 16.79228907 -18.97201406 14.03421602 -16.21570015 11.29143524 C-15.20810022 10.28135974 -14.20818706 9.26354814 -13.21674919 8.23760414 C-4.77525242 -0.48303607 -4.77525242 -0.48303607 0 0 Z " fill="#9F73B2" transform="translate(509.13868713378906,182.76760864257813)"/>
<path d="M0 0 C0.495 0.99 0.495 0.99 1 2 C0.25031538 4.18359917 -0.61166919 6.32874362 -1.515625 8.453125 C-1.79793976 9.1233519 -2.08025452 9.7935788 -2.37112427 10.4841156 C-2.99310474 11.95832621 -3.61866342 13.43103079 -4.24725342 14.9024353 C-5.62413946 18.12591083 -6.98385651 21.35654321 -8.34494019 24.5867157 C-9.07819516 26.32628035 -9.81237088 28.06545714 -10.5473938 29.80427551 C-14.4783881 39.10856949 -18.33070236 48.44492253 -22.1784668 57.78387451 C-24.19222433 62.67065716 -26.20949375 67.55598962 -28.2265625 72.44140625 C-28.6257489 73.40840454 -29.0249353 74.37540283 -29.43621826 75.3717041 C-33.53243762 85.29294091 -37.63883724 95.20994714 -41.75 105.125 C-42.09912445 105.96703979 -42.4482489 106.80907959 -42.80795288 107.67663574 C-46.49818068 116.57548248 -50.19418574 125.47189005 -53.90234375 134.36328125 C-54.21842087 135.12128525 -54.53449799 135.87928925 -54.8601532 136.66026306 C-56.41179662 140.38078526 -57.96463807 144.10080108 -59.51928711 147.82006836 C-62.70759229 155.45427581 -65.86285865 163.10066538 -68.9765625 170.765625 C-69.6266114 172.36144926 -70.27675643 173.95723437 -70.92700195 175.55297852 C-72.16216013 178.58437056 -73.38849046 181.6191358 -74.61010742 184.65600586 C-75.16290444 186.01430031 -75.71602712 187.37246229 -76.26953125 188.73046875 C-76.75010986 189.92051514 -77.23068848 191.11056152 -77.72583008 192.33666992 C-79 195 -79 195 -81 196 C-84.31118335 184.60019023 -87.60677289 173.19600102 -90.88241005 161.785923 C-92.4038383 156.48816237 -93.93063873 151.1920738 -95.46972656 145.89941406 C-96.95423555 140.79370642 -98.42461794 135.68412604 -99.88520432 130.57152557 C-100.44553522 128.61959333 -101.01098122 126.66912212 -101.58156204 124.72016144 C-102.37858896 121.99451597 -103.15743174 119.26428861 -103.93212891 116.53222656 C-104.17308792 115.72374268 -104.41404694 114.91525879 -104.66230774 114.08227539 C-106.19870633 108.56183863 -106.19870633 108.56183863 -105.30608368 106.03796387 C-103.71681386 103.558127 -101.89799571 101.65245837 -99.81124878 99.57073975 C-98.49451675 98.24988373 -98.49451675 98.24988373 -97.15118408 96.90234375 C-96.17623987 95.93447722 -95.20120004 94.966707 -94.22607422 93.99902344 C-93.20073209 92.97424558 -92.17583042 91.94902688 -91.15133667 90.92340088 C-88.37088049 88.14237082 -85.58430044 85.36755089 -82.79658651 82.59379864 C-79.88353292 79.69324644 -76.97614104 76.78703056 -74.06814575 73.88140869 C-68.56148656 68.38096599 -63.0497489 62.88564148 -57.53617203 57.39213395 C-51.25902584 51.13734145 -44.98755684 44.87686986 -38.71656013 38.61591291 C-25.81735044 25.73760907 -12.9110225 12.86646045 0 0 Z " fill="#9F73B2" transform="translate(325,363)"/>
<path d="M0 0 C0.99 0.495 0.99 0.495 2 1 C-11.48285196 14.95048323 -25.02288595 28.84297376 -38.63305664 42.66930008 C-44.95157947 49.09086674 -51.2501768 55.52987995 -57.50488281 62.01367188 C-62.95797645 67.66639412 -68.4455826 73.28280877 -73.97709084 78.85886073 C-76.90416288 81.81196738 -79.81121136 84.77996362 -82.67755127 87.7921524 C-85.37964601 90.6305894 -88.12570784 93.417844 -90.91172409 96.17387772 C-91.92257573 97.19020804 -92.91654828 98.22367168 -93.89091873 99.27502823 C-96.98670149 102.60284851 -99.79618272 105.21311649 -104 107 C-109.76438502 106.64209078 -114.6104609 104.99246017 -120 103 C-121.52977258 102.56852554 -123.06405277 102.15195063 -124.60604858 101.76643372 C-126.43566635 101.25133492 -126.43566635 101.25133492 -128.30224609 100.72583008 C-128.99387344 100.53178085 -129.68550079 100.33773163 -130.39808655 100.13780212 C-132.6071906 99.51734118 -134.8153459 98.89358472 -137.0234375 98.26953125 C-138.58757475 97.82909248 -140.15175408 97.38880315 -141.7159729 96.94865417 C-144.95495476 96.03668975 -148.19347137 95.12309742 -151.43164062 94.20825195 C-155.58456695 93.03509323 -159.73860612 91.86593012 -163.89298058 90.69791126 C-167.1051909 89.79436359 -170.31685023 88.88887055 -173.52833939 87.98276329 C-175.06161902 87.55038549 -176.59506286 87.11858956 -178.12867355 86.68738747 C-180.25610227 86.08888586 -182.38278308 85.48779828 -184.50927734 84.88598633 C-185.71788422 84.54497391 -186.92649109 84.20396149 -188.17172241 83.85261536 C-191 83 -191 83 -193 82 C-193 81.34 -193 80.68 -193 80 C-191.23184937 79.27018921 -191.23184937 79.27018921 -189.42797852 78.52563477 C-168.34237243 69.8219005 -147.25830401 61.1145188 -126.1875 52.375 C-125.35279175 52.02879608 -124.5180835 51.68259216 -123.65808105 51.32589722 C-117.7718619 48.88439453 -111.88589892 46.44227459 -106 44 C-99.27101396 41.20789776 -92.54187475 38.41616526 -85.8125 35.625 C-84.98178986 35.28040741 -84.15107971 34.93581482 -83.29519653 34.58078003 C-73.15474162 30.37474638 -63.0110406 26.17666295 -52.86328125 21.98828125 C-51.84118057 21.56637512 -50.8190799 21.14446899 -49.76600647 20.70977783 C-44.82465108 18.67023913 -39.88295095 16.63154237 -34.94067383 14.59423828 C-34.03043961 14.21865784 -33.12020538 13.84307739 -32.18238831 13.45611572 C-30.39810736 12.72002147 -28.6134774 11.98477259 -26.82847595 11.25042725 C-22.36963172 9.41165032 -17.92571373 7.54440601 -13.49902344 5.62939453 C-12.61991302 5.25126114 -11.74080261 4.87312775 -10.83505249 4.48353577 C-9.1638758 3.7628845 -7.49544341 3.03582562 -5.83023071 2.30149841 C-3.91100355 1.47569315 -1.95785836 0.72950521 0 0 Z " fill="#9F73B2" transform="translate(320,359)"/>
<path d="M0 0 C49.5 0 99 0 150 0 C163.62268786 23.83970376 163.62268786 23.83970376 169.4375 34.375 C174.79567016 44.05824727 180.20349225 53.71094858 185.70092773 63.31591797 C189.00301597 69.11736494 192.07567141 74.99925199 195 81 C190.02720389 80.29344152 185.66248248 78.34272897 181.06640625 76.4140625 C180.17801056 76.04561218 179.28961487 75.67716187 178.3742981 75.29754639 C175.43527309 74.07754983 172.49892825 72.85123197 169.5625 71.625 C167.49279329 70.76465809 165.42288436 69.90480252 163.3527832 69.04541016 C159.0452824 67.25674902 154.73866474 65.46598482 150.43261719 63.67382812 C141.47818945 59.94912534 132.51222347 56.25243796 123.54669189 52.55456543 C108.08726338 46.17674676 92.63508086 39.7814547 77.1875 33.375 C76.35892487 33.03139435 75.53034973 32.6877887 74.67666626 32.33377075 C66.00669738 28.73819306 57.33758225 25.1405663 48.66969299 21.53997803 C44.96308341 20.00044269 41.25617161 18.46163586 37.54922485 16.9229126 C35.80100477 16.19700296 34.0529313 15.47074011 32.30502319 14.74407959 C29.86777851 13.73084337 27.43004707 12.71878701 24.9921875 11.70703125 C23.84744713 11.23085358 23.84744713 11.23085358 22.67958069 10.74505615 C18.97624373 9.20988498 15.26508813 7.70355592 11.52832031 6.25146484 C10.47742722 5.84114265 10.47742722 5.84114265 9.40530396 5.42253113 C7.51104307 4.68654105 5.61330478 3.95951865 3.71533203 3.2331543 C1 2 1 2 0 0 Z " fill="#9F73B2" transform="translate(414,327)"/>
<path d="M0 0 C49.83 0 99.66 0 151 0 C147.25880163 2.80589877 143.79664565 4.48680401 139.51953125 6.1953125 C138.77173904 6.49967728 138.02394684 6.80404205 137.25349426 7.11763 C135.62952275 7.77789781 134.00447222 8.43551648 132.378479 9.09078979 C128.86409896 10.50725022 125.35504429 11.93669068 121.84558105 13.36528015 C120.00413212 14.11472493 118.16241218 14.8635041 116.32043457 15.61164856 C106.73559009 19.5062633 97.17899064 23.46793598 87.625 27.4375 C85.90823413 28.15013981 84.19143709 28.86270451 82.47460938 29.57519531 C79.0280082 31.00566272 75.58156109 32.43650025 72.13525391 33.86767578 C63.69530979 37.37246447 55.25409871 40.87419868 46.8125 44.375 C45.98142731 44.71965302 45.15035461 45.06430603 44.2940979 45.41940308 C30.13767812 51.28955537 15.97634434 57.14778657 1.8125 63 C0.87516022 63.38742371 -0.06217957 63.77484741 -1.02792358 64.17401123 C-6.42239148 66.40346053 -11.81839821 68.62912695 -17.21575928 70.8515625 C-20.20603093 72.08498319 -23.19404985 73.32377785 -26.18212891 74.5625 C-28.20078364 75.39598523 -30.21949936 76.22932278 -32.23828125 77.0625 C-33.18664352 77.45703369 -34.1350058 77.85156738 -35.11210632 78.25805664 C-35.98559219 78.61762451 -36.85907806 78.97719238 -37.7590332 79.34765625 C-38.53140823 79.66742432 -39.30378326 79.98719238 -40.0995636 80.31665039 C-42 81 -42 81 -44 81 C-42.37504212 75.02530732 -39.32413259 70.00613713 -36.25 64.6875 C-35.06457389 62.61358426 -33.87969648 60.53935481 -32.6953125 58.46484375 C-32.08333008 57.3960498 -31.47134766 56.32725586 -30.84082031 55.22607422 C-20.39174838 36.91386778 -10.23844727 18.42920509 0 0 Z " fill="#9F73B2" transform="translate(157,327)"/>
<path d="M0 0 C0.33 0 0.66 0 1 0 C1 49.83 1 99.66 1 151 C-6.26 154.96 -13.52 158.92 -21 163 C-24.73725441 165.09239385 -28.46841584 167.18895344 -32.1875 169.3125 C-42.07511679 174.92991098 -52.0064576 180.46527855 -61.95385742 185.97583008 C-63.03127197 186.57290771 -64.10868652 187.16998535 -65.21875 187.78515625 C-66.72888672 188.62071045 -66.72888672 188.62071045 -68.26953125 189.47314453 C-70.5824502 190.76650962 -72.87197036 192.09069636 -75.15625 193.43359375 C-78 195 -78 195 -80 195 C-77.1947095 185.93995069 -73.49549804 177.2563298 -69.875 168.5 C-69.16116925 166.76750093 -68.44755057 165.03491447 -67.73413086 163.30224609 C-65.49431262 157.86613812 -63.24792443 152.4327601 -61 147 C-60.64387634 146.13910767 -60.28775269 145.27821533 -59.9208374 144.39123535 C-55.69234882 134.170501 -51.45495001 123.95347612 -47.21295166 113.73834229 C-43.65852943 105.17886607 -40.10882578 96.61743632 -36.55957031 88.05581665 C-35.15146782 84.65929662 -33.74310372 81.26288509 -32.33474731 77.86647034 C-29.43366543 70.87013992 -26.53302283 63.87362771 -23.63310242 56.8768158 C-15.77236315 37.91078932 -7.91010009 18.94550903 0 0 Z " fill="#9F73B2" transform="translate(357,377)"/>
<path d="M0 0 C9.69930033 4.66444429 19.11764777 9.69253516 28.43530273 15.07861328 C36.88774519 19.9602945 45.41918313 24.69359604 53.97192383 29.39672852 C56.07983559 30.56092881 58.16849395 31.76080145 60.23449707 32.99784851 C62.8812901 34.50969332 65.41303121 35.48621901 68.32719421 36.36651611 C73.54764026 38.21223656 77.76697356 40.37575716 81 45 C84.03586031 54.98081403 83.03016414 66.18067642 82.72369695 76.50523233 C82.61693426 80.71013084 82.60740213 84.91526273 82.58726501 89.12130737 C82.53456209 97.07378004 82.39527066 105.02224819 82.22432369 112.97296226 C82.03386088 122.02928563 81.9407306 131.0858073 81.85550129 140.14363694 C81.67812008 158.76468967 81.37939443 177.38202224 81 196 C78.65873809 192.48810714 77.14416395 188.79773039 75.53515625 184.91796875 C75.19036224 184.09346725 74.84556824 183.26896576 74.49032593 182.41947937 C73.34450612 179.67681407 72.20342943 176.93220289 71.0625 174.1875 C70.25482114 172.2507377 69.44695656 170.31405284 68.63891602 168.37744141 C60.86838848 149.73892918 53.16753505 131.07154385 45.46870422 112.40333557 C41.83695592 103.59962297 38.19022588 94.80215876 34.53997803 86.00610352 C28.37253934 71.14402049 22.21341525 56.27850426 16.06640625 41.40795898 C15.24427892 39.41939048 14.4218608 37.43094217 13.59912109 35.44262695 C11.05708622 29.298763 8.52190573 23.15215598 6 17 C5.68270935 16.22644165 5.3654187 15.4528833 5.03851318 14.65588379 C4.17106239 12.5353462 3.30894144 10.41274307 2.44921875 8.2890625 C1.97186279 7.1129541 1.49450684 5.9368457 1.00268555 4.72509766 C0 2 0 2 0 0 Z " fill="#9F73B2" transform="translate(277,76)"/>
</svg>
