<?xml version="1.0" encoding="UTF-8"?>
<svg xmlns="http://www.w3.org/2000/svg" xmlns:xlink="http://www.w3.org/1999/xlink" width="41px" height="35px" viewBox="0 0 40 35" version="1.1">
<g id="surface1">
<path style=" stroke:none;fill-rule:nonzero;fill:rgb(62.352943%,45.09804%,69.803923%);fill-opacity:1;" d="M 26.785156 10.195312 C 26.800781 10.195312 26.816406 10.195312 26.835938 10.195312 C 26.914062 10.378906 26.992188 10.566406 27.070312 10.75 C 27.105469 10.839844 27.144531 10.921875 27.183594 11.007812 C 27.191406 11.042969 27.210938 11.074219 27.21875 11.113281 C 27.230469 11.132812 27.230469 11.132812 27.242188 11.160156 C 27.277344 11.242188 27.3125 11.324219 27.347656 11.414062 C 27.367188 11.445312 27.375 11.480469 27.390625 11.511719 C 27.398438 11.527344 27.402344 11.542969 27.414062 11.5625 C 27.457031 11.664062 27.496094 11.761719 27.542969 11.863281 C 27.566406 11.910156 27.582031 11.964844 27.601562 12.015625 C 27.628906 12.074219 27.65625 12.136719 27.683594 12.195312 C 27.699219 12.234375 27.699219 12.234375 27.722656 12.277344 C 27.730469 12.316406 27.730469 12.316406 27.746094 12.347656 C 27.78125 12.464844 27.742188 12.554688 27.699219 12.660156 C 27.695312 12.683594 27.683594 12.699219 27.671875 12.71875 C 27.660156 12.753906 27.660156 12.753906 27.644531 12.785156 C 27.632812 12.808594 27.628906 12.828125 27.617188 12.855469 C 27.585938 12.929688 27.554688 13.003906 27.523438 13.082031 C 27.5 13.128906 27.476562 13.179688 27.457031 13.234375 C 27.414062 13.339844 27.371094 13.441406 27.320312 13.546875 C 27.277344 13.65625 27.230469 13.769531 27.183594 13.878906 C 27.148438 13.957031 27.117188 14.027344 27.085938 14.105469 C 27.0625 14.152344 27.046875 14.203125 27.027344 14.25 C 26.957031 14.410156 26.886719 14.570312 26.808594 14.722656 C 26.742188 14.65625 26.695312 14.589844 26.652344 14.507812 C 26.636719 14.480469 26.621094 14.453125 26.605469 14.425781 C 26.59375 14.398438 26.578125 14.367188 26.5625 14.339844 C 26.523438 14.277344 26.492188 14.214844 26.460938 14.152344 C 26.445312 14.121094 26.421875 14.085938 26.40625 14.054688 C 26.324219 13.914062 26.25 13.765625 26.167969 13.617188 C 26.152344 13.589844 26.136719 13.5625 26.121094 13.535156 C 26.046875 13.394531 25.964844 13.25 25.882812 13.109375 C 25.871094 13.082031 25.855469 13.054688 25.839844 13.027344 C 25.808594 12.972656 25.78125 12.917969 25.75 12.867188 C 25.722656 12.820312 25.695312 12.773438 25.671875 12.726562 C 25.636719 12.660156 25.636719 12.660156 25.597656 12.605469 C 25.554688 12.550781 25.539062 12.511719 25.527344 12.441406 C 25.570312 12.308594 25.640625 12.195312 25.714844 12.074219 C 25.734375 12.042969 25.753906 12.003906 25.777344 11.972656 C 25.8125 11.898438 25.855469 11.828125 25.898438 11.757812 C 25.980469 11.621094 26.054688 11.480469 26.132812 11.335938 C 26.160156 11.289062 26.191406 11.238281 26.21875 11.1875 C 26.277344 11.074219 26.339844 10.964844 26.402344 10.851562 C 26.421875 10.816406 26.4375 10.789062 26.453125 10.757812 C 26.488281 10.695312 26.519531 10.636719 26.550781 10.582031 C 26.707031 10.292969 26.707031 10.292969 26.785156 10.195312 Z M 26.785156 10.195312 "/>
<path style=" stroke:none;fill-rule:nonzero;fill:rgb(62.352943%,45.09804%,69.803923%);fill-opacity:1;" d="M 20.027344 18.085938 C 20.101562 18.113281 20.171875 18.152344 20.242188 18.1875 C 20.269531 18.207031 20.300781 18.222656 20.328125 18.238281 C 20.359375 18.253906 20.394531 18.277344 20.425781 18.292969 C 20.457031 18.308594 20.492188 18.332031 20.523438 18.347656 C 20.601562 18.398438 20.683594 18.441406 20.765625 18.488281 C 20.835938 18.527344 20.90625 18.570312 20.976562 18.609375 C 21.070312 18.664062 21.167969 18.726562 21.273438 18.78125 C 21.382812 18.84375 21.492188 18.90625 21.605469 18.972656 C 21.636719 18.988281 21.664062 19.003906 21.695312 19.027344 C 21.757812 19.058594 21.816406 19.089844 21.871094 19.125 C 22.003906 19.195312 22.128906 19.273438 22.253906 19.359375 C 22.199219 19.414062 22.15625 19.429688 22.085938 19.464844 C 22.0625 19.472656 22.035156 19.484375 22.015625 19.496094 C 21.976562 19.511719 21.976562 19.511719 21.933594 19.527344 C 21.898438 19.546875 21.898438 19.546875 21.851562 19.5625 C 21.765625 19.601562 21.679688 19.636719 21.59375 19.675781 C 21.472656 19.730469 21.351562 19.78125 21.234375 19.828125 C 21.207031 19.847656 21.175781 19.855469 21.140625 19.875 C 20.976562 19.945312 20.804688 20.019531 20.636719 20.097656 C 20.613281 20.101562 20.597656 20.113281 20.578125 20.121094 C 20.496094 20.15625 20.410156 20.195312 20.324219 20.234375 C 20.296875 20.25 20.269531 20.261719 20.238281 20.277344 C 20.214844 20.289062 20.1875 20.300781 20.160156 20.3125 C 20.03125 20.355469 19.925781 20.339844 19.796875 20.285156 C 19.773438 20.265625 19.746094 20.257812 19.71875 20.246094 C 19.691406 20.234375 19.664062 20.222656 19.632812 20.207031 C 19.589844 20.191406 19.589844 20.191406 19.546875 20.167969 C 19.449219 20.125 19.359375 20.085938 19.261719 20.042969 C 19.195312 20.011719 19.132812 19.984375 19.074219 19.957031 C 18.945312 19.902344 18.820312 19.839844 18.691406 19.785156 C 18.480469 19.691406 18.269531 19.601562 18.058594 19.507812 C 18.027344 19.496094 18 19.480469 17.96875 19.46875 C 17.902344 19.441406 17.839844 19.414062 17.773438 19.386719 C 17.773438 19.363281 17.773438 19.347656 17.773438 19.332031 C 17.796875 19.320312 17.8125 19.308594 17.835938 19.292969 C 18.410156 18.976562 18.980469 18.648438 19.554688 18.320312 C 19.578125 18.308594 19.605469 18.292969 19.632812 18.277344 C 19.65625 18.265625 19.675781 18.25 19.703125 18.238281 C 19.726562 18.222656 19.746094 18.210938 19.769531 18.199219 C 19.828125 18.160156 19.828125 18.160156 19.890625 18.117188 C 19.960938 18.085938 19.960938 18.085938 20.027344 18.085938 Z M 20.027344 18.085938 "/>
<path style=" stroke:none;fill-rule:nonzero;fill:rgb(62.352943%,45.09804%,69.803923%);fill-opacity:1;" d="M 20.257812 4.644531 C 20.285156 4.652344 20.3125 4.664062 20.34375 4.679688 C 20.371094 4.691406 20.398438 4.707031 20.429688 4.71875 C 20.496094 4.753906 20.558594 4.78125 20.625 4.808594 C 20.640625 4.816406 20.65625 4.824219 20.679688 4.835938 C 20.890625 4.933594 21.105469 5.027344 21.320312 5.117188 C 21.632812 5.25 21.945312 5.386719 22.253906 5.527344 C 22.183594 5.609375 22.105469 5.65625 22.015625 5.703125 C 22 5.710938 21.988281 5.71875 21.972656 5.726562 C 21.933594 5.746094 21.902344 5.765625 21.871094 5.785156 C 21.785156 5.828125 21.691406 5.878906 21.605469 5.929688 C 21.589844 5.9375 21.574219 5.949219 21.550781 5.960938 C 21.394531 6.046875 21.238281 6.136719 21.089844 6.222656 C 21.035156 6.257812 20.984375 6.285156 20.9375 6.3125 C 20.898438 6.332031 20.898438 6.332031 20.867188 6.355469 C 20.714844 6.4375 20.570312 6.523438 20.425781 6.605469 C 20.382812 6.632812 20.382812 6.632812 20.339844 6.65625 C 20.3125 6.671875 20.285156 6.6875 20.257812 6.699219 C 20.230469 6.714844 20.210938 6.726562 20.1875 6.742188 C 20.167969 6.753906 20.140625 6.765625 20.117188 6.777344 C 20.085938 6.796875 20.085938 6.796875 20.054688 6.8125 C 19.988281 6.832031 19.988281 6.832031 19.917969 6.808594 C 19.886719 6.785156 19.886719 6.785156 19.847656 6.765625 C 19.828125 6.753906 19.800781 6.738281 19.773438 6.722656 C 19.742188 6.703125 19.714844 6.6875 19.6875 6.671875 C 19.628906 6.632812 19.5625 6.601562 19.503906 6.5625 C 19.472656 6.546875 19.445312 6.523438 19.414062 6.507812 C 19.273438 6.425781 19.128906 6.34375 18.988281 6.261719 C 18.933594 6.230469 18.878906 6.203125 18.820312 6.167969 C 18.707031 6.101562 18.589844 6.039062 18.46875 5.972656 C 18.441406 5.949219 18.410156 5.933594 18.382812 5.917969 C 18.324219 5.882812 18.265625 5.851562 18.210938 5.820312 C 18.058594 5.738281 17.914062 5.648438 17.773438 5.554688 C 17.84375 5.472656 17.925781 5.441406 18.027344 5.398438 C 18.042969 5.390625 18.058594 5.382812 18.078125 5.375 C 18.136719 5.347656 18.195312 5.328125 18.253906 5.300781 C 18.335938 5.265625 18.421875 5.226562 18.507812 5.191406 C 18.527344 5.183594 18.550781 5.171875 18.570312 5.164062 C 18.75 5.085938 18.929688 5.007812 19.105469 4.925781 C 19.1875 4.890625 19.261719 4.855469 19.34375 4.816406 C 19.398438 4.796875 19.449219 4.773438 19.5 4.746094 C 19.574219 4.714844 19.644531 4.679688 19.71875 4.648438 C 19.742188 4.636719 19.761719 4.632812 19.785156 4.621094 C 19.96875 4.539062 20.082031 4.554688 20.257812 4.644531 Z M 20.257812 4.644531 "/>
<path style=" stroke:none;fill-rule:nonzero;fill:rgb(62.352943%,45.09804%,69.803923%);fill-opacity:1;" d="M 13.191406 10.195312 C 13.285156 10.226562 13.292969 10.242188 13.335938 10.332031 C 13.351562 10.359375 13.363281 10.378906 13.371094 10.402344 C 13.390625 10.429688 13.398438 10.457031 13.414062 10.484375 C 13.441406 10.539062 13.46875 10.59375 13.503906 10.648438 C 13.519531 10.675781 13.527344 10.703125 13.546875 10.734375 C 13.617188 10.867188 13.691406 10.992188 13.761719 11.125 C 13.902344 11.375 14.039062 11.632812 14.179688 11.882812 C 14.195312 11.910156 14.207031 11.9375 14.222656 11.964844 C 14.246094 12.003906 14.246094 12.003906 14.265625 12.042969 C 14.292969 12.089844 14.328125 12.144531 14.359375 12.195312 C 14.464844 12.363281 14.464844 12.363281 14.476562 12.46875 C 14.421875 12.601562 14.359375 12.714844 14.292969 12.828125 C 14.261719 12.890625 14.230469 12.945312 14.195312 13 C 14.179688 13.03125 14.164062 13.058594 14.148438 13.085938 C 14.066406 13.230469 13.992188 13.371094 13.910156 13.511719 C 13.878906 13.566406 13.851562 13.621094 13.820312 13.683594 C 13.804688 13.710938 13.789062 13.738281 13.773438 13.765625 C 13.691406 13.917969 13.605469 14.070312 13.519531 14.222656 C 13.507812 14.25 13.492188 14.277344 13.476562 14.304688 C 13.398438 14.449219 13.324219 14.585938 13.242188 14.722656 C 13.226562 14.722656 13.210938 14.722656 13.191406 14.722656 C 13.152344 14.625 13.109375 14.53125 13.066406 14.433594 C 13.054688 14.40625 13.042969 14.371094 13.027344 14.34375 C 12.957031 14.179688 12.886719 14.015625 12.816406 13.851562 C 12.644531 13.4375 12.644531 13.4375 12.46875 13.027344 C 12.453125 12.992188 12.433594 12.957031 12.417969 12.921875 C 12.390625 12.863281 12.367188 12.800781 12.339844 12.742188 C 12.328125 12.714844 12.316406 12.6875 12.304688 12.660156 C 12.296875 12.636719 12.285156 12.617188 12.273438 12.59375 C 12.234375 12.425781 12.289062 12.273438 12.359375 12.117188 C 12.371094 12.101562 12.375 12.085938 12.386719 12.0625 C 12.402344 12.027344 12.417969 11.988281 12.433594 11.953125 C 12.476562 11.851562 12.527344 11.746094 12.570312 11.648438 C 12.582031 11.625 12.589844 11.605469 12.597656 11.582031 C 12.703125 11.347656 12.800781 11.105469 12.902344 10.871094 C 12.9375 10.789062 12.96875 10.714844 13 10.636719 C 13.007812 10.621094 13.015625 10.605469 13.023438 10.582031 C 13.078125 10.449219 13.136719 10.324219 13.191406 10.195312 Z M 13.191406 10.195312 "/>
<path style=" stroke:none;fill-rule:nonzero;fill:rgb(62.352943%,45.09804%,69.803923%);fill-opacity:1;" d="M 26.382812 15.722656 C 26.363281 15.859375 26.324219 15.972656 26.277344 16.101562 C 26.273438 16.117188 26.261719 16.136719 26.253906 16.160156 C 26.226562 16.226562 26.203125 16.296875 26.175781 16.363281 C 26.160156 16.410156 26.140625 16.457031 26.121094 16.503906 C 26.082031 16.601562 26.046875 16.703125 26.007812 16.800781 C 25.960938 16.925781 25.910156 17.050781 25.863281 17.175781 C 25.824219 17.277344 25.785156 17.367188 25.75 17.46875 C 25.726562 17.511719 25.710938 17.558594 25.695312 17.605469 C 25.667969 17.667969 25.640625 17.734375 25.621094 17.800781 C 25.609375 17.824219 25.601562 17.839844 25.59375 17.859375 C 25.539062 18.003906 25.484375 18.058594 25.34375 18.117188 C 25.3125 18.132812 25.28125 18.144531 25.246094 18.15625 C 25.230469 18.160156 25.214844 18.171875 25.199219 18.179688 C 25.140625 18.199219 25.085938 18.222656 25.027344 18.242188 C 24.988281 18.261719 24.953125 18.277344 24.910156 18.292969 C 24.828125 18.324219 24.746094 18.359375 24.660156 18.398438 C 24.558594 18.433594 24.449219 18.480469 24.34375 18.523438 C 24.261719 18.554688 24.179688 18.589844 24.101562 18.621094 C 24.0625 18.636719 24.019531 18.652344 23.980469 18.664062 C 23.734375 18.769531 23.484375 18.863281 23.238281 18.949219 C 23.253906 18.796875 23.28125 18.648438 23.3125 18.5 C 23.320312 18.480469 23.324219 18.457031 23.328125 18.433594 C 23.378906 18.226562 23.433594 18.023438 23.484375 17.824219 C 23.519531 17.6875 23.550781 17.554688 23.582031 17.417969 C 23.78125 16.546875 23.78125 16.546875 23.964844 16.367188 C 24.117188 16.273438 24.277344 16.265625 24.445312 16.253906 C 24.617188 16.230469 24.773438 16.175781 24.933594 16.128906 C 25.03125 16.09375 25.132812 16.066406 25.230469 16.039062 C 25.269531 16.027344 25.3125 16.019531 25.351562 16.007812 C 25.371094 16 25.394531 15.996094 25.410156 15.984375 C 25.496094 15.964844 25.578125 15.941406 25.65625 15.914062 C 25.738281 15.890625 25.820312 15.871094 25.898438 15.847656 C 25.9375 15.835938 25.976562 15.828125 26.011719 15.816406 C 26.066406 15.800781 26.117188 15.78125 26.167969 15.765625 C 26.203125 15.761719 26.226562 15.75 26.261719 15.746094 C 26.332031 15.722656 26.332031 15.722656 26.382812 15.722656 Z M 26.382812 15.722656 "/>
<path style=" stroke:none;fill-rule:nonzero;fill:rgb(62.352943%,45.09804%,69.803923%);fill-opacity:1;" d="M 13.617188 15.722656 C 13.851562 15.765625 14.085938 15.832031 14.316406 15.898438 C 14.351562 15.914062 14.398438 15.925781 14.441406 15.9375 C 14.546875 15.96875 14.65625 15.996094 14.761719 16.027344 C 14.890625 16.066406 15.027344 16.105469 15.15625 16.144531 C 15.257812 16.171875 15.359375 16.199219 15.464844 16.230469 C 15.480469 16.238281 15.5 16.242188 15.515625 16.246094 C 15.554688 16.257812 15.59375 16.269531 15.625 16.28125 C 15.707031 16.300781 15.785156 16.324219 15.867188 16.339844 C 15.890625 16.347656 15.914062 16.351562 15.941406 16.355469 C 15.96875 16.363281 15.992188 16.367188 16.011719 16.375 C 16.097656 16.417969 16.117188 16.472656 16.148438 16.566406 C 16.175781 16.636719 16.195312 16.710938 16.210938 16.785156 C 16.21875 16.804688 16.226562 16.828125 16.234375 16.847656 C 16.25 16.921875 16.273438 16.992188 16.289062 17.0625 C 16.304688 17.113281 16.316406 17.160156 16.332031 17.210938 C 16.359375 17.3125 16.390625 17.414062 16.417969 17.515625 C 16.449219 17.648438 16.488281 17.777344 16.523438 17.914062 C 16.550781 18.015625 16.578125 18.117188 16.605469 18.214844 C 16.621094 18.265625 16.632812 18.316406 16.648438 18.363281 C 16.664062 18.429688 16.6875 18.5 16.703125 18.566406 C 16.707031 18.589844 16.714844 18.609375 16.71875 18.625 C 16.75 18.734375 16.773438 18.839844 16.789062 18.949219 C 16.429688 18.851562 16.078125 18.699219 15.726562 18.5625 C 15.609375 18.511719 15.492188 18.46875 15.371094 18.417969 C 15.257812 18.375 15.144531 18.332031 15.03125 18.289062 C 14.988281 18.269531 14.941406 18.25 14.898438 18.234375 C 14.519531 18.089844 14.519531 18.089844 14.433594 17.910156 C 14.417969 17.859375 14.402344 17.8125 14.390625 17.757812 C 14.375 17.714844 14.351562 17.664062 14.335938 17.621094 C 14.316406 17.578125 14.300781 17.527344 14.285156 17.484375 C 14.273438 17.457031 14.261719 17.429688 14.25 17.40625 C 14.234375 17.351562 14.214844 17.296875 14.191406 17.242188 C 14.136719 17.105469 14.085938 16.964844 14.03125 16.828125 C 14.019531 16.800781 14.015625 16.773438 14.003906 16.746094 C 13.902344 16.488281 13.796875 16.230469 13.695312 15.980469 C 13.683594 15.953125 13.675781 15.925781 13.664062 15.898438 C 13.652344 15.863281 13.652344 15.863281 13.636719 15.832031 C 13.617188 15.777344 13.617188 15.777344 13.617188 15.722656 Z M 13.617188 15.722656 "/>
<path style=" stroke:none;fill-rule:nonzero;fill:rgb(62.352943%,45.09804%,69.803923%);fill-opacity:1;" d="M 16.789062 5.964844 C 16.746094 6.222656 16.675781 6.46875 16.605469 6.722656 C 16.589844 6.765625 16.578125 6.8125 16.5625 6.859375 C 16.535156 6.957031 16.507812 7.054688 16.480469 7.152344 C 16.449219 7.277344 16.417969 7.398438 16.378906 7.523438 C 16.351562 7.625 16.324219 7.714844 16.296875 7.816406 C 16.289062 7.859375 16.277344 7.90625 16.261719 7.953125 C 16.246094 8.015625 16.226562 8.082031 16.207031 8.144531 C 16.203125 8.175781 16.203125 8.175781 16.191406 8.203125 C 16.179688 8.253906 16.164062 8.300781 16.148438 8.351562 C 16.140625 8.390625 16.140625 8.390625 16.132812 8.425781 C 16.078125 8.515625 15.996094 8.53125 15.90625 8.554688 C 15.882812 8.558594 15.863281 8.5625 15.847656 8.570312 C 15.777344 8.589844 15.710938 8.609375 15.648438 8.625 C 15.597656 8.640625 15.554688 8.652344 15.507812 8.667969 C 15.386719 8.699219 15.269531 8.734375 15.144531 8.765625 C 15.023438 8.800781 14.902344 8.835938 14.777344 8.871094 C 14.578125 8.925781 14.378906 8.980469 14.179688 9.035156 C 14.09375 9.0625 14.007812 9.082031 13.929688 9.109375 C 13.902344 9.117188 13.875 9.128906 13.847656 9.132812 C 13.824219 9.136719 13.804688 9.144531 13.78125 9.15625 C 13.71875 9.164062 13.679688 9.15625 13.617188 9.136719 C 13.640625 9.078125 13.664062 9.019531 13.683594 8.964844 C 13.707031 8.910156 13.726562 8.859375 13.746094 8.804688 C 13.804688 8.65625 13.859375 8.515625 13.917969 8.367188 C 14.0625 7.988281 14.0625 7.988281 14.207031 7.613281 C 14.242188 7.523438 14.273438 7.4375 14.304688 7.351562 C 14.316406 7.304688 14.332031 7.269531 14.347656 7.230469 C 14.363281 7.167969 14.386719 7.113281 14.40625 7.058594 C 14.421875 7.015625 14.421875 7.015625 14.441406 6.96875 C 14.527344 6.847656 14.632812 6.808594 14.761719 6.75 C 14.789062 6.738281 14.8125 6.730469 14.839844 6.722656 C 14.917969 6.683594 15 6.648438 15.082031 6.621094 C 15.109375 6.605469 15.140625 6.59375 15.171875 6.585938 C 15.265625 6.546875 15.359375 6.507812 15.453125 6.46875 C 15.542969 6.429688 15.640625 6.398438 15.734375 6.359375 C 15.792969 6.332031 15.855469 6.3125 15.914062 6.285156 C 16.054688 6.230469 16.195312 6.175781 16.335938 6.113281 C 16.375 6.097656 16.375 6.097656 16.410156 6.082031 C 16.460938 6.066406 16.503906 6.046875 16.550781 6.027344 C 16.703125 5.964844 16.703125 5.964844 16.789062 5.964844 Z M 16.789062 5.964844 "/>
<path style=" stroke:none;fill-rule:nonzero;fill:rgb(62.352943%,45.09804%,69.803923%);fill-opacity:1;" d="M 23.238281 5.964844 C 23.355469 5.984375 23.464844 6.019531 23.578125 6.066406 C 23.597656 6.070312 23.617188 6.074219 23.636719 6.085938 C 23.824219 6.152344 24.015625 6.222656 24.203125 6.292969 C 24.328125 6.34375 24.449219 6.386719 24.578125 6.4375 C 25.457031 6.75 25.457031 6.75 25.625 7.023438 C 25.695312 7.175781 25.734375 7.332031 25.769531 7.492188 C 25.8125 7.660156 25.882812 7.824219 25.953125 7.984375 C 25.980469 8.050781 26.003906 8.117188 26.027344 8.179688 C 26.066406 8.28125 26.109375 8.378906 26.148438 8.476562 C 26.183594 8.574219 26.222656 8.671875 26.265625 8.773438 C 26.277344 8.804688 26.289062 8.832031 26.296875 8.863281 C 26.308594 8.890625 26.320312 8.917969 26.332031 8.945312 C 26.339844 8.972656 26.351562 8.996094 26.363281 9.019531 C 26.382812 9.082031 26.382812 9.082031 26.382812 9.164062 C 26.234375 9.148438 26.097656 9.121094 25.960938 9.078125 C 25.9375 9.074219 25.914062 9.066406 25.894531 9.0625 C 25.828125 9.046875 25.765625 9.023438 25.699219 9.007812 C 25.652344 8.992188 25.609375 8.980469 25.558594 8.96875 C 25.46875 8.941406 25.371094 8.914062 25.273438 8.882812 C 25.152344 8.847656 25.03125 8.816406 24.910156 8.777344 C 24.8125 8.75 24.71875 8.722656 24.621094 8.695312 C 24.578125 8.683594 24.53125 8.671875 24.488281 8.65625 C 24.421875 8.640625 24.363281 8.625 24.300781 8.601562 C 24.285156 8.597656 24.261719 8.589844 24.246094 8.585938 C 24.191406 8.574219 24.144531 8.558594 24.089844 8.542969 C 24.058594 8.53125 24.023438 8.519531 23.988281 8.507812 C 23.894531 8.453125 23.875 8.417969 23.839844 8.3125 C 23.835938 8.289062 23.832031 8.273438 23.824219 8.253906 C 23.820312 8.230469 23.816406 8.207031 23.808594 8.1875 C 23.789062 8.121094 23.773438 8.050781 23.753906 7.980469 C 23.738281 7.929688 23.726562 7.886719 23.710938 7.835938 C 23.679688 7.707031 23.640625 7.578125 23.609375 7.453125 C 23.582031 7.351562 23.554688 7.246094 23.523438 7.140625 C 23.492188 7.015625 23.460938 6.894531 23.421875 6.769531 C 23.414062 6.75 23.410156 6.722656 23.40625 6.699219 C 23.339844 6.453125 23.277344 6.210938 23.238281 5.964844 Z M 23.238281 5.964844 "/>
<path style=" stroke:none;fill-rule:nonzero;fill:rgb(62.352943%,45.09804%,69.803923%);fill-opacity:1;" d="M 23.078125 6.097656 C 23.097656 6.097656 23.113281 6.097656 23.128906 6.097656 C 23.210938 6.386719 23.292969 6.671875 23.367188 6.957031 C 23.40625 7.085938 23.441406 7.222656 23.480469 7.355469 C 23.519531 7.480469 23.550781 7.613281 23.589844 7.738281 C 23.597656 7.789062 23.617188 7.835938 23.625 7.886719 C 23.648438 7.953125 23.664062 8.023438 23.683594 8.09375 C 23.691406 8.121094 23.691406 8.121094 23.703125 8.152344 C 23.71875 8.207031 23.726562 8.261719 23.746094 8.324219 C 23.75 8.339844 23.753906 8.363281 23.761719 8.382812 C 23.777344 8.449219 23.78125 8.5 23.773438 8.570312 C 23.703125 8.679688 23.609375 8.761719 23.519531 8.855469 C 23.492188 8.882812 23.464844 8.910156 23.4375 8.9375 C 23.367188 9.011719 23.292969 9.089844 23.214844 9.160156 C 23.136719 9.238281 23.058594 9.320312 22.984375 9.394531 C 22.855469 9.527344 22.722656 9.65625 22.589844 9.789062 C 22.410156 9.976562 22.226562 10.160156 22.042969 10.347656 C 21.914062 10.472656 21.785156 10.605469 21.660156 10.730469 C 21.628906 10.761719 21.59375 10.796875 21.566406 10.824219 C 21.476562 10.914062 21.390625 11.003906 21.296875 11.089844 C 21.273438 11.117188 21.246094 11.144531 21.222656 11.171875 C 21.183594 11.210938 21.148438 11.242188 21.109375 11.28125 C 21.089844 11.304688 21.070312 11.320312 21.050781 11.34375 C 20.996094 11.386719 20.996094 11.386719 20.949219 11.386719 C 21.003906 11.15625 21.09375 10.941406 21.183594 10.722656 C 21.234375 10.609375 21.28125 10.5 21.332031 10.386719 C 21.335938 10.359375 21.347656 10.335938 21.359375 10.308594 C 21.476562 10.03125 21.589844 9.75 21.703125 9.464844 C 21.722656 9.410156 21.746094 9.363281 21.765625 9.308594 C 21.800781 9.230469 21.832031 9.148438 21.863281 9.074219 C 21.972656 8.804688 22.085938 8.53125 22.191406 8.261719 C 22.203125 8.242188 22.210938 8.21875 22.21875 8.199219 C 22.402344 7.75 22.585938 7.304688 22.769531 6.859375 C 22.835938 6.695312 22.902344 6.53125 22.96875 6.367188 C 22.992188 6.3125 23.011719 6.261719 23.035156 6.207031 C 23.042969 6.175781 23.042969 6.175781 23.058594 6.148438 C 23.066406 6.128906 23.070312 6.113281 23.078125 6.097656 Z M 23.078125 6.097656 "/>
<path style=" stroke:none;fill-rule:nonzero;fill:rgb(62.352943%,45.09804%,69.803923%);fill-opacity:1;" d="M 20.949219 13.53125 C 21.039062 13.566406 21.097656 13.621094 21.167969 13.695312 C 21.191406 13.714844 21.210938 13.738281 21.238281 13.757812 C 21.265625 13.785156 21.289062 13.8125 21.316406 13.835938 C 21.339844 13.863281 21.367188 13.890625 21.394531 13.917969 C 21.480469 14.003906 21.574219 14.09375 21.660156 14.1875 C 21.6875 14.214844 21.71875 14.246094 21.75 14.273438 C 21.875 14.40625 22 14.53125 22.128906 14.65625 C 22.304688 14.835938 22.484375 15.015625 22.667969 15.199219 C 22.789062 15.328125 22.921875 15.453125 23.042969 15.582031 C 23.121094 15.65625 23.195312 15.734375 23.277344 15.808594 C 23.347656 15.882812 23.414062 15.953125 23.484375 16.027344 C 23.511719 16.050781 23.539062 16.078125 23.566406 16.105469 C 23.761719 16.296875 23.761719 16.296875 23.78125 16.410156 C 23.777344 16.476562 23.761719 16.53125 23.746094 16.59375 C 23.738281 16.609375 23.734375 16.628906 23.726562 16.648438 C 23.71875 16.707031 23.703125 16.761719 23.683594 16.820312 C 23.679688 16.84375 23.675781 16.867188 23.667969 16.886719 C 23.648438 16.957031 23.625 17.023438 23.609375 17.09375 C 23.59375 17.144531 23.578125 17.195312 23.566406 17.242188 C 23.527344 17.367188 23.496094 17.5 23.460938 17.625 C 23.421875 17.757812 23.382812 17.886719 23.347656 18.019531 C 23.277344 18.277344 23.207031 18.535156 23.128906 18.785156 C 23.050781 18.761719 23.050781 18.761719 23.011719 18.675781 C 22.996094 18.636719 22.980469 18.597656 22.964844 18.5625 C 22.957031 18.539062 22.945312 18.515625 22.941406 18.5 C 22.910156 18.429688 22.882812 18.359375 22.855469 18.292969 C 22.839844 18.242188 22.816406 18.195312 22.800781 18.144531 C 22.769531 18.074219 22.742188 17.996094 22.710938 17.921875 C 22.628906 17.707031 22.542969 17.496094 22.453125 17.285156 C 22.414062 17.1875 22.371094 17.085938 22.332031 16.984375 C 22.320312 16.964844 22.316406 16.941406 22.304688 16.925781 C 22.191406 16.652344 22.085938 16.382812 21.976562 16.109375 C 21.820312 15.726562 21.664062 15.34375 21.507812 14.96875 C 21.480469 14.898438 21.453125 14.824219 21.421875 14.761719 C 21.347656 14.570312 21.273438 14.378906 21.191406 14.1875 C 21.160156 14.109375 21.132812 14.039062 21.097656 13.960938 C 21.078125 13.914062 21.054688 13.863281 21.035156 13.808594 C 21.019531 13.765625 21.019531 13.765625 21.003906 13.722656 C 20.992188 13.695312 20.980469 13.671875 20.96875 13.644531 C 20.949219 13.585938 20.949219 13.585938 20.949219 13.53125 Z M 20.949219 13.53125 "/>
<path style=" stroke:none;fill-rule:nonzero;fill:rgb(62.352943%,45.09804%,69.803923%);fill-opacity:1;" d="M 16.898438 6.097656 C 16.960938 6.15625 16.992188 6.210938 17.027344 6.292969 C 17.035156 6.316406 17.042969 6.339844 17.054688 6.359375 C 17.0625 6.386719 17.074219 6.410156 17.085938 6.4375 C 17.101562 6.476562 17.101562 6.476562 17.117188 6.511719 C 17.148438 6.59375 17.183594 6.683594 17.21875 6.765625 C 17.242188 6.824219 17.269531 6.886719 17.289062 6.945312 C 17.339844 7.066406 17.386719 7.1875 17.441406 7.3125 C 17.5 7.464844 17.566406 7.617188 17.625 7.769531 C 17.632812 7.792969 17.644531 7.816406 17.65625 7.84375 C 17.671875 7.886719 17.6875 7.929688 17.710938 7.972656 C 17.898438 8.445312 18.085938 8.910156 18.277344 9.375 C 18.382812 9.636719 18.492188 9.894531 18.59375 10.148438 C 18.617188 10.203125 18.636719 10.253906 18.660156 10.304688 C 18.695312 10.394531 18.734375 10.488281 18.773438 10.582031 C 18.878906 10.851562 18.980469 11.117188 19.078125 11.386719 C 18.988281 11.347656 18.929688 11.292969 18.859375 11.222656 C 18.832031 11.199219 18.808594 11.179688 18.789062 11.152344 C 18.761719 11.128906 18.734375 11.101562 18.707031 11.074219 C 18.679688 11.050781 18.652344 11.023438 18.625 10.996094 C 18.378906 10.75 18.128906 10.503906 17.886719 10.257812 C 17.703125 10.074219 17.523438 9.894531 17.339844 9.710938 C 17.210938 9.585938 17.078125 9.460938 16.957031 9.328125 C 16.875 9.253906 16.800781 9.175781 16.722656 9.101562 C 16.253906 8.644531 16.253906 8.644531 16.210938 8.476562 C 16.210938 8.355469 16.253906 8.261719 16.308594 8.160156 C 16.351562 8.070312 16.375 7.980469 16.394531 7.878906 C 16.40625 7.84375 16.417969 7.804688 16.429688 7.765625 C 16.4375 7.738281 16.4375 7.738281 16.445312 7.707031 C 16.449219 7.683594 16.453125 7.667969 16.460938 7.644531 C 16.472656 7.601562 16.488281 7.5625 16.496094 7.519531 C 16.519531 7.433594 16.546875 7.34375 16.566406 7.257812 C 16.601562 7.140625 16.632812 7.03125 16.664062 6.917969 C 16.691406 6.808594 16.722656 6.703125 16.75 6.59375 C 16.761719 6.5625 16.761719 6.5625 16.773438 6.535156 C 16.789062 6.476562 16.804688 6.421875 16.820312 6.359375 C 16.828125 6.328125 16.835938 6.292969 16.847656 6.261719 C 16.859375 6.207031 16.878906 6.152344 16.898438 6.097656 Z M 16.898438 6.097656 "/>
<path style=" stroke:none;fill-rule:nonzero;fill:rgb(62.352943%,45.09804%,69.803923%);fill-opacity:1;" d="M 21.050781 13.394531 C 21.347656 13.503906 21.636719 13.621094 21.929688 13.75 C 22.058594 13.804688 22.183594 13.851562 22.304688 13.90625 C 22.332031 13.917969 22.359375 13.929688 22.386719 13.941406 C 22.671875 14.066406 22.957031 14.179688 23.242188 14.300781 C 23.292969 14.324219 23.347656 14.34375 23.394531 14.367188 C 23.46875 14.398438 23.550781 14.433594 23.625 14.464844 C 23.890625 14.574219 24.148438 14.683594 24.414062 14.792969 C 24.445312 14.808594 24.445312 14.808594 24.484375 14.824219 C 24.847656 14.980469 25.222656 15.136719 25.585938 15.289062 C 25.609375 15.300781 25.625 15.308594 25.648438 15.316406 C 25.679688 15.335938 25.714844 15.34375 25.753906 15.363281 C 25.835938 15.398438 25.914062 15.433594 26.003906 15.464844 C 26.027344 15.476562 26.054688 15.488281 26.089844 15.503906 C 26.117188 15.515625 26.136719 15.519531 26.164062 15.53125 C 26.222656 15.5625 26.222656 15.5625 26.25 15.613281 C 25.792969 15.761719 25.328125 15.898438 24.867188 16.027344 C 24.789062 16.050781 24.710938 16.074219 24.632812 16.101562 C 24.535156 16.128906 24.445312 16.15625 24.347656 16.183594 C 24.308594 16.191406 24.273438 16.203125 24.242188 16.210938 C 24.191406 16.226562 24.136719 16.242188 24.089844 16.253906 C 24.0625 16.265625 24.035156 16.269531 24.003906 16.28125 C 23.929688 16.296875 23.894531 16.292969 23.824219 16.265625 C 23.765625 16.21875 23.765625 16.21875 23.707031 16.15625 C 23.679688 16.132812 23.660156 16.109375 23.636719 16.082031 C 23.609375 16.054688 23.582031 16.035156 23.554688 16.007812 C 23.527344 15.980469 23.503906 15.953125 23.476562 15.925781 C 23.398438 15.847656 23.328125 15.773438 23.253906 15.695312 C 23.179688 15.617188 23.097656 15.535156 23.023438 15.460938 C 22.894531 15.328125 22.765625 15.199219 22.628906 15.0625 C 22.484375 14.90625 22.332031 14.753906 22.183594 14.601562 C 22.035156 14.453125 21.890625 14.3125 21.746094 14.164062 C 21.6875 14.097656 21.621094 14.039062 21.5625 13.972656 C 21.492188 13.902344 21.417969 13.824219 21.347656 13.753906 C 21.320312 13.726562 21.292969 13.699219 21.265625 13.671875 C 21.226562 13.632812 21.191406 13.59375 21.160156 13.5625 C 21.136719 13.539062 21.117188 13.519531 21.09375 13.496094 C 21.050781 13.449219 21.050781 13.449219 21.050781 13.394531 Z M 21.050781 13.394531 "/>
<path style=" stroke:none;fill-rule:nonzero;fill:rgb(62.352943%,45.09804%,69.803923%);fill-opacity:1;" d="M 22.253906 5.773438 C 22.242188 5.800781 22.230469 5.824219 22.21875 5.851562 C 22.015625 6.339844 21.816406 6.820312 21.628906 7.304688 C 21.492188 7.640625 21.359375 7.972656 21.21875 8.308594 C 21.054688 8.695312 20.898438 9.078125 20.742188 9.464844 C 20.734375 9.492188 20.722656 9.519531 20.710938 9.546875 C 20.648438 9.703125 20.585938 9.855469 20.523438 10.011719 C 20.496094 10.085938 20.464844 10.15625 20.4375 10.230469 C 20.328125 10.488281 20.226562 10.746094 20.117188 11.007812 C 20.101562 11.007812 20.085938 11.007812 20.066406 11.007812 C 20.066406 9.664062 20.066406 8.324219 20.066406 6.941406 C 20.445312 6.726562 20.445312 6.726562 20.839844 6.507812 C 21.195312 6.304688 21.195312 6.304688 21.546875 6.097656 C 21.632812 6.046875 21.714844 6.003906 21.792969 5.957031 C 21.828125 5.9375 21.859375 5.917969 21.890625 5.902344 C 21.941406 5.875 21.984375 5.847656 22.027344 5.820312 C 22.054688 5.808594 22.078125 5.792969 22.105469 5.773438 C 22.171875 5.746094 22.171875 5.746094 22.253906 5.773438 Z M 22.253906 5.773438 "/>
<path style=" stroke:none;fill-rule:nonzero;fill:rgb(62.352943%,45.09804%,69.803923%);fill-opacity:1;" d="M 16.175781 8.617188 C 16.234375 8.667969 16.234375 8.667969 16.296875 8.726562 C 16.320312 8.753906 16.347656 8.777344 16.367188 8.800781 C 16.394531 8.828125 16.421875 8.855469 16.449219 8.882812 C 16.476562 8.910156 16.503906 8.9375 16.53125 8.96875 C 16.605469 9.046875 16.679688 9.121094 16.757812 9.199219 C 16.832031 9.273438 16.914062 9.355469 16.988281 9.433594 C 17.140625 9.585938 17.285156 9.738281 17.429688 9.886719 C 17.597656 10.0625 17.769531 10.230469 17.9375 10.40625 C 18.28125 10.757812 18.625 11.113281 18.976562 11.46875 C 18.863281 11.507812 18.789062 11.457031 18.683594 11.414062 C 18.664062 11.402344 18.640625 11.398438 18.621094 11.386719 C 18.550781 11.351562 18.480469 11.324219 18.410156 11.292969 C 18.363281 11.277344 18.3125 11.253906 18.265625 11.234375 C 18.15625 11.1875 18.054688 11.144531 17.953125 11.101562 C 17.742188 11.007812 17.53125 10.921875 17.320312 10.832031 C 17.210938 10.785156 17.097656 10.734375 16.984375 10.6875 C 16.933594 10.667969 16.890625 10.648438 16.847656 10.632812 C 16.757812 10.59375 16.664062 10.554688 16.574219 10.515625 C 16.539062 10.5 16.539062 10.5 16.503906 10.488281 C 16.460938 10.46875 16.410156 10.449219 16.367188 10.429688 C 16.253906 10.378906 16.140625 10.335938 16.027344 10.285156 C 15.820312 10.199219 15.609375 10.113281 15.402344 10.023438 C 15.328125 9.992188 15.257812 9.957031 15.1875 9.929688 C 15.097656 9.894531 15 9.855469 14.910156 9.8125 C 14.703125 9.730469 14.5 9.640625 14.292969 9.558594 C 14.261719 9.542969 14.230469 9.53125 14.191406 9.515625 C 14.132812 9.492188 14.066406 9.464844 14.007812 9.445312 C 13.980469 9.433594 13.953125 9.421875 13.929688 9.410156 C 13.902344 9.402344 13.878906 9.390625 13.859375 9.382812 C 13.804688 9.351562 13.804688 9.351562 13.777344 9.269531 C 14.066406 9.1875 14.363281 9.101562 14.65625 9.019531 C 14.796875 8.980469 14.929688 8.941406 15.066406 8.898438 C 15.195312 8.859375 15.328125 8.820312 15.457031 8.78125 C 15.507812 8.773438 15.558594 8.753906 15.609375 8.738281 C 15.679688 8.722656 15.75 8.699219 15.820312 8.679688 C 15.839844 8.671875 15.863281 8.667969 15.882812 8.664062 C 16.070312 8.609375 16.070312 8.609375 16.175781 8.617188 Z M 16.175781 8.617188 "/>
<path style=" stroke:none;fill-rule:nonzero;fill:rgb(62.352943%,45.09804%,69.803923%);fill-opacity:1;" d="M 20.066406 13.878906 C 20.128906 13.941406 20.160156 13.988281 20.195312 14.066406 C 20.203125 14.085938 20.210938 14.109375 20.222656 14.132812 C 20.230469 14.160156 20.238281 14.179688 20.246094 14.203125 C 20.257812 14.230469 20.269531 14.25 20.28125 14.277344 C 20.3125 14.359375 20.34375 14.4375 20.378906 14.519531 C 20.398438 14.578125 20.421875 14.632812 20.445312 14.6875 C 20.492188 14.808594 20.539062 14.925781 20.585938 15.039062 C 20.671875 15.257812 20.765625 15.476562 20.851562 15.695312 C 20.898438 15.808594 20.941406 15.925781 20.992188 16.039062 C 21.003906 16.0625 21.007812 16.082031 21.019531 16.109375 C 21.152344 16.433594 21.289062 16.761719 21.417969 17.089844 C 21.4375 17.144531 21.460938 17.195312 21.480469 17.25 C 21.492188 17.277344 21.503906 17.296875 21.515625 17.324219 C 21.585938 17.496094 21.648438 17.660156 21.71875 17.824219 C 21.761719 17.9375 21.808594 18.050781 21.851562 18.167969 C 21.875 18.222656 21.898438 18.269531 21.921875 18.324219 C 22.035156 18.605469 22.148438 18.882812 22.253906 19.167969 C 22.164062 19.152344 22.097656 19.117188 22.015625 19.074219 C 21.992188 19.058594 21.964844 19.042969 21.941406 19.03125 C 21.914062 19.015625 21.886719 19 21.859375 18.980469 C 21.828125 18.972656 21.800781 18.953125 21.773438 18.9375 C 21.558594 18.816406 21.339844 18.699219 21.132812 18.570312 C 20.984375 18.488281 20.839844 18.40625 20.699219 18.324219 C 20.683594 18.316406 20.664062 18.308594 20.648438 18.296875 C 20.566406 18.253906 20.492188 18.207031 20.410156 18.160156 C 20.378906 18.144531 20.351562 18.128906 20.316406 18.113281 C 20.296875 18.097656 20.269531 18.085938 20.242188 18.070312 C 20.222656 18.058594 20.195312 18.042969 20.171875 18.03125 C 20.15625 18.019531 20.132812 18.007812 20.117188 17.996094 C 20.066406 17.949219 20.066406 17.949219 20.054688 17.871094 C 20.054688 17.84375 20.054688 17.8125 20.054688 17.785156 C 20.054688 17.75 20.054688 17.714844 20.054688 17.679688 C 20.054688 17.640625 20.054688 17.605469 20.054688 17.566406 C 20.054688 17.527344 20.054688 17.484375 20.054688 17.445312 C 20.054688 17.335938 20.054688 17.226562 20.054688 17.117188 C 20.054688 17.003906 20.054688 16.894531 20.058594 16.777344 C 20.058594 16.558594 20.058594 16.347656 20.058594 16.132812 C 20.058594 15.886719 20.058594 15.640625 20.058594 15.394531 C 20.066406 14.890625 20.066406 14.382812 20.066406 13.878906 Z M 20.066406 13.878906 "/>
<path style=" stroke:none;fill-rule:nonzero;fill:rgb(62.352943%,45.09804%,69.803923%);fill-opacity:1;" d="M 13.40625 10.195312 C 13.527344 10.210938 13.632812 10.242188 13.746094 10.292969 C 13.765625 10.304688 13.78125 10.308594 13.796875 10.320312 C 13.839844 10.335938 13.878906 10.351562 13.917969 10.367188 C 14.003906 10.402344 14.085938 10.441406 14.171875 10.476562 C 14.21875 10.496094 14.261719 10.515625 14.308594 10.53125 C 14.554688 10.640625 14.800781 10.746094 15.046875 10.851562 C 15.183594 10.90625 15.3125 10.960938 15.441406 11.015625 C 15.46875 11.023438 15.496094 11.035156 15.523438 11.046875 C 15.894531 11.207031 16.265625 11.359375 16.636719 11.515625 C 16.828125 11.597656 17.015625 11.675781 17.203125 11.757812 C 17.320312 11.808594 17.433594 11.855469 17.554688 11.90625 C 17.824219 12.019531 17.824219 12.019531 18.09375 12.128906 C 18.140625 12.152344 18.191406 12.167969 18.238281 12.191406 C 18.292969 12.210938 18.347656 12.234375 18.398438 12.253906 C 18.4375 12.273438 18.4375 12.273438 18.46875 12.289062 C 18.492188 12.292969 18.507812 12.304688 18.527344 12.308594 C 18.570312 12.335938 18.570312 12.335938 18.597656 12.390625 C 18.082031 12.398438 17.566406 12.402344 17.046875 12.402344 C 16.804688 12.402344 16.5625 12.410156 16.324219 12.410156 C 16.117188 12.414062 15.90625 12.414062 15.695312 12.414062 C 15.582031 12.414062 15.472656 12.414062 15.359375 12.417969 C 15.257812 12.417969 15.152344 12.417969 15.046875 12.417969 C 15.011719 12.417969 14.96875 12.417969 14.929688 12.417969 C 14.816406 12.425781 14.714844 12.425781 14.601562 12.390625 C 14.527344 12.308594 14.484375 12.222656 14.445312 12.117188 C 14.429688 12.089844 14.414062 12.058594 14.398438 12.03125 C 14.378906 12.003906 14.371094 11.980469 14.351562 11.953125 C 14.332031 11.910156 14.332031 11.910156 14.304688 11.867188 C 14.289062 11.835938 14.273438 11.808594 14.257812 11.773438 C 14.21875 11.707031 14.1875 11.644531 14.148438 11.578125 C 14.136719 11.5625 14.132812 11.542969 14.121094 11.527344 C 14.035156 11.375 13.949219 11.214844 13.863281 11.0625 C 13.75 10.859375 13.640625 10.660156 13.527344 10.457031 C 13.511719 10.417969 13.511719 10.417969 13.492188 10.386719 C 13.480469 10.363281 13.46875 10.339844 13.453125 10.320312 C 13.449219 10.304688 13.4375 10.28125 13.425781 10.265625 C 13.40625 10.222656 13.40625 10.222656 13.40625 10.195312 Z M 13.40625 10.195312 "/>
<path style=" stroke:none;fill-rule:nonzero;fill:rgb(62.352943%,45.09804%,69.803923%);fill-opacity:1;" d="M 26.621094 10.222656 C 26.378906 10.664062 26.140625 11.101562 25.894531 11.542969 C 25.855469 11.621094 25.8125 11.699219 25.769531 11.773438 C 25.742188 11.816406 25.722656 11.867188 25.695312 11.917969 C 25.664062 11.976562 25.625 12.035156 25.59375 12.097656 C 25.582031 12.117188 25.566406 12.144531 25.550781 12.171875 C 25.527344 12.210938 25.527344 12.210938 25.511719 12.25 C 25.484375 12.292969 25.453125 12.34375 25.425781 12.390625 C 25.355469 12.398438 25.355469 12.398438 25.265625 12.398438 C 25.214844 12.398438 25.214844 12.398438 25.160156 12.398438 C 25.125 12.398438 25.085938 12.398438 25.046875 12.398438 C 25.003906 12.398438 24.96875 12.398438 24.929688 12.398438 C 24.820312 12.398438 24.714844 12.398438 24.605469 12.398438 C 24.492188 12.398438 24.378906 12.398438 24.265625 12.398438 C 24.050781 12.398438 23.839844 12.398438 23.625 12.398438 C 23.382812 12.390625 23.140625 12.390625 22.898438 12.390625 C 22.398438 12.390625 21.898438 12.390625 21.402344 12.390625 C 21.496094 12.308594 21.601562 12.261719 21.71875 12.21875 C 21.746094 12.199219 21.746094 12.199219 21.777344 12.191406 C 21.847656 12.15625 21.917969 12.128906 21.988281 12.101562 C 22.042969 12.082031 22.089844 12.058594 22.140625 12.042969 C 22.242188 12 22.34375 11.953125 22.445312 11.910156 C 22.65625 11.824219 22.867188 11.734375 23.078125 11.644531 C 23.191406 11.597656 23.304688 11.550781 23.414062 11.5 C 23.578125 11.433594 23.734375 11.371094 23.890625 11.304688 C 24.003906 11.253906 24.117188 11.207031 24.230469 11.160156 C 24.25 11.152344 24.273438 11.140625 24.292969 11.128906 C 24.5625 11.019531 24.839844 10.90625 25.109375 10.789062 C 25.132812 10.777344 25.160156 10.769531 25.1875 10.757812 C 25.324219 10.703125 25.453125 10.640625 25.582031 10.585938 C 25.609375 10.578125 25.628906 10.570312 25.65625 10.558594 C 25.707031 10.539062 25.753906 10.515625 25.804688 10.5 C 25.921875 10.449219 26.035156 10.394531 26.152344 10.347656 C 26.191406 10.332031 26.191406 10.332031 26.222656 10.3125 C 26.265625 10.296875 26.308594 10.277344 26.359375 10.253906 C 26.375 10.25 26.394531 10.238281 26.417969 10.230469 C 26.433594 10.222656 26.449219 10.214844 26.464844 10.203125 C 26.523438 10.1875 26.5625 10.199219 26.621094 10.222656 Z M 26.621094 10.222656 "/>
<path style=" stroke:none;fill-rule:nonzero;fill:rgb(62.352943%,45.09804%,69.803923%);fill-opacity:1;" d="M 23.960938 8.613281 C 24.015625 8.628906 24.015625 8.628906 24.0625 8.644531 C 24.101562 8.65625 24.136719 8.667969 24.171875 8.671875 C 24.207031 8.683594 24.246094 8.695312 24.285156 8.707031 C 24.316406 8.71875 24.316406 8.71875 24.347656 8.726562 C 24.417969 8.746094 24.488281 8.765625 24.558594 8.78125 C 24.605469 8.800781 24.648438 8.816406 24.699219 8.828125 C 24.800781 8.855469 24.902344 8.886719 25 8.914062 C 25.128906 8.953125 25.257812 8.992188 25.386719 9.023438 C 25.484375 9.050781 25.585938 9.082031 25.683594 9.109375 C 25.734375 9.121094 25.78125 9.136719 25.824219 9.148438 C 25.894531 9.171875 25.960938 9.1875 26.023438 9.210938 C 26.046875 9.214844 26.066406 9.21875 26.082031 9.226562 C 26.132812 9.242188 26.175781 9.253906 26.222656 9.269531 C 26.234375 9.292969 26.238281 9.308594 26.25 9.324219 C 25.695312 9.574219 25.132812 9.8125 24.574219 10.046875 C 24.308594 10.15625 24.050781 10.265625 23.789062 10.375 C 23.738281 10.394531 23.683594 10.417969 23.636719 10.441406 C 23.320312 10.570312 23.007812 10.703125 22.6875 10.832031 C 22.625 10.867188 22.554688 10.894531 22.488281 10.921875 C 22.285156 11.007812 22.085938 11.089844 21.878906 11.179688 C 21.792969 11.214844 21.703125 11.253906 21.609375 11.292969 C 21.574219 11.316406 21.53125 11.332031 21.488281 11.347656 C 21.429688 11.375 21.367188 11.402344 21.308594 11.425781 C 21.292969 11.433594 21.277344 11.441406 21.261719 11.445312 C 21.140625 11.5 21.140625 11.5 21.050781 11.46875 C 21.410156 11.097656 21.773438 10.722656 22.132812 10.351562 C 22.304688 10.183594 22.472656 10.007812 22.640625 9.832031 C 22.785156 9.683594 22.929688 9.53125 23.078125 9.382812 C 23.15625 9.308594 23.234375 9.226562 23.308594 9.144531 C 23.382812 9.074219 23.453125 8.996094 23.527344 8.917969 C 23.554688 8.890625 23.582031 8.863281 23.609375 8.835938 C 23.835938 8.601562 23.835938 8.601562 23.960938 8.613281 Z M 23.960938 8.613281 "/>
<path style=" stroke:none;fill-rule:nonzero;fill:rgb(62.352943%,45.09804%,69.803923%);fill-opacity:1;" d="M 19.050781 13.503906 C 19.066406 13.53125 19.066406 13.53125 19.078125 13.558594 C 19.0625 13.617188 19.035156 13.671875 19.015625 13.730469 C 19.007812 13.75 18.996094 13.765625 18.992188 13.785156 C 18.976562 13.824219 18.960938 13.863281 18.9375 13.90625 C 18.90625 13.996094 18.867188 14.082031 18.832031 14.167969 C 18.816406 14.214844 18.792969 14.261719 18.773438 14.3125 C 18.667969 14.5625 18.566406 14.816406 18.464844 15.066406 C 18.410156 15.199219 18.355469 15.335938 18.304688 15.464844 C 18.292969 15.492188 18.28125 15.515625 18.269531 15.542969 C 18.164062 15.816406 18.050781 16.082031 17.941406 16.351562 C 17.929688 16.375 17.921875 16.394531 17.914062 16.421875 C 17.8125 16.664062 17.714844 16.902344 17.617188 17.144531 C 17.609375 17.167969 17.601562 17.183594 17.589844 17.203125 C 17.546875 17.308594 17.511719 17.40625 17.46875 17.511719 C 17.382812 17.714844 17.300781 17.921875 17.214844 18.128906 C 17.199219 18.171875 17.183594 18.214844 17.164062 18.261719 C 17.128906 18.34375 17.097656 18.425781 17.0625 18.507812 C 17.054688 18.542969 17.035156 18.582031 17.019531 18.617188 C 17.007812 18.648438 16.992188 18.679688 16.984375 18.714844 C 16.949219 18.785156 16.949219 18.785156 16.898438 18.8125 C 16.804688 18.507812 16.71875 18.195312 16.632812 17.886719 C 16.589844 17.746094 16.550781 17.597656 16.507812 17.457031 C 16.472656 17.320312 16.433594 17.175781 16.390625 17.039062 C 16.378906 16.984375 16.363281 16.9375 16.347656 16.882812 C 16.324219 16.8125 16.304688 16.734375 16.28125 16.65625 C 16.277344 16.636719 16.273438 16.613281 16.265625 16.59375 C 16.222656 16.445312 16.222656 16.445312 16.25 16.375 C 16.289062 16.308594 16.335938 16.257812 16.394531 16.199219 C 16.429688 16.164062 16.429688 16.164062 16.464844 16.128906 C 16.492188 16.101562 16.519531 16.078125 16.539062 16.050781 C 16.566406 16.023438 16.601562 15.996094 16.628906 15.96875 C 16.695312 15.890625 16.773438 15.816406 16.847656 15.738281 C 16.921875 15.664062 17.003906 15.582031 17.078125 15.503906 C 17.226562 15.355469 17.375 15.207031 17.523438 15.054688 C 17.6875 14.886719 17.855469 14.714844 18.023438 14.546875 C 18.367188 14.195312 18.710938 13.851562 19.050781 13.503906 Z M 19.050781 13.503906 "/>
<path style=" stroke:none;fill-rule:nonzero;fill:rgb(62.352943%,45.09804%,69.803923%);fill-opacity:1;" d="M 18.921875 13.394531 C 18.949219 13.402344 18.949219 13.402344 18.976562 13.421875 C 18.617188 13.796875 18.253906 14.175781 17.894531 14.546875 C 17.722656 14.722656 17.554688 14.898438 17.386719 15.070312 C 17.242188 15.226562 17.097656 15.378906 16.949219 15.53125 C 16.871094 15.613281 16.792969 15.691406 16.71875 15.773438 C 16.644531 15.847656 16.574219 15.925781 16.496094 16 C 16.472656 16.027344 16.445312 16.054688 16.417969 16.082031 C 16.335938 16.175781 16.261719 16.246094 16.148438 16.292969 C 15.996094 16.285156 15.867188 16.238281 15.722656 16.1875 C 15.683594 16.171875 15.640625 16.160156 15.597656 16.148438 C 15.550781 16.136719 15.550781 16.136719 15.5 16.121094 C 15.484375 16.117188 15.464844 16.109375 15.445312 16.105469 C 15.386719 16.089844 15.328125 16.074219 15.269531 16.054688 C 15.226562 16.046875 15.183594 16.035156 15.144531 16.023438 C 15.058594 15.996094 14.972656 15.972656 14.886719 15.945312 C 14.773438 15.914062 14.664062 15.882812 14.554688 15.855469 C 14.464844 15.828125 14.378906 15.804688 14.292969 15.777344 C 14.257812 15.765625 14.214844 15.753906 14.175781 15.746094 C 14.117188 15.726562 14.0625 15.710938 14.003906 15.695312 C 13.972656 15.683594 13.9375 15.671875 13.90625 15.667969 C 13.832031 15.640625 13.832031 15.640625 13.777344 15.613281 C 13.777344 15.597656 13.777344 15.582031 13.777344 15.5625 C 13.824219 15.542969 13.824219 15.542969 13.875 15.519531 C 14.433594 15.285156 14.996094 15.050781 15.558594 14.816406 C 15.582031 14.804688 15.601562 14.792969 15.625 14.78125 C 15.78125 14.714844 15.9375 14.652344 16.09375 14.585938 C 16.277344 14.507812 16.453125 14.433594 16.632812 14.359375 C 16.652344 14.351562 16.675781 14.339844 16.703125 14.328125 C 16.972656 14.21875 17.242188 14.105469 17.511719 13.988281 C 17.539062 13.976562 17.566406 13.96875 17.597656 13.957031 C 17.726562 13.902344 17.855469 13.839844 17.992188 13.785156 C 18.011719 13.777344 18.039062 13.769531 18.066406 13.757812 C 18.109375 13.738281 18.15625 13.714844 18.207031 13.699219 C 18.324219 13.648438 18.441406 13.59375 18.5625 13.546875 C 18.582031 13.535156 18.609375 13.523438 18.632812 13.511719 C 18.675781 13.496094 18.722656 13.476562 18.765625 13.453125 C 18.816406 13.429688 18.867188 13.414062 18.921875 13.394531 Z M 18.921875 13.394531 "/>
<path style=" stroke:none;fill-rule:nonzero;fill:rgb(62.352943%,45.09804%,69.803923%);fill-opacity:1;" d="M 21.429688 12.523438 C 22.742188 12.523438 24.0625 12.523438 25.425781 12.523438 C 25.785156 13.175781 25.785156 13.175781 25.941406 13.457031 C 26.082031 13.722656 26.226562 13.984375 26.375 14.242188 C 26.460938 14.398438 26.546875 14.558594 26.621094 14.722656 C 26.488281 14.699219 26.375 14.652344 26.25 14.597656 C 26.226562 14.585938 26.203125 14.574219 26.179688 14.570312 C 26.097656 14.535156 26.023438 14.496094 25.941406 14.464844 C 25.890625 14.441406 25.835938 14.421875 25.78125 14.398438 C 25.664062 14.351562 25.550781 14.300781 25.4375 14.25 C 25.195312 14.152344 24.957031 14.050781 24.71875 13.949219 C 24.304688 13.777344 23.894531 13.605469 23.480469 13.429688 C 23.460938 13.421875 23.4375 13.410156 23.414062 13.402344 C 23.183594 13.304688 22.953125 13.207031 22.722656 13.109375 C 22.625 13.066406 22.527344 13.027344 22.425781 12.984375 C 22.382812 12.964844 22.332031 12.945312 22.285156 12.921875 C 22.21875 12.894531 22.15625 12.867188 22.089844 12.839844 C 22.0625 12.828125 22.0625 12.828125 22.03125 12.820312 C 21.929688 12.773438 21.832031 12.738281 21.734375 12.691406 C 21.703125 12.683594 21.703125 12.683594 21.675781 12.671875 C 21.628906 12.65625 21.574219 12.632812 21.523438 12.609375 C 21.453125 12.578125 21.453125 12.578125 21.429688 12.523438 Z M 21.429688 12.523438 "/>
<path style=" stroke:none;fill-rule:nonzero;fill:rgb(62.352943%,45.09804%,69.803923%);fill-opacity:1;" d="M 14.574219 12.523438 C 15.90625 12.523438 17.230469 12.523438 18.597656 12.523438 C 18.503906 12.601562 18.410156 12.648438 18.296875 12.691406 C 18.277344 12.703125 18.253906 12.710938 18.234375 12.71875 C 18.191406 12.738281 18.148438 12.753906 18.101562 12.769531 C 18.011719 12.808594 17.914062 12.847656 17.824219 12.890625 C 17.773438 12.90625 17.726562 12.929688 17.679688 12.949219 C 17.417969 13.054688 17.164062 13.164062 16.914062 13.265625 C 16.863281 13.289062 16.820312 13.304688 16.773438 13.328125 C 16.679688 13.367188 16.589844 13.402344 16.496094 13.441406 C 16.277344 13.539062 16.050781 13.632812 15.824219 13.726562 C 15.804688 13.738281 15.78125 13.75 15.757812 13.753906 C 15.382812 13.917969 15.003906 14.078125 14.621094 14.234375 C 14.601562 14.246094 14.574219 14.25 14.546875 14.261719 C 14.40625 14.328125 14.261719 14.386719 14.117188 14.449219 C 14.039062 14.480469 13.960938 14.515625 13.878906 14.546875 C 13.824219 14.570312 13.773438 14.589844 13.71875 14.613281 C 13.691406 14.625 13.667969 14.632812 13.640625 14.644531 C 13.617188 14.65625 13.59375 14.667969 13.570312 14.679688 C 13.550781 14.683594 13.527344 14.695312 13.507812 14.699219 C 13.460938 14.722656 13.460938 14.722656 13.40625 14.722656 C 13.449219 14.558594 13.527344 14.421875 13.609375 14.277344 C 13.640625 14.222656 13.675781 14.164062 13.707031 14.109375 C 13.722656 14.082031 13.738281 14.054688 13.753906 14.023438 C 14.035156 13.523438 14.304688 13.027344 14.574219 12.523438 Z M 14.574219 12.523438 "/>
<path style=" stroke:none;fill-rule:nonzero;fill:rgb(62.352943%,45.09804%,69.803923%);fill-opacity:1;" d="M 19.910156 13.878906 C 19.914062 13.878906 19.925781 13.878906 19.933594 13.878906 C 19.933594 15.230469 19.933594 16.582031 19.933594 17.976562 C 19.742188 18.078125 19.546875 18.1875 19.347656 18.296875 C 19.246094 18.359375 19.148438 18.414062 19.046875 18.472656 C 18.789062 18.621094 18.519531 18.773438 18.253906 18.921875 C 18.226562 18.9375 18.199219 18.953125 18.167969 18.972656 C 18.128906 18.992188 18.128906 18.992188 18.085938 19.015625 C 18.027344 19.054688 17.964844 19.085938 17.902344 19.125 C 17.828125 19.167969 17.828125 19.167969 17.773438 19.167969 C 17.851562 18.921875 17.945312 18.6875 18.042969 18.453125 C 18.066406 18.402344 18.082031 18.351562 18.101562 18.308594 C 18.164062 18.160156 18.222656 18.015625 18.28125 17.867188 C 18.292969 17.84375 18.304688 17.816406 18.308594 17.796875 C 18.421875 17.515625 18.535156 17.242188 18.648438 16.964844 C 18.746094 16.734375 18.835938 16.5 18.933594 16.269531 C 18.972656 16.175781 19.007812 16.082031 19.046875 15.992188 C 19.121094 15.804688 19.195312 15.613281 19.277344 15.421875 C 19.488281 14.90625 19.699219 14.394531 19.910156 13.878906 Z M 19.910156 13.878906 "/>
<path style=" stroke:none;fill-rule:nonzero;fill:rgb(62.352943%,45.09804%,69.803923%);fill-opacity:1;" d="M 17.773438 5.71875 C 18.035156 5.847656 18.285156 5.984375 18.535156 6.128906 C 18.753906 6.261719 18.988281 6.386719 19.214844 6.519531 C 19.265625 6.550781 19.328125 6.578125 19.378906 6.617188 C 19.449219 6.65625 19.519531 6.683594 19.597656 6.703125 C 19.734375 6.753906 19.847656 6.8125 19.933594 6.941406 C 20.015625 7.214844 19.988281 7.515625 19.976562 7.792969 C 19.976562 7.90625 19.976562 8.023438 19.972656 8.136719 C 19.972656 8.351562 19.972656 8.570312 19.96875 8.78125 C 19.960938 9.027344 19.957031 9.273438 19.957031 9.519531 C 19.953125 10.023438 19.945312 10.527344 19.933594 11.035156 C 19.871094 10.9375 19.832031 10.839844 19.789062 10.734375 C 19.777344 10.714844 19.769531 10.691406 19.757812 10.664062 C 19.730469 10.59375 19.699219 10.515625 19.664062 10.445312 C 19.644531 10.390625 19.621094 10.335938 19.601562 10.285156 C 19.398438 9.777344 19.191406 9.273438 18.988281 8.765625 C 18.890625 8.53125 18.792969 8.289062 18.695312 8.050781 C 18.527344 7.652344 18.367188 7.246094 18.199219 6.839844 C 18.179688 6.785156 18.15625 6.738281 18.136719 6.683594 C 18.070312 6.511719 18 6.347656 17.9375 6.179688 C 17.925781 6.15625 17.921875 6.140625 17.910156 6.121094 C 17.886719 6.058594 17.859375 6.003906 17.839844 5.945312 C 17.828125 5.910156 17.8125 5.878906 17.800781 5.847656 C 17.773438 5.773438 17.773438 5.773438 17.773438 5.71875 Z M 17.773438 5.71875 "/>
<path style=" stroke:none;fill-rule:nonzero;fill:rgb(16.078432%,6.666667%,18.82353%);fill-opacity:1;" d="M 26.890625 22.203125 C 28.140625 22.203125 28.140625 22.203125 28.382812 22.449219 C 28.527344 22.644531 28.527344 22.855469 28.511719 23.101562 C 28.480469 23.253906 28.410156 23.367188 28.304688 23.476562 C 28.257812 23.5 28.210938 23.515625 28.167969 23.53125 C 28.179688 23.558594 28.195312 23.582031 28.207031 23.609375 C 28.253906 23.695312 28.304688 23.789062 28.351562 23.875 C 28.371094 23.914062 28.390625 23.957031 28.410156 23.996094 C 28.441406 24.050781 28.46875 24.105469 28.503906 24.167969 C 28.511719 24.183594 28.519531 24.199219 28.527344 24.222656 C 28.59375 24.339844 28.59375 24.339844 28.59375 24.375 C 28.414062 24.375 28.242188 24.375 28.058594 24.375 C 28.039062 24.332031 28.015625 24.292969 27.996094 24.25 C 27.964844 24.195312 27.9375 24.140625 27.902344 24.085938 C 27.894531 24.058594 27.878906 24.03125 27.859375 24.003906 C 27.851562 23.976562 27.835938 23.949219 27.816406 23.921875 C 27.800781 23.882812 27.800781 23.882812 27.78125 23.84375 C 27.769531 23.820312 27.753906 23.800781 27.742188 23.777344 C 27.730469 23.75 27.726562 23.730469 27.714844 23.703125 C 27.640625 23.601562 27.640625 23.601562 27.371094 23.613281 C 27.371094 23.867188 27.371094 24.117188 27.371094 24.375 C 27.210938 24.375 27.054688 24.375 26.890625 24.375 C 26.890625 23.65625 26.890625 22.941406 26.890625 22.203125 Z M 27.371094 22.609375 C 27.371094 22.816406 27.371094 23.023438 27.371094 23.230469 C 27.679688 23.257812 27.679688 23.257812 27.953125 23.15625 C 28.023438 23.0625 28.039062 22.992188 28.035156 22.882812 C 28.015625 22.765625 27.964844 22.710938 27.878906 22.636719 C 27.773438 22.601562 27.683594 22.609375 27.574219 22.609375 C 27.503906 22.609375 27.441406 22.609375 27.371094 22.609375 Z M 27.371094 22.609375 "/>
<path style=" stroke:none;fill-rule:nonzero;fill:rgb(16.078432%,6.666667%,18.82353%);fill-opacity:1;" d="M 6.636719 22.203125 C 7.886719 22.203125 7.886719 22.203125 8.128906 22.449219 C 8.277344 22.644531 8.277344 22.855469 8.257812 23.101562 C 8.226562 23.253906 8.15625 23.367188 8.050781 23.476562 C 8.007812 23.5 7.957031 23.515625 7.914062 23.53125 C 7.925781 23.558594 7.941406 23.582031 7.953125 23.609375 C 8 23.695312 8.050781 23.789062 8.097656 23.875 C 8.121094 23.914062 8.136719 23.957031 8.15625 23.996094 C 8.191406 24.050781 8.214844 24.105469 8.25 24.167969 C 8.257812 24.183594 8.265625 24.199219 8.277344 24.222656 C 8.339844 24.339844 8.339844 24.339844 8.339844 24.375 C 8.164062 24.375 7.992188 24.375 7.808594 24.375 C 7.785156 24.332031 7.765625 24.292969 7.742188 24.25 C 7.710938 24.195312 7.683594 24.140625 7.652344 24.085938 C 7.640625 24.058594 7.625 24.03125 7.609375 24.003906 C 7.597656 23.976562 7.582031 23.949219 7.566406 23.921875 C 7.546875 23.882812 7.546875 23.882812 7.527344 23.84375 C 7.515625 23.820312 7.5 23.800781 7.488281 23.777344 C 7.476562 23.75 7.472656 23.730469 7.460938 23.703125 C 7.386719 23.601562 7.386719 23.601562 7.117188 23.613281 C 7.117188 23.867188 7.117188 24.117188 7.117188 24.375 C 6.957031 24.375 6.800781 24.375 6.636719 24.375 C 6.636719 23.65625 6.636719 22.941406 6.636719 22.203125 Z M 7.117188 22.609375 C 7.117188 22.816406 7.117188 23.023438 7.117188 23.230469 C 7.425781 23.257812 7.425781 23.257812 7.699219 23.15625 C 7.769531 23.0625 7.785156 22.992188 7.78125 22.882812 C 7.765625 22.765625 7.710938 22.710938 7.625 22.636719 C 7.523438 22.601562 7.429688 22.609375 7.320312 22.609375 C 7.253906 22.609375 7.1875 22.609375 7.117188 22.609375 Z M 7.117188 22.609375 "/>
<path style=" stroke:none;fill-rule:nonzero;fill:rgb(16.078432%,6.666667%,18.82353%);fill-opacity:1;" d="M 16.84375 22.351562 C 17.0625 22.53125 17.183594 22.738281 17.242188 23.019531 C 17.273438 23.378906 17.261719 23.746094 17.046875 24.046875 C 16.847656 24.28125 16.644531 24.390625 16.339844 24.421875 C 16.046875 24.441406 15.765625 24.363281 15.539062 24.167969 C 15.28125 23.894531 15.230469 23.546875 15.238281 23.1875 C 15.246094 22.882812 15.367188 22.609375 15.585938 22.394531 C 15.941406 22.105469 16.464844 22.089844 16.84375 22.351562 Z M 15.863281 22.78125 C 15.710938 23.023438 15.683594 23.28125 15.738281 23.558594 C 15.792969 23.734375 15.863281 23.84375 16.019531 23.9375 C 16.152344 24.007812 16.273438 23.996094 16.417969 23.964844 C 16.539062 23.914062 16.636719 23.8125 16.707031 23.695312 C 16.757812 23.558594 16.773438 23.433594 16.773438 23.292969 C 16.773438 23.273438 16.773438 23.253906 16.773438 23.238281 C 16.765625 23.078125 16.742188 22.957031 16.652344 22.828125 C 16.636719 22.800781 16.621094 22.777344 16.605469 22.75 C 16.503906 22.644531 16.390625 22.609375 16.246094 22.597656 C 16.082031 22.609375 15.964844 22.652344 15.863281 22.78125 Z M 15.863281 22.78125 "/>
<path style=" stroke:none;fill-rule:nonzero;fill:rgb(16.078432%,6.666667%,18.82353%);fill-opacity:1;" d="M 29.898438 22.203125 C 30.101562 22.203125 30.308594 22.203125 30.511719 22.203125 C 30.640625 22.542969 30.757812 22.886719 30.871094 23.230469 C 30.90625 23.335938 30.941406 23.4375 30.976562 23.539062 C 30.984375 23.566406 30.992188 23.585938 31.003906 23.613281 C 31.039062 23.734375 31.078125 23.847656 31.121094 23.96875 C 31.132812 23.996094 31.132812 23.996094 31.140625 24.03125 C 31.160156 24.074219 31.167969 24.113281 31.183594 24.148438 C 31.210938 24.226562 31.234375 24.285156 31.234375 24.375 C 31.066406 24.375 30.898438 24.375 30.726562 24.375 C 30.707031 24.308594 30.683594 24.242188 30.65625 24.171875 C 30.652344 24.15625 30.648438 24.132812 30.640625 24.113281 C 30.613281 24.035156 30.59375 23.96875 30.59375 23.882812 C 30.34375 23.882812 30.101562 23.882812 29.847656 23.882812 C 29.820312 23.980469 29.796875 24.078125 29.769531 24.183594 C 29.742188 24.242188 29.714844 24.308594 29.6875 24.375 C 29.519531 24.375 29.351562 24.375 29.179688 24.375 C 29.242188 24.171875 29.300781 23.976562 29.371094 23.777344 C 29.378906 23.746094 29.386719 23.71875 29.398438 23.683594 C 29.417969 23.621094 29.441406 23.554688 29.460938 23.492188 C 29.492188 23.394531 29.527344 23.296875 29.558594 23.203125 C 29.671875 22.871094 29.785156 22.535156 29.898438 22.203125 Z M 30.195312 22.773438 C 30.15625 22.882812 30.125 22.984375 30.085938 23.09375 C 30.070312 23.136719 30.070312 23.136719 30.054688 23.1875 C 30.046875 23.214844 30.039062 23.242188 30.027344 23.273438 C 30.015625 23.300781 30.011719 23.328125 30 23.355469 C 29.976562 23.421875 29.976562 23.421875 29.976562 23.503906 C 30.140625 23.503906 30.296875 23.503906 30.457031 23.503906 C 30.425781 23.390625 30.394531 23.269531 30.355469 23.15625 C 30.339844 23.105469 30.339844 23.105469 30.328125 23.050781 C 30.316406 23.023438 30.308594 22.992188 30.296875 22.957031 C 30.289062 22.925781 30.28125 22.898438 30.273438 22.871094 C 30.253906 22.792969 30.253906 22.792969 30.195312 22.773438 Z M 30.195312 22.773438 "/>
<path style=" stroke:none;fill-rule:nonzero;fill:rgb(16.078432%,6.666667%,18.82353%);fill-opacity:1;" d="M 18.015625 22.203125 C 18.171875 22.203125 18.328125 22.203125 18.496094 22.203125 C 18.496094 22.246094 18.496094 22.289062 18.496094 22.335938 C 18.496094 22.5 18.496094 22.65625 18.503906 22.820312 C 18.503906 22.890625 18.503906 22.957031 18.503906 23.027344 C 18.503906 23.132812 18.507812 23.230469 18.507812 23.328125 C 18.507812 23.363281 18.507812 23.394531 18.507812 23.429688 C 18.511719 23.640625 18.511719 23.640625 18.597656 23.832031 C 18.695312 23.921875 18.765625 23.957031 18.902344 23.976562 C 19.019531 23.964844 19.117188 23.929688 19.214844 23.859375 C 19.285156 23.757812 19.304688 23.691406 19.304688 23.566406 C 19.304688 23.539062 19.304688 23.503906 19.304688 23.476562 C 19.304688 23.445312 19.304688 23.410156 19.304688 23.378906 C 19.308594 23.339844 19.308594 23.308594 19.308594 23.273438 C 19.308594 23.1875 19.308594 23.101562 19.308594 23.007812 C 19.308594 22.917969 19.316406 22.828125 19.316406 22.738281 C 19.316406 22.558594 19.320312 22.382812 19.320312 22.203125 C 19.476562 22.203125 19.640625 22.203125 19.800781 22.203125 C 19.800781 22.40625 19.804688 22.613281 19.804688 22.816406 C 19.804688 22.910156 19.804688 23.007812 19.804688 23.101562 C 19.8125 23.210938 19.8125 23.320312 19.8125 23.429688 C 19.8125 23.460938 19.8125 23.492188 19.8125 23.527344 C 19.8125 23.777344 19.777344 23.984375 19.605469 24.175781 C 19.402344 24.367188 19.144531 24.441406 18.867188 24.433594 C 18.617188 24.40625 18.367188 24.339844 18.191406 24.144531 C 18.050781 23.964844 18.011719 23.765625 18.011719 23.539062 C 18.011719 23.511719 18.011719 23.476562 18.011719 23.449219 C 18.011719 23.417969 18.011719 23.382812 18.011719 23.351562 C 18.011719 23.320312 18.011719 23.285156 18.011719 23.253906 C 18.011719 23.148438 18.011719 23.046875 18.011719 22.941406 C 18.011719 22.871094 18.011719 22.800781 18.011719 22.726562 C 18.011719 22.554688 18.011719 22.378906 18.015625 22.203125 Z M 18.015625 22.203125 "/>
<path style=" stroke:none;fill-rule:nonzero;fill:rgb(16.078432%,6.666667%,18.82353%);fill-opacity:1;" d="M 21.964844 22.308594 C 22.085938 22.40625 22.183594 22.507812 22.226562 22.664062 C 22.226562 22.726562 22.226562 22.789062 22.226562 22.855469 C 22.074219 22.855469 21.921875 22.855469 21.773438 22.855469 C 21.746094 22.800781 21.71875 22.746094 21.691406 22.691406 C 21.574219 22.613281 21.488281 22.597656 21.347656 22.609375 C 21.28125 22.625 21.222656 22.644531 21.160156 22.664062 C 21.152344 22.699219 21.148438 22.734375 21.140625 22.765625 C 21.140625 22.789062 21.136719 22.804688 21.136719 22.828125 C 21.132812 22.886719 21.132812 22.886719 21.160156 22.964844 C 21.273438 23.007812 21.378906 23.039062 21.492188 23.066406 C 22.046875 23.210938 22.046875 23.210938 22.199219 23.449219 C 22.277344 23.625 22.296875 23.777344 22.253906 23.964844 C 22.191406 24.132812 22.0625 24.265625 21.90625 24.347656 C 21.617188 24.46875 21.25 24.46875 20.960938 24.347656 C 20.757812 24.238281 20.648438 24.105469 20.570312 23.882812 C 20.570312 23.820312 20.570312 23.761719 20.570312 23.695312 C 20.722656 23.695312 20.871094 23.695312 21.023438 23.695312 C 21.105469 23.859375 21.105469 23.859375 21.105469 23.910156 C 21.296875 23.980469 21.464844 24.019531 21.664062 23.9375 C 21.71875 23.894531 21.746094 23.859375 21.773438 23.792969 C 21.777344 23.71875 21.777344 23.71875 21.722656 23.65625 C 21.617188 23.554688 21.476562 23.527344 21.335938 23.488281 C 20.828125 23.347656 20.828125 23.347656 20.679688 23.128906 C 20.601562 22.957031 20.597656 22.792969 20.648438 22.617188 C 20.738281 22.417969 20.867188 22.316406 21.0625 22.230469 C 21.363281 22.121094 21.6875 22.152344 21.964844 22.308594 Z M 21.964844 22.308594 "/>
<path style=" stroke:none;fill-rule:nonzero;fill:rgb(16.078432%,6.666667%,18.82353%);fill-opacity:1;" d="M 9.035156 22.203125 C 9.515625 22.203125 10 22.203125 10.5 22.203125 C 10.5 22.339844 10.5 22.472656 10.5 22.609375 C 10.171875 22.609375 9.847656 22.609375 9.515625 22.609375 C 9.515625 22.773438 9.515625 22.929688 9.515625 23.101562 C 9.8125 23.101562 10.113281 23.101562 10.421875 23.101562 C 10.421875 23.230469 10.421875 23.367188 10.421875 23.503906 C 10.117188 23.503906 9.820312 23.503906 9.515625 23.503906 C 9.515625 23.667969 9.515625 23.828125 9.515625 23.992188 C 9.839844 23.992188 10.167969 23.992188 10.5 23.992188 C 10.5 24.117188 10.5 24.242188 10.5 24.375 C 10.015625 24.375 9.53125 24.375 9.035156 24.375 C 9.035156 23.65625 9.035156 22.941406 9.035156 22.203125 Z M 9.035156 22.203125 "/>
<path style=" stroke:none;fill-rule:nonzero;fill:rgb(16.078432%,6.666667%,18.82353%);fill-opacity:1;" d="M 25.804688 22.355469 C 25.953125 22.476562 26.0625 22.636719 26.117188 22.828125 C 26.117188 22.882812 26.117188 22.9375 26.117188 22.992188 C 25.960938 22.992188 25.796875 22.992188 25.636719 22.992188 C 25.609375 22.925781 25.582031 22.863281 25.554688 22.800781 C 25.472656 22.695312 25.394531 22.644531 25.257812 22.628906 C 25.125 22.625 25.03125 22.640625 24.917969 22.71875 C 24.753906 22.886719 24.699219 23.0625 24.691406 23.296875 C 24.699219 23.488281 24.730469 23.675781 24.847656 23.820312 C 24.972656 23.9375 25.097656 23.976562 25.265625 23.964844 C 25.382812 23.949219 25.453125 23.910156 25.542969 23.828125 C 25.597656 23.761719 25.597656 23.761719 25.636719 23.613281 C 25.792969 23.613281 25.953125 23.613281 26.117188 23.613281 C 26.109375 23.847656 26.039062 24.019531 25.871094 24.183594 C 25.621094 24.394531 25.351562 24.449219 25.027344 24.417969 C 24.785156 24.375 24.574219 24.265625 24.414062 24.074219 C 24.1875 23.746094 24.152344 23.375 24.207031 22.984375 C 24.273438 22.707031 24.417969 22.472656 24.648438 22.3125 C 25.011719 22.109375 25.453125 22.117188 25.804688 22.355469 Z M 25.804688 22.355469 "/>
<path style=" stroke:none;fill-rule:nonzero;fill:rgb(16.078432%,6.666667%,18.82353%);fill-opacity:1;" d="M 12.878906 22.355469 C 13.027344 22.476562 13.136719 22.636719 13.191406 22.828125 C 13.191406 22.882812 13.191406 22.9375 13.191406 22.992188 C 13.035156 22.992188 12.878906 22.992188 12.710938 22.992188 C 12.683594 22.925781 12.65625 22.863281 12.628906 22.800781 C 12.546875 22.695312 12.46875 22.644531 12.332031 22.628906 C 12.199219 22.625 12.105469 22.640625 11.992188 22.71875 C 11.828125 22.886719 11.777344 23.0625 11.765625 23.296875 C 11.773438 23.488281 11.804688 23.675781 11.921875 23.820312 C 12.046875 23.9375 12.171875 23.976562 12.339844 23.964844 C 12.457031 23.949219 12.53125 23.910156 12.625 23.828125 C 12.671875 23.761719 12.671875 23.761719 12.710938 23.613281 C 12.871094 23.613281 13.027344 23.613281 13.191406 23.613281 C 13.183594 23.847656 13.113281 24.019531 12.945312 24.183594 C 12.695312 24.394531 12.429688 24.449219 12.101562 24.417969 C 11.859375 24.375 11.652344 24.265625 11.488281 24.074219 C 11.261719 23.746094 11.226562 23.375 11.28125 22.984375 C 11.351562 22.707031 11.492188 22.472656 11.722656 22.3125 C 12.089844 22.109375 12.53125 22.117188 12.878906 22.355469 Z M 12.878906 22.355469 "/>
<path style=" stroke:none;fill-rule:nonzero;fill:rgb(16.078432%,6.666667%,18.82353%);fill-opacity:1;" d="M 4.289062 22.203125 C 5.496094 22.203125 5.496094 22.203125 5.726562 22.421875 C 5.878906 22.574219 5.921875 22.738281 5.925781 22.945312 C 5.921875 23.148438 5.890625 23.308594 5.753906 23.460938 C 5.527344 23.675781 5.3125 23.703125 5.011719 23.695312 C 4.933594 23.695312 4.855469 23.695312 4.769531 23.695312 C 4.769531 23.921875 4.769531 24.144531 4.769531 24.375 C 4.613281 24.375 4.457031 24.375 4.289062 24.375 C 4.289062 23.65625 4.289062 22.941406 4.289062 22.203125 Z M 4.769531 22.609375 C 4.769531 22.832031 4.769531 23.054688 4.769531 23.285156 C 4.875 23.292969 4.875 23.292969 4.988281 23.296875 C 5.011719 23.296875 5.03125 23.296875 5.054688 23.300781 C 5.160156 23.300781 5.230469 23.296875 5.316406 23.226562 C 5.398438 23.136719 5.4375 23.082031 5.4375 22.964844 C 5.425781 22.835938 5.398438 22.753906 5.300781 22.664062 C 5.203125 22.589844 5.089844 22.601562 4.976562 22.609375 C 4.875 22.609375 4.875 22.609375 4.769531 22.609375 Z M 4.769531 22.609375 "/>
<path style=" stroke:none;fill-rule:nonzero;fill:rgb(16.078432%,6.666667%,18.82353%);fill-opacity:1;" d="M 31.949219 22.203125 C 32.425781 22.203125 32.902344 22.203125 33.390625 22.203125 C 33.390625 22.339844 33.390625 22.472656 33.390625 22.609375 C 33.078125 22.609375 32.757812 22.609375 32.429688 22.609375 C 32.429688 22.773438 32.429688 22.929688 32.429688 23.101562 C 32.714844 23.101562 32.996094 23.101562 33.285156 23.101562 C 33.285156 23.230469 33.285156 23.367188 33.285156 23.503906 C 33 23.503906 32.722656 23.503906 32.429688 23.503906 C 32.429688 23.789062 32.429688 24.078125 32.429688 24.375 C 32.273438 24.375 32.117188 24.375 31.949219 24.375 C 31.949219 23.65625 31.949219 22.941406 31.949219 22.203125 Z M 31.949219 22.203125 "/>
<path style=" stroke:none;fill-rule:nonzero;fill:rgb(16.078432%,6.666667%,18.82353%);fill-opacity:1;" d="M 34.03125 22.203125 C 34.613281 22.203125 35.195312 22.203125 35.792969 22.203125 C 35.792969 22.339844 35.792969 22.472656 35.792969 22.609375 C 35.578125 22.609375 35.367188 22.609375 35.152344 22.609375 C 35.152344 23.191406 35.152344 23.773438 35.152344 24.375 C 35 24.375 34.847656 24.375 34.699219 24.375 C 34.699219 23.789062 34.699219 23.210938 34.699219 22.609375 C 34.476562 22.609375 34.257812 22.609375 34.03125 22.609375 C 34.03125 22.476562 34.03125 22.339844 34.03125 22.203125 Z M 34.03125 22.203125 "/>
<path style=" stroke:none;fill-rule:nonzero;fill:rgb(43.137255%,29.019609%,51.764709%);fill-opacity:1;" d="M 16.976562 28.519531 C 17.0625 28.519531 17.148438 28.519531 17.242188 28.519531 C 17.300781 28.699219 17.347656 28.875 17.390625 29.0625 C 17.402344 29.109375 17.414062 29.160156 17.425781 29.214844 C 17.429688 29.234375 17.433594 29.257812 17.441406 29.28125 C 17.453125 29.335938 17.453125 29.335938 17.484375 29.390625 C 17.488281 29.351562 17.488281 29.351562 17.5 29.3125 C 17.527344 29.226562 17.546875 29.132812 17.570312 29.042969 C 17.582031 29.007812 17.589844 28.96875 17.601562 28.925781 C 17.617188 28.871094 17.628906 28.816406 17.644531 28.761719 C 17.65625 28.722656 17.660156 28.6875 17.671875 28.65625 C 17.695312 28.574219 17.695312 28.574219 17.722656 28.519531 C 17.808594 28.519531 17.898438 28.519531 17.992188 28.519531 C 17.996094 28.546875 18 28.570312 18.007812 28.597656 C 18.027344 28.6875 18.054688 28.78125 18.078125 28.878906 C 18.085938 28.917969 18.097656 28.957031 18.109375 29 C 18.125 29.054688 18.136719 29.117188 18.152344 29.175781 C 18.15625 29.191406 18.164062 29.207031 18.167969 29.230469 C 18.183594 29.316406 18.183594 29.316406 18.226562 29.390625 C 18.296875 29.097656 18.367188 28.816406 18.441406 28.519531 C 18.539062 28.519531 18.636719 28.519531 18.734375 28.519531 C 18.683594 28.699219 18.636719 28.878906 18.589844 29.0625 C 18.570312 29.121094 18.554688 29.1875 18.539062 29.246094 C 18.511719 29.335938 18.492188 29.421875 18.464844 29.507812 C 18.460938 29.535156 18.453125 29.5625 18.441406 29.597656 C 18.4375 29.617188 18.433594 29.644531 18.421875 29.671875 C 18.414062 29.695312 18.410156 29.71875 18.40625 29.738281 C 18.390625 29.792969 18.390625 29.792969 18.363281 29.847656 C 18.269531 29.847656 18.183594 29.847656 18.09375 29.847656 C 18.066406 29.75 18.035156 29.652344 18.007812 29.554688 C 17.996094 29.519531 17.992188 29.492188 17.980469 29.464844 C 17.929688 29.3125 17.894531 29.164062 17.855469 29.007812 C 17.851562 29.027344 17.84375 29.042969 17.839844 29.0625 C 17.8125 29.144531 17.789062 29.226562 17.765625 29.308594 C 17.757812 29.335938 17.746094 29.363281 17.742188 29.390625 C 17.695312 29.546875 17.644531 29.699219 17.585938 29.847656 C 17.5 29.847656 17.414062 29.847656 17.320312 29.847656 C 17.273438 29.671875 17.226562 29.5 17.171875 29.316406 C 17.15625 29.261719 17.140625 29.203125 17.121094 29.144531 C 17.101562 29.054688 17.074219 28.96875 17.054688 28.878906 C 17.042969 28.84375 17.042969 28.84375 17.027344 28.804688 C 17.019531 28.777344 17.015625 28.75 17.007812 28.726562 C 17 28.707031 16.992188 28.683594 16.988281 28.65625 C 16.976562 28.601562 16.976562 28.601562 16.976562 28.519531 Z M 16.976562 28.519531 "/>
<path style=" stroke:none;fill-rule:nonzero;fill:rgb(16.078432%,6.666667%,18.82353%);fill-opacity:1;" d="M 13.964844 22.203125 C 14.121094 22.203125 14.277344 22.203125 14.445312 22.203125 C 14.445312 22.917969 14.445312 23.636719 14.445312 24.375 C 14.285156 24.375 14.128906 24.375 13.964844 24.375 C 13.964844 23.65625 13.964844 22.941406 13.964844 22.203125 Z M 13.964844 22.203125 "/>
<path style=" stroke:none;fill-rule:nonzero;fill:rgb(43.137255%,29.019609%,51.764709%);fill-opacity:1;" d="M 24.386719 25.917969 C 24.492188 25.917969 24.605469 25.910156 24.71875 25.910156 C 24.769531 25.910156 24.769531 25.910156 24.820312 25.90625 C 25 25.90625 25.117188 25.910156 25.265625 26.027344 C 25.324219 26.128906 25.34375 26.195312 25.34375 26.316406 C 25.3125 26.425781 25.269531 26.46875 25.183594 26.539062 C 25.210938 26.554688 25.230469 26.578125 25.257812 26.59375 C 25.351562 26.671875 25.378906 26.742188 25.394531 26.855469 C 25.398438 26.960938 25.382812 27.054688 25.316406 27.136719 C 25.144531 27.285156 24.960938 27.257812 24.746094 27.25 C 24.628906 27.25 24.503906 27.25 24.386719 27.246094 C 24.386719 26.808594 24.386719 26.371094 24.386719 25.917969 Z M 24.648438 26.136719 C 24.648438 26.25 24.648438 26.363281 24.648438 26.484375 C 24.828125 26.496094 24.828125 26.496094 25 26.457031 C 25.054688 26.410156 25.054688 26.410156 25.082031 26.328125 C 25.085938 26.246094 25.085938 26.246094 25.03125 26.183594 C 24.953125 26.117188 24.902344 26.125 24.804688 26.128906 C 24.753906 26.128906 24.703125 26.136719 24.648438 26.136719 Z M 24.648438 26.675781 C 24.648438 26.792969 24.648438 26.910156 24.648438 27.03125 C 24.710938 27.03125 24.769531 27.03125 24.828125 27.039062 C 24.882812 27.039062 24.882812 27.039062 24.929688 27.039062 C 25.027344 27.039062 25.027344 27.039062 25.085938 26.976562 C 25.140625 26.921875 25.140625 26.921875 25.128906 26.839844 C 25.097656 26.742188 25.082031 26.726562 24.996094 26.675781 C 24.910156 26.664062 24.910156 26.664062 24.816406 26.671875 C 24.761719 26.671875 24.710938 26.675781 24.648438 26.675781 Z M 24.648438 26.675781 "/>
<path style=" stroke:none;fill-rule:nonzero;fill:rgb(43.137255%,29.019609%,51.764709%);fill-opacity:1;" d="M 23.15625 28.519531 C 23.265625 28.519531 23.367188 28.515625 23.476562 28.515625 C 23.527344 28.515625 23.527344 28.515625 23.578125 28.507812 C 23.761719 28.507812 23.878906 28.523438 24.035156 28.628906 C 24.136719 28.738281 24.148438 28.890625 24.144531 29.035156 C 24.117188 29.144531 24.074219 29.242188 23.980469 29.308594 C 23.964844 29.308594 23.949219 29.308594 23.933594 29.308594 C 23.953125 29.351562 23.953125 29.351562 23.976562 29.398438 C 23.996094 29.4375 24.015625 29.476562 24.035156 29.515625 C 24.046875 29.535156 24.058594 29.558594 24.066406 29.574219 C 24.074219 29.597656 24.085938 29.613281 24.09375 29.636719 C 24.105469 29.652344 24.109375 29.667969 24.121094 29.691406 C 24.144531 29.738281 24.144531 29.738281 24.171875 29.847656 C 24.074219 29.847656 23.976562 29.847656 23.878906 29.847656 C 23.839844 29.78125 23.804688 29.71875 23.773438 29.652344 C 23.761719 29.628906 23.75 29.613281 23.738281 29.589844 C 23.664062 29.449219 23.664062 29.449219 23.664062 29.390625 C 23.582031 29.390625 23.507812 29.390625 23.425781 29.390625 C 23.425781 29.542969 23.425781 29.691406 23.425781 29.847656 C 23.335938 29.847656 23.25 29.847656 23.15625 29.847656 C 23.15625 29.410156 23.15625 28.972656 23.15625 28.519531 Z M 23.425781 28.738281 C 23.425781 28.871094 23.425781 29.007812 23.425781 29.144531 C 23.597656 29.152344 23.597656 29.152344 23.773438 29.144531 C 23.835938 29.082031 23.835938 29.082031 23.878906 29.007812 C 23.882812 28.90625 23.882812 28.90625 23.851562 28.820312 C 23.789062 28.75 23.734375 28.738281 23.640625 28.734375 C 23.570312 28.734375 23.496094 28.734375 23.425781 28.738281 Z M 23.425781 28.738281 "/>
<path style=" stroke:none;fill-rule:nonzero;fill:rgb(43.137255%,29.019609%,51.764709%);fill-opacity:1;" d="M 25.878906 25.917969 C 25.980469 25.917969 26.089844 25.910156 26.195312 25.910156 C 26.246094 25.910156 26.246094 25.910156 26.292969 25.90625 C 26.480469 25.90625 26.601562 25.921875 26.757812 26.027344 C 26.851562 26.140625 26.863281 26.289062 26.863281 26.429688 C 26.835938 26.539062 26.789062 26.636719 26.703125 26.703125 C 26.6875 26.703125 26.664062 26.703125 26.648438 26.703125 C 26.671875 26.746094 26.671875 26.746094 26.695312 26.796875 C 26.714844 26.835938 26.734375 26.875 26.757812 26.910156 C 26.761719 26.933594 26.773438 26.957031 26.785156 26.972656 C 26.792969 26.992188 26.804688 27.011719 26.808594 27.03125 C 26.820312 27.046875 26.832031 27.070312 26.835938 27.085938 C 26.863281 27.136719 26.863281 27.136719 26.890625 27.246094 C 26.792969 27.246094 26.695312 27.246094 26.59375 27.246094 C 26.5625 27.179688 26.523438 27.113281 26.488281 27.046875 C 26.476562 27.027344 26.472656 27.011719 26.460938 26.988281 C 26.382812 26.847656 26.382812 26.847656 26.382812 26.785156 C 26.304688 26.785156 26.222656 26.785156 26.140625 26.785156 C 26.140625 26.9375 26.140625 27.09375 26.140625 27.246094 C 26.054688 27.246094 25.964844 27.246094 25.878906 27.246094 C 25.878906 26.808594 25.878906 26.371094 25.878906 25.917969 Z M 26.140625 26.136719 C 26.140625 26.265625 26.140625 26.402344 26.140625 26.539062 C 26.316406 26.554688 26.316406 26.554688 26.488281 26.539062 C 26.558594 26.484375 26.558594 26.484375 26.59375 26.410156 C 26.601562 26.304688 26.601562 26.304688 26.566406 26.21875 C 26.503906 26.144531 26.453125 26.136719 26.363281 26.128906 C 26.289062 26.128906 26.21875 26.128906 26.140625 26.136719 Z M 26.140625 26.136719 "/>
<path style=" stroke:none;fill-rule:nonzero;fill:rgb(43.137255%,29.019609%,51.764709%);fill-opacity:1;" d="M 22.089844 25.917969 C 22.199219 25.917969 22.300781 25.910156 22.414062 25.910156 C 22.460938 25.910156 22.460938 25.910156 22.511719 25.90625 C 22.695312 25.90625 22.8125 25.921875 22.96875 26.027344 C 23.070312 26.140625 23.082031 26.289062 23.078125 26.429688 C 23.054688 26.539062 23.007812 26.636719 22.921875 26.703125 C 22.898438 26.703125 22.882812 26.703125 22.867188 26.703125 C 22.886719 26.746094 22.886719 26.746094 22.910156 26.796875 C 22.929688 26.835938 22.953125 26.875 22.96875 26.910156 C 22.980469 26.933594 22.992188 26.957031 23 26.972656 C 23.011719 26.992188 23.015625 27.011719 23.027344 27.03125 C 23.039062 27.046875 23.042969 27.070312 23.054688 27.085938 C 23.078125 27.136719 23.078125 27.136719 23.101562 27.246094 C 23.007812 27.246094 22.910156 27.246094 22.8125 27.246094 C 22.773438 27.179688 22.742188 27.113281 22.703125 27.046875 C 22.695312 27.027344 22.683594 27.011719 22.671875 26.988281 C 22.597656 26.847656 22.597656 26.847656 22.597656 26.785156 C 22.523438 26.785156 22.441406 26.785156 22.359375 26.785156 C 22.359375 26.9375 22.359375 27.09375 22.359375 27.246094 C 22.269531 27.246094 22.183594 27.246094 22.089844 27.246094 C 22.089844 26.808594 22.089844 26.371094 22.089844 25.917969 Z M 22.359375 26.136719 C 22.359375 26.265625 22.359375 26.402344 22.359375 26.539062 C 22.53125 26.554688 22.53125 26.554688 22.703125 26.539062 C 22.769531 26.484375 22.769531 26.484375 22.8125 26.410156 C 22.816406 26.304688 22.816406 26.304688 22.785156 26.21875 C 22.722656 26.144531 22.671875 26.136719 22.574219 26.128906 C 22.503906 26.128906 22.429688 26.128906 22.359375 26.136719 Z M 22.359375 26.136719 "/>
<path style=" stroke:none;fill-rule:nonzero;fill:rgb(43.137255%,29.019609%,51.764709%);fill-opacity:1;" d="M 13.324219 25.917969 C 14.078125 25.917969 14.078125 25.917969 14.234375 26.046875 C 14.25 26.0625 14.265625 26.085938 14.277344 26.101562 C 14.304688 26.128906 14.304688 26.128906 14.328125 26.15625 C 14.449219 26.355469 14.433594 26.589844 14.417969 26.8125 C 14.375 26.984375 14.265625 27.097656 14.121094 27.191406 C 14.023438 27.238281 13.945312 27.25 13.832031 27.25 C 13.804688 27.25 13.777344 27.25 13.75 27.25 C 13.71875 27.25 13.683594 27.25 13.648438 27.25 C 13.484375 27.246094 13.484375 27.246094 13.324219 27.246094 C 13.324219 26.808594 13.324219 26.371094 13.324219 25.917969 Z M 13.589844 26.136719 C 13.589844 26.429688 13.589844 26.726562 13.589844 27.03125 C 13.847656 27.042969 13.847656 27.042969 14.046875 26.949219 C 14.171875 26.8125 14.1875 26.699219 14.179688 26.523438 C 14.171875 26.390625 14.128906 26.300781 14.03125 26.207031 C 13.882812 26.109375 13.777344 26.136719 13.589844 26.136719 Z M 13.589844 26.136719 "/>
<path style=" stroke:none;fill-rule:nonzero;fill:rgb(43.137255%,29.019609%,51.764709%);fill-opacity:1;" d="M 9.644531 26 C 9.761719 26.089844 9.800781 26.207031 9.832031 26.355469 C 9.601562 26.375 9.601562 26.375 9.519531 26.316406 C 9.488281 26.273438 9.488281 26.273438 9.433594 26.191406 C 9.347656 26.144531 9.261719 26.152344 9.164062 26.164062 C 9.066406 26.199219 9.039062 26.234375 8.988281 26.328125 C 8.921875 26.496094 8.921875 26.6875 9.003906 26.855469 C 9.039062 26.9375 9.085938 26.972656 9.164062 27.003906 C 9.289062 27.019531 9.378906 27.019531 9.484375 26.957031 C 9.554688 26.890625 9.554688 26.890625 9.597656 26.757812 C 9.5 26.757812 9.402344 26.757812 9.300781 26.757812 C 9.300781 26.6875 9.300781 26.617188 9.300781 26.539062 C 9.476562 26.539062 9.648438 26.539062 9.832031 26.539062 C 9.84375 26.933594 9.84375 26.933594 9.753906 27.054688 C 9.613281 27.203125 9.488281 27.277344 9.277344 27.285156 C 9.105469 27.277344 8.988281 27.238281 8.851562 27.125 C 8.707031 26.964844 8.660156 26.792969 8.652344 26.582031 C 8.660156 26.363281 8.710938 26.195312 8.859375 26.035156 C 9.089844 25.828125 9.390625 25.855469 9.644531 26 Z M 9.644531 26 "/>
<path style=" stroke:none;fill-rule:nonzero;fill:rgb(43.137255%,29.019609%,51.764709%);fill-opacity:1;" d="M 11.296875 26 C 11.464844 26.128906 11.519531 26.316406 11.546875 26.523438 C 11.558594 26.738281 11.503906 26.929688 11.375 27.097656 C 11.238281 27.234375 11.117188 27.277344 10.925781 27.285156 C 10.734375 27.277344 10.597656 27.222656 10.464844 27.082031 C 10.316406 26.890625 10.285156 26.671875 10.3125 26.429688 C 10.355469 26.238281 10.421875 26.101562 10.578125 25.980469 C 10.808594 25.828125 11.070312 25.867188 11.296875 26 Z M 10.65625 26.246094 C 10.558594 26.402344 10.554688 26.574219 10.582031 26.757812 C 10.613281 26.855469 10.664062 26.921875 10.734375 27 C 10.828125 27.046875 10.925781 27.046875 11.035156 27.03125 C 11.136719 26.976562 11.179688 26.9375 11.246094 26.839844 C 11.304688 26.664062 11.304688 26.472656 11.226562 26.308594 C 11.175781 26.222656 11.132812 26.171875 11.035156 26.136719 C 10.871094 26.117188 10.78125 26.128906 10.65625 26.246094 Z M 10.65625 26.246094 "/>
<path style=" stroke:none;fill-rule:nonzero;fill:rgb(43.137255%,29.019609%,51.764709%);fill-opacity:1;" d="M 31.179688 25.972656 C 31.277344 26.046875 31.308594 26.085938 31.335938 26.210938 C 31.335938 26.238281 31.335938 26.265625 31.339844 26.300781 C 31.261719 26.300781 31.179688 26.300781 31.097656 26.300781 C 31.082031 26.261719 31.0625 26.226562 31.046875 26.191406 C 30.949219 26.140625 30.855469 26.128906 30.753906 26.15625 C 30.699219 26.183594 30.699219 26.183594 30.671875 26.21875 C 30.671875 26.261719 30.671875 26.304688 30.671875 26.355469 C 30.78125 26.414062 30.890625 26.453125 31.007812 26.484375 C 31.179688 26.535156 31.246094 26.582031 31.347656 26.726562 C 31.390625 26.855469 31.375 26.949219 31.324219 27.074219 C 31.253906 27.183594 31.167969 27.238281 31.046875 27.273438 C 30.855469 27.292969 30.667969 27.304688 30.5 27.203125 C 30.429688 27.140625 30.394531 27.085938 30.355469 27.003906 C 30.34375 26.910156 30.34375 26.910156 30.355469 26.839844 C 30.4375 26.828125 30.511719 26.824219 30.59375 26.839844 C 30.628906 26.894531 30.664062 26.949219 30.699219 27.003906 C 30.8125 27.042969 30.910156 27.042969 31.019531 27 C 31.078125 26.949219 31.078125 26.949219 31.089844 26.878906 C 31.078125 26.808594 31.078125 26.808594 31.019531 26.769531 C 30.933594 26.726562 30.855469 26.703125 30.769531 26.675781 C 30.621094 26.632812 30.496094 26.59375 30.398438 26.46875 C 30.359375 26.34375 30.359375 26.234375 30.410156 26.113281 C 30.609375 25.863281 30.90625 25.824219 31.179688 25.972656 Z M 31.179688 25.972656 "/>
<path style=" stroke:none;fill-rule:nonzero;fill:rgb(43.137255%,29.019609%,51.764709%);fill-opacity:1;" d="M 29.714844 25.972656 C 29.8125 26.046875 29.84375 26.085938 29.871094 26.210938 C 29.871094 26.238281 29.871094 26.265625 29.875 26.300781 C 29.796875 26.300781 29.714844 26.300781 29.632812 26.300781 C 29.617188 26.261719 29.597656 26.226562 29.578125 26.191406 C 29.484375 26.140625 29.390625 26.128906 29.289062 26.15625 C 29.234375 26.183594 29.234375 26.183594 29.207031 26.21875 C 29.207031 26.261719 29.207031 26.304688 29.207031 26.355469 C 29.316406 26.414062 29.421875 26.453125 29.542969 26.484375 C 29.714844 26.535156 29.777344 26.582031 29.882812 26.726562 C 29.925781 26.855469 29.910156 26.949219 29.859375 27.074219 C 29.789062 27.183594 29.703125 27.238281 29.578125 27.273438 C 29.390625 27.292969 29.203125 27.304688 29.035156 27.203125 C 28.964844 27.140625 28.929688 27.085938 28.890625 27.003906 C 28.878906 26.910156 28.878906 26.910156 28.890625 26.839844 C 28.972656 26.828125 29.046875 26.824219 29.128906 26.839844 C 29.164062 26.894531 29.195312 26.949219 29.234375 27.003906 C 29.347656 27.042969 29.445312 27.042969 29.554688 27 C 29.613281 26.949219 29.613281 26.949219 29.621094 26.878906 C 29.613281 26.808594 29.613281 26.808594 29.546875 26.769531 C 29.464844 26.726562 29.390625 26.703125 29.300781 26.675781 C 29.152344 26.632812 29.03125 26.59375 28.933594 26.46875 C 28.894531 26.34375 28.894531 26.234375 28.945312 26.113281 C 29.144531 25.863281 29.441406 25.824219 29.714844 25.972656 Z M 29.714844 25.972656 "/>
<path style=" stroke:none;fill-rule:nonzero;fill:rgb(43.137255%,29.019609%,51.764709%);fill-opacity:1;" d="M 16.472656 25.972656 C 16.566406 26.046875 16.601562 26.085938 16.621094 26.210938 C 16.628906 26.238281 16.628906 26.265625 16.628906 26.300781 C 16.550781 26.300781 16.472656 26.300781 16.390625 26.300781 C 16.375 26.261719 16.351562 26.226562 16.335938 26.191406 C 16.238281 26.140625 16.148438 26.128906 16.046875 26.15625 C 15.992188 26.183594 15.992188 26.183594 15.964844 26.21875 C 15.960938 26.261719 15.960938 26.304688 15.964844 26.355469 C 16.070312 26.414062 16.175781 26.453125 16.296875 26.484375 C 16.464844 26.535156 16.535156 26.582031 16.636719 26.726562 C 16.675781 26.855469 16.664062 26.949219 16.617188 27.074219 C 16.546875 27.183594 16.460938 27.238281 16.335938 27.273438 C 16.148438 27.292969 15.960938 27.304688 15.792969 27.203125 C 15.722656 27.140625 15.683594 27.085938 15.640625 27.003906 C 15.636719 26.910156 15.636719 26.910156 15.640625 26.839844 C 15.726562 26.828125 15.804688 26.824219 15.882812 26.839844 C 15.921875 26.894531 15.953125 26.949219 15.992188 27.003906 C 16.105469 27.042969 16.195312 27.042969 16.308594 27 C 16.367188 26.949219 16.367188 26.949219 16.378906 26.878906 C 16.367188 26.808594 16.367188 26.808594 16.304688 26.769531 C 16.222656 26.726562 16.148438 26.703125 16.054688 26.675781 C 15.90625 26.632812 15.785156 26.59375 15.683594 26.46875 C 15.652344 26.34375 15.652344 26.234375 15.699219 26.113281 C 15.898438 25.863281 16.195312 25.824219 16.472656 25.972656 Z M 16.472656 25.972656 "/>
<path style=" stroke:none;fill-rule:nonzero;fill:rgb(43.137255%,29.019609%,51.764709%);fill-opacity:1;" d="M 27.714844 25.917969 C 27.816406 25.917969 27.925781 25.917969 28.035156 25.917969 C 28.140625 26.164062 28.226562 26.414062 28.3125 26.671875 C 28.335938 26.738281 28.355469 26.800781 28.378906 26.867188 C 28.394531 26.90625 28.410156 26.949219 28.421875 26.988281 C 28.425781 27.011719 28.4375 27.03125 28.441406 27.046875 C 28.484375 27.183594 28.484375 27.183594 28.484375 27.246094 C 28.398438 27.246094 28.3125 27.246094 28.222656 27.246094 C 28.207031 27.203125 28.183594 27.15625 28.167969 27.113281 C 28.15625 27.09375 28.148438 27.066406 28.136719 27.039062 C 28.113281 26.976562 28.113281 26.976562 28.113281 26.921875 C 27.957031 26.921875 27.796875 26.921875 27.632812 26.921875 C 27.628906 26.960938 27.617188 27 27.609375 27.039062 C 27.597656 27.109375 27.574219 27.175781 27.554688 27.246094 C 27.457031 27.246094 27.359375 27.246094 27.261719 27.246094 C 27.410156 26.800781 27.554688 26.359375 27.714844 25.917969 Z M 27.878906 26.246094 C 27.808594 26.402344 27.753906 26.5625 27.714844 26.730469 C 27.816406 26.730469 27.925781 26.730469 28.035156 26.730469 C 28 26.5625 27.957031 26.402344 27.898438 26.246094 C 27.894531 26.246094 27.882812 26.246094 27.878906 26.246094 Z M 27.878906 26.246094 "/>
<path style=" stroke:none;fill-rule:nonzero;fill:rgb(43.137255%,29.019609%,51.764709%);fill-opacity:1;" d="M 21.800781 28.519531 C 22.089844 28.519531 22.382812 28.519531 22.679688 28.519531 C 22.679688 28.589844 22.679688 28.660156 22.679688 28.738281 C 22.476562 28.738281 22.273438 28.738281 22.0625 28.738281 C 22.0625 28.851562 22.0625 28.96875 22.0625 29.089844 C 22.253906 29.089844 22.433594 29.089844 22.625 29.089844 C 22.625 29.160156 22.625 29.230469 22.625 29.308594 C 22.441406 29.308594 22.257812 29.308594 22.0625 29.308594 C 22.0625 29.417969 22.0625 29.519531 22.0625 29.628906 C 22.269531 29.628906 22.46875 29.628906 22.679688 29.628906 C 22.679688 29.707031 22.679688 29.777344 22.679688 29.847656 C 22.386719 29.847656 22.097656 29.847656 21.800781 29.847656 C 21.800781 29.410156 21.800781 28.972656 21.800781 28.519531 Z M 21.800781 28.519531 "/>
<path style=" stroke:none;fill-rule:nonzero;fill:rgb(43.137255%,29.019609%,51.764709%);fill-opacity:1;" d="M 19.132812 28.519531 C 19.421875 28.519531 19.714844 28.519531 20.011719 28.519531 C 20.011719 28.589844 20.011719 28.660156 20.011719 28.738281 C 19.8125 28.738281 19.605469 28.738281 19.402344 28.738281 C 19.402344 28.851562 19.402344 28.96875 19.402344 29.089844 C 19.585938 29.089844 19.769531 29.089844 19.960938 29.089844 C 19.960938 29.160156 19.960938 29.230469 19.960938 29.308594 C 19.773438 29.308594 19.589844 29.308594 19.402344 29.308594 C 19.402344 29.417969 19.402344 29.519531 19.402344 29.628906 C 19.601562 29.628906 19.804688 29.628906 20.011719 29.628906 C 20.011719 29.707031 20.011719 29.777344 20.011719 29.847656 C 19.726562 29.847656 19.433594 29.847656 19.132812 29.847656 C 19.132812 29.410156 19.132812 28.972656 19.132812 28.519531 Z M 19.132812 28.519531 "/>
<path style=" stroke:none;fill-rule:nonzero;fill:rgb(43.137255%,29.019609%,51.764709%);fill-opacity:1;" d="M 15.695312 28.519531 C 15.984375 28.519531 16.277344 28.519531 16.574219 28.519531 C 16.574219 28.589844 16.574219 28.660156 16.574219 28.738281 C 16.375 28.738281 16.167969 28.738281 15.964844 28.738281 C 15.964844 28.851562 15.964844 28.96875 15.964844 29.089844 C 16.148438 29.089844 16.332031 29.089844 16.523438 29.089844 C 16.523438 29.160156 16.523438 29.230469 16.523438 29.308594 C 16.335938 29.308594 16.152344 29.308594 15.964844 29.308594 C 15.964844 29.417969 15.964844 29.519531 15.964844 29.628906 C 16.164062 29.628906 16.367188 29.628906 16.574219 29.628906 C 16.574219 29.707031 16.574219 29.777344 16.574219 29.847656 C 16.289062 29.847656 15.996094 29.847656 15.695312 29.847656 C 15.695312 29.410156 15.695312 28.972656 15.695312 28.519531 Z M 15.695312 28.519531 "/>
<path style=" stroke:none;fill-rule:nonzero;fill:rgb(43.137255%,29.019609%,51.764709%);fill-opacity:1;" d="M 20.707031 25.917969 C 20.996094 25.917969 21.289062 25.917969 21.585938 25.917969 C 21.585938 25.988281 21.585938 26.058594 21.585938 26.136719 C 21.382812 26.136719 21.179688 26.136719 20.976562 26.136719 C 20.976562 26.25 20.976562 26.363281 20.976562 26.484375 C 21.160156 26.484375 21.339844 26.484375 21.53125 26.484375 C 21.53125 26.554688 21.53125 26.632812 21.53125 26.703125 C 21.347656 26.703125 21.164062 26.703125 20.976562 26.703125 C 20.976562 26.8125 20.976562 26.917969 20.976562 27.03125 C 21.175781 27.03125 21.378906 27.03125 21.585938 27.03125 C 21.585938 27.101562 21.585938 27.175781 21.585938 27.246094 C 21.292969 27.246094 21.007812 27.246094 20.707031 27.246094 C 20.707031 26.808594 20.707031 26.371094 20.707031 25.917969 Z M 20.707031 25.917969 "/>
<path style=" stroke:none;fill-rule:nonzero;fill:rgb(43.137255%,29.019609%,51.764709%);fill-opacity:1;" d="M 19.023438 25.917969 C 19.121094 25.917969 19.21875 25.917969 19.320312 25.917969 C 19.421875 26.238281 19.53125 26.5625 19.640625 26.894531 C 19.746094 26.582031 19.746094 26.582031 19.847656 26.273438 C 19.859375 26.234375 19.875 26.195312 19.886719 26.15625 C 19.890625 26.136719 19.902344 26.113281 19.910156 26.089844 C 19.957031 25.949219 19.957031 25.949219 19.988281 25.917969 C 20.03125 25.917969 20.074219 25.917969 20.125 25.917969 C 20.144531 25.917969 20.171875 25.917969 20.195312 25.917969 C 20.214844 25.917969 20.230469 25.917969 20.253906 25.917969 C 20.238281 26.070312 20.1875 26.199219 20.140625 26.34375 C 20.128906 26.371094 20.117188 26.390625 20.113281 26.417969 C 20.089844 26.472656 20.074219 26.523438 20.054688 26.578125 C 20.027344 26.660156 20 26.738281 19.96875 26.820312 C 19.953125 26.875 19.933594 26.921875 19.914062 26.972656 C 19.910156 27 19.898438 27.019531 19.890625 27.046875 C 19.882812 27.070312 19.875 27.09375 19.867188 27.113281 C 19.859375 27.136719 19.855469 27.152344 19.84375 27.175781 C 19.828125 27.21875 19.828125 27.21875 19.800781 27.246094 C 19.746094 27.25 19.691406 27.25 19.640625 27.246094 C 19.605469 27.246094 19.578125 27.246094 19.546875 27.246094 C 19.527344 27.246094 19.503906 27.246094 19.484375 27.246094 C 19.421875 27.085938 19.371094 26.929688 19.308594 26.769531 C 19.292969 26.714844 19.273438 26.660156 19.257812 26.609375 C 19.230469 26.527344 19.203125 26.453125 19.175781 26.375 C 19.164062 26.355469 19.152344 26.328125 19.148438 26.304688 C 19.101562 26.171875 19.0625 26.046875 19.023438 25.917969 Z M 19.023438 25.917969 "/>
<path style=" stroke:none;fill-rule:nonzero;fill:rgb(43.137255%,29.019609%,51.764709%);fill-opacity:1;" d="M 24.460938 28.519531 C 24.574219 28.480469 24.648438 28.476562 24.757812 28.519531 C 24.871094 28.65625 24.945312 28.824219 25.027344 28.984375 C 25.046875 29.035156 25.046875 29.035156 25.074219 29.0625 C 25.171875 28.886719 25.269531 28.707031 25.371094 28.519531 C 25.46875 28.519531 25.566406 28.519531 25.664062 28.519531 C 25.621094 28.628906 25.578125 28.710938 25.515625 28.804688 C 25.308594 29.148438 25.140625 29.433594 25.183594 29.847656 C 25.101562 29.847656 25.027344 29.847656 24.941406 29.847656 C 24.945312 29.820312 24.945312 29.792969 24.953125 29.765625 C 24.960938 29.382812 24.804688 29.121094 24.613281 28.804688 C 24.558594 28.710938 24.507812 28.617188 24.460938 28.519531 Z M 24.460938 28.519531 "/>
<path style=" stroke:none;fill-rule:nonzero;fill:rgb(43.137255%,29.019609%,51.764709%);fill-opacity:1;" d="M 20.496094 28.519531 C 20.582031 28.519531 20.667969 28.519531 20.757812 28.519531 C 20.757812 28.886719 20.757812 29.253906 20.757812 29.628906 C 20.941406 29.628906 21.132812 29.628906 21.320312 29.628906 C 21.320312 29.707031 21.320312 29.777344 21.320312 29.847656 C 21.046875 29.847656 20.777344 29.847656 20.496094 29.847656 C 20.496094 29.410156 20.496094 28.972656 20.496094 28.519531 Z M 20.496094 28.519531 "/>
<path style=" stroke:none;fill-rule:nonzero;fill:rgb(43.137255%,29.019609%,51.764709%);fill-opacity:1;" d="M 17.9375 25.917969 C 18.023438 25.917969 18.109375 25.917969 18.199219 25.917969 C 18.199219 26.28125 18.199219 26.648438 18.199219 27.03125 C 18.382812 27.03125 18.570312 27.03125 18.761719 27.03125 C 18.761719 27.101562 18.761719 27.175781 18.761719 27.246094 C 18.484375 27.246094 18.214844 27.246094 17.9375 27.246094 C 17.9375 26.808594 17.9375 26.371094 17.9375 25.917969 Z M 17.9375 25.917969 "/>
<path style=" stroke:none;fill-rule:nonzero;fill:rgb(43.137255%,29.019609%,51.764709%);fill-opacity:1;" d="M 12.019531 25.917969 C 12.105469 25.917969 12.191406 25.917969 12.285156 25.917969 C 12.285156 26.28125 12.285156 26.648438 12.285156 27.03125 C 12.46875 27.03125 12.65625 27.03125 12.84375 27.03125 C 12.84375 27.101562 12.84375 27.175781 12.84375 27.246094 C 12.570312 27.246094 12.300781 27.246094 12.019531 27.246094 C 12.019531 26.808594 12.019531 26.371094 12.019531 25.917969 Z M 12.019531 25.917969 "/>
<path style=" stroke:none;fill-rule:nonzero;fill:rgb(43.137255%,29.019609%,51.764709%);fill-opacity:1;" d="M 14.953125 28.519531 C 15.027344 28.519531 15.109375 28.519531 15.1875 28.519531 C 15.195312 28.671875 15.195312 28.824219 15.195312 28.972656 C 15.195312 29.027344 15.199219 29.078125 15.199219 29.132812 C 15.199219 29.203125 15.199219 29.28125 15.199219 29.351562 C 15.199219 29.371094 15.199219 29.398438 15.199219 29.421875 C 15.199219 29.570312 15.179688 29.652344 15.082031 29.765625 C 14.960938 29.875 14.855469 29.882812 14.699219 29.882812 C 14.570312 29.871094 14.5 29.820312 14.40625 29.734375 C 14.351562 29.644531 14.351562 29.597656 14.363281 29.5 C 14.445312 29.5 14.519531 29.5 14.601562 29.5 C 14.621094 29.53125 14.640625 29.570312 14.65625 29.601562 C 14.753906 29.628906 14.753906 29.628906 14.84375 29.628906 C 14.929688 29.515625 14.933594 29.410156 14.933594 29.269531 C 14.933594 29.246094 14.933594 29.226562 14.941406 29.203125 C 14.941406 29.136719 14.941406 29.066406 14.941406 29 C 14.941406 28.953125 14.945312 28.90625 14.945312 28.859375 C 14.945312 28.75 14.945312 28.632812 14.953125 28.519531 Z M 14.953125 28.519531 "/>
<path style=" stroke:none;fill-rule:nonzero;fill:rgb(43.137255%,29.019609%,51.764709%);fill-opacity:1;" d="M 17.132812 25.917969 C 17.226562 25.917969 17.3125 25.917969 17.402344 25.917969 C 17.402344 26.355469 17.402344 26.796875 17.402344 27.246094 C 17.3125 27.246094 17.226562 27.246094 17.132812 27.246094 C 17.132812 26.808594 17.132812 26.371094 17.132812 25.917969 Z M 17.132812 25.917969 "/>
<path style=" stroke:none;fill-rule:nonzero;fill:rgb(43.137255%,29.019609%,51.764709%);fill-opacity:1;" d="M 23.796875 26.976562 C 23.851562 27.03125 23.851562 27.03125 23.859375 27.109375 C 23.851562 27.191406 23.851562 27.191406 23.820312 27.246094 C 23.753906 27.285156 23.710938 27.285156 23.636719 27.273438 C 23.589844 27.246094 23.589844 27.246094 23.554688 27.191406 C 23.5625 27.09375 23.5625 27.09375 23.582031 27.003906 C 23.660156 26.964844 23.71875 26.972656 23.796875 26.976562 Z M 23.796875 26.976562 "/>
<path style=" stroke:none;fill-rule:nonzero;fill:rgb(43.137255%,29.019609%,51.764709%);fill-opacity:1;" d="M 15.082031 26.976562 C 15.132812 27.03125 15.132812 27.03125 15.144531 27.109375 C 15.132812 27.191406 15.132812 27.191406 15.101562 27.246094 C 15.039062 27.285156 15 27.285156 14.925781 27.273438 C 14.875 27.246094 14.875 27.246094 14.84375 27.191406 C 14.847656 27.09375 14.847656 27.09375 14.871094 27.003906 C 14.945312 26.964844 15 26.972656 15.082031 26.976562 Z M 15.082031 26.976562 "/>
</g>
</svg>
