<?xml version="1.0" encoding="UTF-8"?>
<svg xmlns="http://www.w3.org/2000/svg" xmlns:xlink="http://www.w3.org/1999/xlink" width="10px" height="9px" viewBox="0 0 10 9" version="1.1">
<g id="surface1">
<path style=" stroke:none;fill-rule:nonzero;fill:rgb(62.352943%,45.09804%,69.803923%);fill-opacity:1;" d="M 6.65625 2.621094 C 6.660156 2.621094 6.664062 2.621094 6.667969 2.621094 C 6.6875 2.667969 6.707031 2.71875 6.722656 2.765625 C 6.734375 2.789062 6.742188 2.808594 6.753906 2.832031 C 6.753906 2.839844 6.757812 2.847656 6.761719 2.859375 C 6.761719 2.863281 6.761719 2.863281 6.765625 2.871094 C 6.773438 2.890625 6.785156 2.910156 6.792969 2.933594 C 6.796875 2.941406 6.796875 2.953125 6.800781 2.960938 C 6.804688 2.964844 6.804688 2.96875 6.808594 2.972656 C 6.820312 3 6.828125 3.023438 6.839844 3.050781 C 6.84375 3.0625 6.847656 3.078125 6.855469 3.089844 C 6.859375 3.105469 6.867188 3.121094 6.875 3.136719 C 6.878906 3.144531 6.878906 3.144531 6.882812 3.15625 C 6.886719 3.167969 6.886719 3.167969 6.890625 3.175781 C 6.898438 3.207031 6.886719 3.226562 6.878906 3.253906 C 6.875 3.261719 6.875 3.265625 6.871094 3.269531 C 6.867188 3.28125 6.867188 3.28125 6.863281 3.289062 C 6.863281 3.292969 6.859375 3.296875 6.859375 3.304688 C 6.851562 3.324219 6.84375 3.34375 6.835938 3.363281 C 6.828125 3.375 6.824219 3.390625 6.820312 3.402344 C 6.808594 3.429688 6.796875 3.457031 6.785156 3.484375 C 6.773438 3.511719 6.761719 3.539062 6.753906 3.570312 C 6.742188 3.589844 6.734375 3.605469 6.726562 3.628906 C 6.722656 3.640625 6.71875 3.652344 6.714844 3.664062 C 6.695312 3.707031 6.679688 3.746094 6.660156 3.785156 C 6.644531 3.769531 6.632812 3.75 6.621094 3.730469 C 6.617188 3.722656 6.613281 3.714844 6.609375 3.710938 C 6.609375 3.703125 6.605469 3.695312 6.601562 3.6875 C 6.589844 3.671875 6.582031 3.65625 6.574219 3.640625 C 6.570312 3.632812 6.566406 3.621094 6.5625 3.613281 C 6.542969 3.578125 6.523438 3.539062 6.503906 3.5 C 6.5 3.496094 6.496094 3.488281 6.492188 3.480469 C 6.476562 3.445312 6.453125 3.40625 6.433594 3.371094 C 6.433594 3.363281 6.429688 3.355469 6.425781 3.351562 C 6.417969 3.335938 6.410156 3.320312 6.402344 3.308594 C 6.394531 3.296875 6.390625 3.285156 6.382812 3.273438 C 6.375 3.253906 6.375 3.253906 6.367188 3.242188 C 6.355469 3.226562 6.351562 3.21875 6.347656 3.199219 C 6.359375 3.164062 6.375 3.136719 6.394531 3.105469 C 6.398438 3.097656 6.402344 3.085938 6.410156 3.078125 C 6.417969 3.058594 6.429688 3.042969 6.4375 3.023438 C 6.457031 2.988281 6.476562 2.953125 6.496094 2.914062 C 6.503906 2.902344 6.511719 2.890625 6.515625 2.875 C 6.53125 2.847656 6.546875 2.820312 6.5625 2.789062 C 6.566406 2.78125 6.570312 2.773438 6.574219 2.765625 C 6.582031 2.75 6.589844 2.734375 6.597656 2.722656 C 6.636719 2.648438 6.636719 2.648438 6.65625 2.621094 Z M 6.65625 2.621094 "/>
<path style=" stroke:none;fill-rule:nonzero;fill:rgb(62.352943%,45.09804%,69.803923%);fill-opacity:1;" d="M 5.007812 4.652344 C 5.023438 4.65625 5.042969 4.667969 5.058594 4.675781 C 5.066406 4.683594 5.074219 4.6875 5.078125 4.691406 C 5.085938 4.695312 5.097656 4.699219 5.105469 4.703125 C 5.113281 4.707031 5.121094 4.714844 5.128906 4.71875 C 5.148438 4.730469 5.167969 4.742188 5.1875 4.753906 C 5.203125 4.765625 5.222656 4.773438 5.238281 4.785156 C 5.261719 4.800781 5.285156 4.816406 5.3125 4.828125 C 5.335938 4.84375 5.363281 4.863281 5.390625 4.878906 C 5.398438 4.882812 5.40625 4.886719 5.414062 4.894531 C 5.429688 4.902344 5.441406 4.910156 5.457031 4.917969 C 5.488281 4.9375 5.519531 4.957031 5.550781 4.976562 C 5.535156 4.992188 5.527344 4.996094 5.507812 5.003906 C 5.503906 5.007812 5.496094 5.011719 5.492188 5.011719 C 5.480469 5.015625 5.480469 5.015625 5.472656 5.019531 C 5.464844 5.027344 5.464844 5.027344 5.453125 5.03125 C 5.429688 5.039062 5.410156 5.050781 5.390625 5.058594 C 5.359375 5.074219 5.328125 5.085938 5.300781 5.097656 C 5.292969 5.105469 5.285156 5.105469 5.277344 5.109375 C 5.238281 5.128906 5.195312 5.148438 5.15625 5.167969 C 5.148438 5.167969 5.144531 5.171875 5.140625 5.175781 C 5.121094 5.183594 5.101562 5.191406 5.078125 5.203125 C 5.074219 5.207031 5.066406 5.210938 5.058594 5.214844 C 5.050781 5.21875 5.046875 5.21875 5.039062 5.222656 C 5.007812 5.234375 4.980469 5.230469 4.949219 5.214844 C 4.945312 5.210938 4.9375 5.210938 4.929688 5.207031 C 4.925781 5.203125 4.917969 5.199219 4.910156 5.195312 C 4.898438 5.191406 4.898438 5.191406 4.890625 5.1875 C 4.867188 5.175781 4.84375 5.164062 4.820312 5.152344 C 4.804688 5.144531 4.789062 5.140625 4.773438 5.132812 C 4.742188 5.117188 4.710938 5.101562 4.679688 5.085938 C 4.628906 5.0625 4.578125 5.039062 4.527344 5.015625 C 4.519531 5.011719 4.511719 5.007812 4.503906 5.007812 C 4.488281 5 4.472656 4.992188 4.457031 4.984375 C 4.457031 4.980469 4.457031 4.976562 4.457031 4.972656 C 4.460938 4.96875 4.464844 4.964844 4.472656 4.960938 C 4.613281 4.878906 4.75 4.796875 4.890625 4.710938 C 4.898438 4.707031 4.902344 4.703125 4.910156 4.699219 C 4.917969 4.695312 4.921875 4.691406 4.925781 4.691406 C 4.933594 4.6875 4.9375 4.683594 4.945312 4.679688 C 4.957031 4.667969 4.957031 4.667969 4.972656 4.660156 C 4.992188 4.652344 4.992188 4.652344 5.007812 4.652344 Z M 5.007812 4.652344 "/>
<path style=" stroke:none;fill-rule:nonzero;fill:rgb(62.352943%,45.09804%,69.803923%);fill-opacity:1;" d="M 5.0625 1.195312 C 5.070312 1.195312 5.078125 1.199219 5.082031 1.203125 C 5.089844 1.207031 5.097656 1.210938 5.105469 1.214844 C 5.121094 1.222656 5.136719 1.230469 5.152344 1.238281 C 5.15625 1.238281 5.160156 1.242188 5.164062 1.242188 C 5.21875 1.269531 5.269531 1.292969 5.320312 1.316406 C 5.398438 1.351562 5.472656 1.386719 5.550781 1.421875 C 5.53125 1.441406 5.511719 1.453125 5.492188 1.464844 C 5.488281 1.46875 5.484375 1.46875 5.480469 1.472656 C 5.472656 1.476562 5.464844 1.484375 5.457031 1.488281 C 5.433594 1.5 5.414062 1.511719 5.390625 1.523438 C 5.386719 1.527344 5.382812 1.53125 5.378906 1.53125 C 5.339844 1.554688 5.300781 1.578125 5.265625 1.601562 C 5.253906 1.609375 5.238281 1.617188 5.230469 1.625 C 5.21875 1.628906 5.21875 1.628906 5.210938 1.632812 C 5.175781 1.65625 5.140625 1.675781 5.105469 1.699219 C 5.09375 1.707031 5.09375 1.707031 5.082031 1.710938 C 5.078125 1.714844 5.070312 1.71875 5.0625 1.722656 C 5.054688 1.726562 5.050781 1.730469 5.046875 1.734375 C 5.039062 1.738281 5.035156 1.738281 5.027344 1.742188 C 5.019531 1.746094 5.019531 1.746094 5.011719 1.75 C 4.996094 1.757812 4.996094 1.757812 4.980469 1.75 C 4.972656 1.746094 4.972656 1.746094 4.960938 1.738281 C 4.957031 1.738281 4.953125 1.734375 4.945312 1.730469 C 4.9375 1.722656 4.929688 1.71875 4.921875 1.714844 C 4.910156 1.707031 4.894531 1.699219 4.878906 1.6875 C 4.871094 1.683594 4.863281 1.675781 4.855469 1.671875 C 4.824219 1.652344 4.789062 1.632812 4.753906 1.609375 C 4.738281 1.601562 4.726562 1.59375 4.710938 1.585938 C 4.683594 1.570312 4.65625 1.554688 4.625 1.535156 C 4.621094 1.53125 4.613281 1.527344 4.605469 1.523438 C 4.589844 1.511719 4.578125 1.503906 4.5625 1.496094 C 4.527344 1.476562 4.492188 1.453125 4.457031 1.429688 C 4.472656 1.40625 4.492188 1.398438 4.519531 1.386719 C 4.523438 1.386719 4.527344 1.382812 4.53125 1.382812 C 4.546875 1.375 4.558594 1.371094 4.574219 1.363281 C 4.59375 1.355469 4.613281 1.34375 4.636719 1.335938 C 4.640625 1.332031 4.648438 1.328125 4.652344 1.328125 C 4.695312 1.308594 4.738281 1.289062 4.78125 1.265625 C 4.800781 1.257812 4.820312 1.25 4.839844 1.238281 C 4.851562 1.234375 4.867188 1.226562 4.878906 1.21875 C 4.894531 1.210938 4.914062 1.203125 4.929688 1.195312 C 4.9375 1.191406 4.941406 1.191406 4.949219 1.1875 C 4.992188 1.167969 5.019531 1.171875 5.0625 1.195312 Z M 5.0625 1.195312 "/>
<path style=" stroke:none;fill-rule:nonzero;fill:rgb(62.352943%,45.09804%,69.803923%);fill-opacity:1;" d="M 3.339844 2.621094 C 3.363281 2.628906 3.363281 2.632812 3.375 2.65625 C 3.378906 2.664062 3.382812 2.667969 3.382812 2.675781 C 3.386719 2.683594 3.390625 2.6875 3.394531 2.695312 C 3.398438 2.710938 3.40625 2.722656 3.414062 2.738281 C 3.417969 2.746094 3.421875 2.753906 3.425781 2.761719 C 3.441406 2.792969 3.460938 2.828125 3.476562 2.859375 C 3.511719 2.925781 3.546875 2.992188 3.582031 3.054688 C 3.585938 3.0625 3.585938 3.070312 3.589844 3.078125 C 3.597656 3.085938 3.597656 3.085938 3.601562 3.097656 C 3.609375 3.109375 3.617188 3.121094 3.625 3.136719 C 3.648438 3.179688 3.648438 3.179688 3.652344 3.207031 C 3.640625 3.242188 3.625 3.269531 3.609375 3.296875 C 3.601562 3.316406 3.59375 3.328125 3.585938 3.34375 C 3.582031 3.351562 3.578125 3.359375 3.574219 3.363281 C 3.554688 3.402344 3.535156 3.4375 3.515625 3.472656 C 3.507812 3.488281 3.5 3.503906 3.492188 3.519531 C 3.488281 3.527344 3.484375 3.53125 3.480469 3.539062 C 3.460938 3.578125 3.441406 3.617188 3.417969 3.65625 C 3.417969 3.664062 3.414062 3.671875 3.410156 3.679688 C 3.390625 3.714844 3.371094 3.75 3.351562 3.785156 C 3.347656 3.785156 3.34375 3.785156 3.339844 3.785156 C 3.328125 3.761719 3.320312 3.738281 3.308594 3.710938 C 3.304688 3.703125 3.304688 3.695312 3.300781 3.6875 C 3.28125 3.644531 3.265625 3.605469 3.246094 3.5625 C 3.207031 3.457031 3.207031 3.457031 3.164062 3.351562 C 3.160156 3.339844 3.15625 3.332031 3.152344 3.324219 C 3.144531 3.308594 3.136719 3.292969 3.132812 3.277344 C 3.128906 3.269531 3.125 3.261719 3.125 3.253906 C 3.121094 3.25 3.117188 3.246094 3.117188 3.238281 C 3.105469 3.195312 3.121094 3.15625 3.136719 3.117188 C 3.140625 3.113281 3.140625 3.109375 3.144531 3.101562 C 3.148438 3.09375 3.152344 3.082031 3.15625 3.074219 C 3.164062 3.046875 3.175781 3.019531 3.1875 2.996094 C 3.191406 2.988281 3.191406 2.984375 3.195312 2.976562 C 3.21875 2.917969 3.242188 2.855469 3.269531 2.796875 C 3.277344 2.773438 3.285156 2.753906 3.292969 2.734375 C 3.292969 2.730469 3.296875 2.726562 3.296875 2.722656 C 3.3125 2.6875 3.324219 2.65625 3.339844 2.621094 Z M 3.339844 2.621094 "/>
<path style=" stroke:none;fill-rule:nonzero;fill:rgb(62.352943%,45.09804%,69.803923%);fill-opacity:1;" d="M 6.558594 4.042969 C 6.550781 4.078125 6.542969 4.105469 6.53125 4.140625 C 6.53125 4.144531 6.527344 4.148438 6.523438 4.15625 C 6.519531 4.171875 6.511719 4.191406 6.507812 4.207031 C 6.503906 4.21875 6.496094 4.230469 6.492188 4.242188 C 6.484375 4.269531 6.476562 4.296875 6.464844 4.320312 C 6.453125 4.351562 6.441406 4.382812 6.429688 4.417969 C 6.421875 4.441406 6.410156 4.464844 6.402344 4.492188 C 6.398438 4.503906 6.394531 4.515625 6.390625 4.527344 C 6.382812 4.542969 6.375 4.558594 6.371094 4.578125 C 6.367188 4.582031 6.367188 4.585938 6.363281 4.59375 C 6.351562 4.628906 6.335938 4.644531 6.304688 4.660156 C 6.296875 4.664062 6.289062 4.664062 6.28125 4.667969 C 6.277344 4.667969 6.273438 4.671875 6.269531 4.675781 C 6.253906 4.679688 6.242188 4.6875 6.226562 4.691406 C 6.214844 4.695312 6.207031 4.699219 6.199219 4.703125 C 6.175781 4.710938 6.15625 4.722656 6.136719 4.730469 C 6.113281 4.738281 6.085938 4.753906 6.058594 4.761719 C 6.039062 4.769531 6.019531 4.78125 6 4.789062 C 5.992188 4.792969 5.980469 4.796875 5.972656 4.800781 C 5.910156 4.828125 5.851562 4.851562 5.789062 4.871094 C 5.792969 4.832031 5.800781 4.796875 5.808594 4.757812 C 5.808594 4.753906 5.8125 4.746094 5.8125 4.738281 C 5.824219 4.6875 5.835938 4.632812 5.851562 4.582031 C 5.859375 4.546875 5.867188 4.515625 5.875 4.480469 C 5.921875 4.253906 5.921875 4.253906 5.96875 4.207031 C 6.003906 4.183594 6.042969 4.183594 6.085938 4.179688 C 6.125 4.171875 6.164062 4.160156 6.203125 4.148438 C 6.226562 4.136719 6.25 4.132812 6.277344 4.125 C 6.285156 4.121094 6.296875 4.121094 6.304688 4.117188 C 6.308594 4.113281 6.316406 4.113281 6.320312 4.109375 C 6.339844 4.105469 6.359375 4.097656 6.378906 4.09375 C 6.398438 4.085938 6.417969 4.082031 6.4375 4.074219 C 6.449219 4.070312 6.457031 4.070312 6.464844 4.066406 C 6.480469 4.0625 6.492188 4.058594 6.503906 4.054688 C 6.511719 4.054688 6.519531 4.050781 6.527344 4.050781 C 6.542969 4.042969 6.542969 4.042969 6.558594 4.042969 Z M 6.558594 4.042969 "/>
<path style=" stroke:none;fill-rule:nonzero;fill:rgb(62.352943%,45.09804%,69.803923%);fill-opacity:1;" d="M 3.441406 4.042969 C 3.5 4.054688 3.558594 4.070312 3.613281 4.089844 C 3.621094 4.09375 3.632812 4.09375 3.644531 4.097656 C 3.671875 4.105469 3.695312 4.113281 3.722656 4.121094 C 3.753906 4.132812 3.789062 4.140625 3.820312 4.152344 C 3.84375 4.160156 3.867188 4.164062 3.894531 4.171875 C 3.898438 4.175781 3.902344 4.175781 3.90625 4.175781 C 3.914062 4.179688 3.925781 4.183594 3.933594 4.1875 C 3.953125 4.191406 3.972656 4.199219 3.992188 4.203125 C 3.996094 4.203125 4.003906 4.203125 4.011719 4.207031 C 4.015625 4.207031 4.023438 4.207031 4.027344 4.210938 C 4.046875 4.222656 4.054688 4.234375 4.0625 4.261719 C 4.066406 4.277344 4.070312 4.296875 4.074219 4.316406 C 4.078125 4.320312 4.078125 4.328125 4.082031 4.332031 C 4.085938 4.351562 4.089844 4.371094 4.09375 4.386719 C 4.097656 4.402344 4.101562 4.414062 4.105469 4.425781 C 4.113281 4.453125 4.121094 4.476562 4.125 4.503906 C 4.132812 4.539062 4.144531 4.570312 4.152344 4.605469 C 4.160156 4.632812 4.164062 4.660156 4.171875 4.683594 C 4.175781 4.695312 4.179688 4.710938 4.183594 4.722656 C 4.1875 4.738281 4.191406 4.757812 4.195312 4.773438 C 4.195312 4.78125 4.199219 4.785156 4.199219 4.789062 C 4.207031 4.816406 4.214844 4.84375 4.21875 4.871094 C 4.128906 4.847656 4.042969 4.808594 3.957031 4.773438 C 3.929688 4.761719 3.902344 4.75 3.871094 4.734375 C 3.84375 4.726562 3.816406 4.714844 3.789062 4.703125 C 3.777344 4.699219 3.765625 4.691406 3.753906 4.6875 C 3.664062 4.652344 3.664062 4.652344 3.640625 4.605469 C 3.636719 4.59375 3.632812 4.582031 3.632812 4.566406 C 3.628906 4.554688 3.621094 4.542969 3.617188 4.53125 C 3.613281 4.519531 3.609375 4.507812 3.605469 4.496094 C 3.601562 4.488281 3.601562 4.480469 3.597656 4.476562 C 3.59375 4.460938 3.589844 4.449219 3.582031 4.433594 C 3.570312 4.398438 3.558594 4.363281 3.542969 4.328125 C 3.542969 4.320312 3.539062 4.3125 3.539062 4.304688 C 3.511719 4.238281 3.488281 4.171875 3.460938 4.109375 C 3.460938 4.101562 3.457031 4.09375 3.453125 4.089844 C 3.453125 4.078125 3.453125 4.078125 3.449219 4.070312 C 3.441406 4.058594 3.441406 4.058594 3.441406 4.042969 Z M 3.441406 4.042969 "/>
<path style=" stroke:none;fill-rule:nonzero;fill:rgb(62.352943%,45.09804%,69.803923%);fill-opacity:1;" d="M 4.21875 1.535156 C 4.207031 1.601562 4.1875 1.664062 4.171875 1.730469 C 4.167969 1.738281 4.164062 1.75 4.160156 1.765625 C 4.15625 1.789062 4.148438 1.8125 4.140625 1.839844 C 4.132812 1.871094 4.125 1.902344 4.117188 1.933594 C 4.109375 1.960938 4.101562 1.984375 4.097656 2.011719 C 4.09375 2.019531 4.09375 2.03125 4.089844 2.046875 C 4.085938 2.0625 4.078125 2.078125 4.074219 2.09375 C 4.074219 2.101562 4.074219 2.101562 4.070312 2.109375 C 4.066406 2.121094 4.0625 2.132812 4.0625 2.148438 C 4.058594 2.15625 4.058594 2.15625 4.058594 2.167969 C 4.042969 2.191406 4.023438 2.195312 4 2.199219 C 3.996094 2.199219 3.992188 2.203125 3.988281 2.203125 C 3.96875 2.207031 3.953125 2.214844 3.9375 2.21875 C 3.925781 2.222656 3.914062 2.226562 3.90625 2.230469 C 3.875 2.238281 3.847656 2.246094 3.816406 2.253906 C 3.785156 2.261719 3.757812 2.273438 3.726562 2.28125 C 3.675781 2.296875 3.628906 2.308594 3.582031 2.324219 C 3.558594 2.332031 3.539062 2.335938 3.519531 2.34375 C 3.511719 2.34375 3.507812 2.347656 3.5 2.347656 C 3.492188 2.347656 3.488281 2.351562 3.484375 2.355469 C 3.46875 2.355469 3.457031 2.355469 3.441406 2.347656 C 3.449219 2.335938 3.453125 2.320312 3.460938 2.304688 C 3.464844 2.292969 3.46875 2.277344 3.476562 2.265625 C 3.488281 2.226562 3.503906 2.191406 3.515625 2.152344 C 3.550781 2.054688 3.550781 2.054688 3.585938 1.957031 C 3.59375 1.933594 3.601562 1.914062 3.609375 1.890625 C 3.613281 1.878906 3.617188 1.871094 3.621094 1.859375 C 3.625 1.84375 3.632812 1.828125 3.636719 1.816406 C 3.640625 1.804688 3.640625 1.804688 3.644531 1.792969 C 3.664062 1.761719 3.691406 1.75 3.722656 1.734375 C 3.730469 1.734375 3.734375 1.730469 3.742188 1.730469 C 3.761719 1.71875 3.78125 1.710938 3.800781 1.703125 C 3.808594 1.699219 3.816406 1.695312 3.824219 1.695312 C 3.84375 1.683594 3.867188 1.671875 3.890625 1.664062 C 3.914062 1.652344 3.9375 1.644531 3.960938 1.636719 C 3.972656 1.628906 3.988281 1.625 4.003906 1.617188 C 4.039062 1.601562 4.070312 1.589844 4.105469 1.570312 C 4.117188 1.566406 4.117188 1.566406 4.125 1.5625 C 4.136719 1.558594 4.148438 1.554688 4.160156 1.550781 C 4.195312 1.535156 4.195312 1.535156 4.21875 1.535156 Z M 4.21875 1.535156 "/>
<path style=" stroke:none;fill-rule:nonzero;fill:rgb(62.352943%,45.09804%,69.803923%);fill-opacity:1;" d="M 5.789062 1.535156 C 5.820312 1.539062 5.84375 1.546875 5.871094 1.558594 C 5.878906 1.5625 5.882812 1.5625 5.886719 1.566406 C 5.933594 1.582031 5.980469 1.601562 6.023438 1.617188 C 6.054688 1.632812 6.085938 1.640625 6.117188 1.65625 C 6.332031 1.734375 6.332031 1.734375 6.371094 1.804688 C 6.390625 1.84375 6.398438 1.886719 6.40625 1.925781 C 6.417969 1.96875 6.433594 2.011719 6.453125 2.054688 C 6.457031 2.070312 6.464844 2.085938 6.46875 2.101562 C 6.480469 2.128906 6.488281 2.15625 6.5 2.179688 C 6.507812 2.203125 6.519531 2.230469 6.527344 2.257812 C 6.53125 2.265625 6.535156 2.269531 6.535156 2.277344 C 6.539062 2.285156 6.542969 2.292969 6.542969 2.300781 C 6.546875 2.308594 6.550781 2.3125 6.550781 2.320312 C 6.558594 2.335938 6.558594 2.335938 6.558594 2.355469 C 6.519531 2.351562 6.488281 2.34375 6.453125 2.335938 C 6.449219 2.332031 6.441406 2.332031 6.4375 2.332031 C 6.421875 2.328125 6.40625 2.320312 6.390625 2.316406 C 6.378906 2.3125 6.367188 2.308594 6.355469 2.304688 C 6.332031 2.300781 6.308594 2.292969 6.285156 2.285156 C 6.257812 2.273438 6.226562 2.265625 6.199219 2.257812 C 6.171875 2.25 6.152344 2.242188 6.128906 2.234375 C 6.117188 2.234375 6.105469 2.230469 6.09375 2.226562 C 6.078125 2.222656 6.0625 2.21875 6.050781 2.210938 C 6.046875 2.210938 6.039062 2.207031 6.035156 2.207031 C 6.023438 2.203125 6.011719 2.199219 5.996094 2.195312 C 5.988281 2.195312 5.980469 2.191406 5.972656 2.1875 C 5.949219 2.171875 5.945312 2.164062 5.9375 2.136719 C 5.9375 2.132812 5.933594 2.128906 5.933594 2.121094 C 5.933594 2.117188 5.929688 2.109375 5.929688 2.105469 C 5.925781 2.089844 5.921875 2.070312 5.914062 2.050781 C 5.910156 2.039062 5.910156 2.027344 5.90625 2.015625 C 5.898438 1.980469 5.886719 1.949219 5.878906 1.917969 C 5.875 1.890625 5.867188 1.863281 5.859375 1.835938 C 5.851562 1.804688 5.84375 1.773438 5.835938 1.742188 C 5.832031 1.734375 5.832031 1.730469 5.832031 1.722656 C 5.816406 1.660156 5.800781 1.597656 5.789062 1.535156 Z M 5.789062 1.535156 "/>
<path style=" stroke:none;fill-rule:nonzero;fill:rgb(62.352943%,45.09804%,69.803923%);fill-opacity:1;" d="M 5.75 1.566406 C 5.753906 1.566406 5.757812 1.566406 5.761719 1.566406 C 5.78125 1.640625 5.804688 1.714844 5.820312 1.789062 C 5.832031 1.820312 5.839844 1.855469 5.847656 1.890625 C 5.859375 1.921875 5.867188 1.957031 5.875 1.988281 C 5.878906 2.003906 5.882812 2.015625 5.882812 2.027344 C 5.890625 2.046875 5.894531 2.0625 5.898438 2.082031 C 5.898438 2.089844 5.898438 2.089844 5.902344 2.097656 C 5.90625 2.109375 5.910156 2.125 5.914062 2.140625 C 5.914062 2.144531 5.914062 2.152344 5.917969 2.15625 C 5.921875 2.171875 5.921875 2.1875 5.921875 2.203125 C 5.902344 2.230469 5.878906 2.253906 5.859375 2.277344 C 5.851562 2.285156 5.84375 2.292969 5.839844 2.296875 C 5.820312 2.316406 5.804688 2.335938 5.785156 2.355469 C 5.765625 2.375 5.746094 2.398438 5.726562 2.414062 C 5.695312 2.449219 5.664062 2.484375 5.632812 2.515625 C 5.585938 2.566406 5.542969 2.613281 5.5 2.660156 C 5.46875 2.691406 5.433594 2.726562 5.40625 2.757812 C 5.398438 2.765625 5.390625 2.777344 5.382812 2.785156 C 5.359375 2.804688 5.339844 2.828125 5.316406 2.851562 C 5.3125 2.859375 5.304688 2.867188 5.296875 2.871094 C 5.289062 2.882812 5.28125 2.890625 5.269531 2.902344 C 5.265625 2.90625 5.261719 2.910156 5.257812 2.917969 C 5.242188 2.929688 5.242188 2.929688 5.230469 2.929688 C 5.246094 2.867188 5.265625 2.8125 5.289062 2.757812 C 5.300781 2.726562 5.3125 2.699219 5.324219 2.671875 C 5.324219 2.664062 5.328125 2.65625 5.332031 2.652344 C 5.359375 2.578125 5.386719 2.507812 5.414062 2.433594 C 5.421875 2.417969 5.425781 2.40625 5.429688 2.394531 C 5.4375 2.375 5.445312 2.351562 5.453125 2.332031 C 5.480469 2.265625 5.507812 2.195312 5.535156 2.125 C 5.539062 2.121094 5.539062 2.113281 5.542969 2.109375 C 5.585938 1.992188 5.628906 1.878906 5.675781 1.765625 C 5.691406 1.722656 5.707031 1.679688 5.722656 1.636719 C 5.730469 1.625 5.734375 1.609375 5.742188 1.597656 C 5.742188 1.589844 5.742188 1.589844 5.746094 1.582031 C 5.746094 1.574219 5.75 1.570312 5.75 1.566406 Z M 5.75 1.566406 "/>
<path style=" stroke:none;fill-rule:nonzero;fill:rgb(62.352943%,45.09804%,69.803923%);fill-opacity:1;" d="M 5.230469 3.480469 C 5.253906 3.488281 5.269531 3.503906 5.285156 3.523438 C 5.289062 3.527344 5.296875 3.53125 5.300781 3.539062 C 5.308594 3.542969 5.3125 3.550781 5.320312 3.558594 C 5.328125 3.566406 5.332031 3.570312 5.339844 3.578125 C 5.359375 3.601562 5.382812 3.625 5.40625 3.648438 C 5.410156 3.65625 5.417969 3.664062 5.425781 3.671875 C 5.457031 3.703125 5.488281 3.738281 5.519531 3.769531 C 5.5625 3.816406 5.605469 3.859375 5.652344 3.910156 C 5.679688 3.941406 5.710938 3.972656 5.742188 4.007812 C 5.761719 4.027344 5.78125 4.046875 5.800781 4.066406 C 5.816406 4.085938 5.832031 4.101562 5.851562 4.121094 C 5.855469 4.128906 5.863281 4.132812 5.871094 4.140625 C 5.917969 4.191406 5.917969 4.191406 5.921875 4.21875 C 5.921875 4.238281 5.917969 4.25 5.914062 4.265625 C 5.910156 4.269531 5.910156 4.277344 5.910156 4.28125 C 5.90625 4.296875 5.902344 4.308594 5.898438 4.324219 C 5.898438 4.332031 5.898438 4.335938 5.894531 4.34375 C 5.890625 4.359375 5.882812 4.378906 5.878906 4.394531 C 5.875 4.410156 5.871094 4.421875 5.871094 4.433594 C 5.859375 4.464844 5.851562 4.5 5.84375 4.53125 C 5.835938 4.566406 5.824219 4.597656 5.816406 4.632812 C 5.800781 4.699219 5.78125 4.765625 5.761719 4.832031 C 5.742188 4.824219 5.742188 4.824219 5.734375 4.800781 C 5.730469 4.792969 5.726562 4.78125 5.722656 4.773438 C 5.722656 4.765625 5.71875 4.761719 5.71875 4.757812 C 5.710938 4.738281 5.703125 4.722656 5.695312 4.703125 C 5.691406 4.691406 5.6875 4.679688 5.683594 4.664062 C 5.675781 4.648438 5.667969 4.628906 5.660156 4.609375 C 5.640625 4.554688 5.621094 4.5 5.597656 4.445312 C 5.589844 4.417969 5.578125 4.394531 5.570312 4.367188 C 5.566406 4.363281 5.566406 4.355469 5.5625 4.351562 C 5.535156 4.28125 5.507812 4.210938 5.480469 4.140625 C 5.445312 4.042969 5.40625 3.945312 5.367188 3.847656 C 5.359375 3.832031 5.355469 3.8125 5.347656 3.796875 C 5.328125 3.746094 5.3125 3.699219 5.289062 3.648438 C 5.28125 3.628906 5.277344 3.609375 5.269531 3.589844 C 5.261719 3.578125 5.257812 3.566406 5.253906 3.550781 C 5.25 3.539062 5.25 3.539062 5.246094 3.527344 C 5.242188 3.523438 5.238281 3.515625 5.234375 3.507812 C 5.230469 3.492188 5.230469 3.492188 5.230469 3.480469 Z M 5.230469 3.480469 "/>
<path style=" stroke:none;fill-rule:nonzero;fill:rgb(62.352943%,45.09804%,69.803923%);fill-opacity:1;" d="M 4.242188 1.566406 C 4.257812 1.582031 4.265625 1.597656 4.273438 1.617188 C 4.277344 1.625 4.277344 1.628906 4.28125 1.636719 C 4.285156 1.640625 4.285156 1.648438 4.289062 1.65625 C 4.292969 1.664062 4.292969 1.664062 4.296875 1.675781 C 4.304688 1.695312 4.3125 1.71875 4.320312 1.738281 C 4.328125 1.753906 4.335938 1.769531 4.339844 1.785156 C 4.351562 1.816406 4.363281 1.847656 4.375 1.878906 C 4.390625 1.917969 4.40625 1.957031 4.421875 1.996094 C 4.421875 2.003906 4.425781 2.011719 4.429688 2.015625 C 4.433594 2.027344 4.4375 2.039062 4.441406 2.050781 C 4.488281 2.171875 4.53125 2.292969 4.578125 2.410156 C 4.605469 2.476562 4.632812 2.542969 4.65625 2.609375 C 4.664062 2.625 4.667969 2.636719 4.671875 2.648438 C 4.683594 2.671875 4.691406 2.695312 4.699219 2.722656 C 4.726562 2.789062 4.75 2.859375 4.773438 2.929688 C 4.753906 2.917969 4.738281 2.902344 4.722656 2.886719 C 4.714844 2.878906 4.710938 2.875 4.703125 2.867188 C 4.699219 2.863281 4.691406 2.855469 4.683594 2.847656 C 4.679688 2.839844 4.671875 2.835938 4.664062 2.828125 C 4.605469 2.765625 4.542969 2.699219 4.484375 2.636719 C 4.441406 2.589844 4.394531 2.542969 4.351562 2.496094 C 4.320312 2.464844 4.289062 2.433594 4.257812 2.398438 C 4.238281 2.378906 4.21875 2.359375 4.199219 2.339844 C 4.085938 2.222656 4.085938 2.222656 4.074219 2.179688 C 4.074219 2.148438 4.085938 2.125 4.101562 2.097656 C 4.109375 2.074219 4.117188 2.050781 4.121094 2.027344 C 4.125 2.015625 4.125 2.007812 4.128906 1.996094 C 4.132812 1.988281 4.132812 1.988281 4.132812 1.980469 C 4.132812 1.976562 4.136719 1.972656 4.136719 1.964844 C 4.140625 1.953125 4.144531 1.945312 4.144531 1.933594 C 4.152344 1.910156 4.15625 1.886719 4.164062 1.867188 C 4.171875 1.835938 4.179688 1.808594 4.1875 1.777344 C 4.191406 1.75 4.199219 1.722656 4.207031 1.695312 C 4.210938 1.6875 4.210938 1.6875 4.214844 1.679688 C 4.21875 1.664062 4.21875 1.652344 4.222656 1.636719 C 4.226562 1.628906 4.226562 1.617188 4.230469 1.609375 C 4.234375 1.597656 4.238281 1.582031 4.242188 1.566406 Z M 4.242188 1.566406 "/>
<path style=" stroke:none;fill-rule:nonzero;fill:rgb(62.352943%,45.09804%,69.803923%);fill-opacity:1;" d="M 5.257812 3.445312 C 5.328125 3.472656 5.398438 3.503906 5.46875 3.535156 C 5.503906 3.550781 5.53125 3.5625 5.5625 3.574219 C 5.570312 3.578125 5.574219 3.582031 5.582031 3.585938 C 5.652344 3.617188 5.722656 3.644531 5.789062 3.675781 C 5.804688 3.683594 5.816406 3.6875 5.828125 3.695312 C 5.847656 3.703125 5.867188 3.710938 5.882812 3.71875 C 5.949219 3.746094 6.011719 3.777344 6.078125 3.804688 C 6.085938 3.808594 6.085938 3.808594 6.09375 3.8125 C 6.183594 3.851562 6.273438 3.890625 6.363281 3.929688 C 6.367188 3.933594 6.371094 3.9375 6.378906 3.9375 C 6.386719 3.945312 6.394531 3.945312 6.402344 3.949219 C 6.421875 3.960938 6.441406 3.96875 6.464844 3.976562 C 6.46875 3.980469 6.476562 3.984375 6.484375 3.988281 C 6.492188 3.988281 6.496094 3.992188 6.503906 3.992188 C 6.519531 4 6.519531 4 6.523438 4.015625 C 6.414062 4.054688 6.300781 4.089844 6.1875 4.121094 C 6.167969 4.128906 6.148438 4.132812 6.128906 4.140625 C 6.105469 4.148438 6.085938 4.15625 6.058594 4.160156 C 6.050781 4.164062 6.042969 4.167969 6.035156 4.167969 C 6.023438 4.171875 6.007812 4.175781 5.996094 4.179688 C 5.992188 4.183594 5.984375 4.183594 5.976562 4.1875 C 5.957031 4.191406 5.949219 4.191406 5.933594 4.183594 C 5.917969 4.171875 5.917969 4.171875 5.902344 4.15625 C 5.898438 4.148438 5.894531 4.140625 5.886719 4.136719 C 5.878906 4.128906 5.875 4.125 5.867188 4.117188 C 5.859375 4.109375 5.855469 4.101562 5.847656 4.09375 C 5.828125 4.074219 5.8125 4.054688 5.792969 4.035156 C 5.777344 4.015625 5.753906 3.996094 5.738281 3.976562 C 5.707031 3.941406 5.675781 3.910156 5.640625 3.875 C 5.605469 3.832031 5.570312 3.792969 5.53125 3.753906 C 5.496094 3.714844 5.460938 3.679688 5.425781 3.640625 C 5.410156 3.625 5.394531 3.609375 5.382812 3.59375 C 5.363281 3.574219 5.347656 3.554688 5.328125 3.535156 C 5.320312 3.53125 5.316406 3.523438 5.308594 3.515625 C 5.300781 3.503906 5.289062 3.496094 5.28125 3.488281 C 5.277344 3.480469 5.273438 3.476562 5.265625 3.46875 C 5.257812 3.457031 5.257812 3.457031 5.257812 3.445312 Z M 5.257812 3.445312 "/>
<path style=" stroke:none;fill-rule:nonzero;fill:rgb(62.352943%,45.09804%,69.803923%);fill-opacity:1;" d="M 5.550781 1.484375 C 5.546875 1.492188 5.542969 1.496094 5.542969 1.503906 C 5.492188 1.628906 5.441406 1.753906 5.398438 1.878906 C 5.363281 1.964844 5.332031 2.050781 5.296875 2.136719 C 5.257812 2.234375 5.21875 2.335938 5.179688 2.433594 C 5.179688 2.441406 5.175781 2.449219 5.171875 2.453125 C 5.15625 2.496094 5.144531 2.535156 5.128906 2.574219 C 5.121094 2.59375 5.113281 2.613281 5.105469 2.628906 C 5.078125 2.695312 5.054688 2.761719 5.027344 2.832031 C 5.023438 2.832031 5.019531 2.832031 5.015625 2.832031 C 5.015625 2.484375 5.015625 2.140625 5.015625 1.785156 C 5.109375 1.730469 5.109375 1.730469 5.203125 1.671875 C 5.292969 1.621094 5.292969 1.621094 5.378906 1.566406 C 5.398438 1.554688 5.417969 1.542969 5.4375 1.53125 C 5.445312 1.527344 5.453125 1.523438 5.460938 1.519531 C 5.472656 1.511719 5.484375 1.503906 5.496094 1.496094 C 5.5 1.492188 5.507812 1.488281 5.511719 1.484375 C 5.53125 1.476562 5.53125 1.476562 5.550781 1.484375 Z M 5.550781 1.484375 "/>
<path style=" stroke:none;fill-rule:nonzero;fill:rgb(62.352943%,45.09804%,69.803923%);fill-opacity:1;" d="M 4.066406 2.214844 C 4.082031 2.230469 4.082031 2.230469 4.097656 2.242188 C 4.101562 2.25 4.109375 2.257812 4.113281 2.261719 C 4.121094 2.269531 4.128906 2.277344 4.132812 2.285156 C 4.140625 2.292969 4.148438 2.296875 4.152344 2.304688 C 4.171875 2.328125 4.191406 2.34375 4.210938 2.367188 C 4.226562 2.382812 4.246094 2.40625 4.265625 2.425781 C 4.300781 2.464844 4.335938 2.503906 4.375 2.542969 C 4.414062 2.585938 4.457031 2.628906 4.496094 2.675781 C 4.582031 2.765625 4.664062 2.859375 4.75 2.949219 C 4.722656 2.960938 4.703125 2.945312 4.679688 2.933594 C 4.675781 2.933594 4.667969 2.929688 4.664062 2.929688 C 4.648438 2.917969 4.628906 2.910156 4.613281 2.902344 C 4.601562 2.898438 4.589844 2.894531 4.578125 2.890625 C 4.550781 2.875 4.527344 2.867188 4.5 2.855469 C 4.449219 2.832031 4.398438 2.808594 4.347656 2.785156 C 4.320312 2.773438 4.292969 2.761719 4.265625 2.75 C 4.253906 2.742188 4.242188 2.738281 4.230469 2.734375 C 4.210938 2.722656 4.1875 2.714844 4.164062 2.703125 C 4.15625 2.699219 4.15625 2.699219 4.148438 2.695312 C 4.136719 2.691406 4.125 2.6875 4.113281 2.683594 C 4.085938 2.667969 4.058594 2.65625 4.03125 2.644531 C 3.980469 2.621094 3.929688 2.601562 3.878906 2.578125 C 3.859375 2.570312 3.84375 2.558594 3.828125 2.554688 C 3.804688 2.542969 3.78125 2.535156 3.757812 2.523438 C 3.707031 2.503906 3.660156 2.480469 3.609375 2.457031 C 3.601562 2.453125 3.59375 2.449219 3.582031 2.445312 C 3.570312 2.441406 3.554688 2.433594 3.539062 2.429688 C 3.53125 2.425781 3.523438 2.421875 3.519531 2.417969 C 3.511719 2.417969 3.507812 2.414062 3.503906 2.414062 C 3.488281 2.40625 3.488281 2.40625 3.480469 2.382812 C 3.554688 2.363281 3.625 2.339844 3.695312 2.320312 C 3.730469 2.308594 3.761719 2.300781 3.796875 2.289062 C 3.828125 2.277344 3.859375 2.269531 3.890625 2.257812 C 3.90625 2.257812 3.917969 2.25 3.929688 2.246094 C 3.945312 2.242188 3.964844 2.238281 3.980469 2.230469 C 3.984375 2.230469 3.992188 2.230469 3.996094 2.226562 C 4.042969 2.214844 4.042969 2.214844 4.066406 2.214844 Z M 4.066406 2.214844 "/>
<path style=" stroke:none;fill-rule:nonzero;fill:rgb(62.352943%,45.09804%,69.803923%);fill-opacity:1;" d="M 5.015625 3.570312 C 5.03125 3.585938 5.039062 3.597656 5.046875 3.617188 C 5.050781 3.621094 5.050781 3.628906 5.054688 3.632812 C 5.054688 3.640625 5.058594 3.644531 5.058594 3.652344 C 5.0625 3.660156 5.066406 3.664062 5.070312 3.671875 C 5.078125 3.691406 5.082031 3.710938 5.09375 3.734375 C 5.097656 3.75 5.101562 3.761719 5.109375 3.777344 C 5.121094 3.808594 5.132812 3.839844 5.144531 3.867188 C 5.164062 3.921875 5.1875 3.980469 5.207031 4.035156 C 5.21875 4.066406 5.230469 4.09375 5.242188 4.125 C 5.246094 4.128906 5.246094 4.136719 5.25 4.140625 C 5.28125 4.226562 5.3125 4.308594 5.347656 4.394531 C 5.351562 4.410156 5.355469 4.421875 5.359375 4.4375 C 5.363281 4.441406 5.367188 4.449219 5.371094 4.453125 C 5.386719 4.5 5.402344 4.542969 5.417969 4.582031 C 5.429688 4.613281 5.441406 4.640625 5.453125 4.671875 C 5.457031 4.6875 5.464844 4.699219 5.46875 4.710938 C 5.496094 4.785156 5.523438 4.855469 5.550781 4.929688 C 5.527344 4.925781 5.511719 4.914062 5.492188 4.90625 C 5.484375 4.902344 5.480469 4.898438 5.472656 4.894531 C 5.46875 4.890625 5.460938 4.886719 5.453125 4.878906 C 5.445312 4.878906 5.4375 4.875 5.433594 4.871094 C 5.378906 4.839844 5.328125 4.808594 5.277344 4.773438 C 5.238281 4.753906 5.203125 4.734375 5.171875 4.710938 C 5.167969 4.710938 5.160156 4.707031 5.15625 4.703125 C 5.136719 4.695312 5.121094 4.683594 5.101562 4.667969 C 5.09375 4.664062 5.085938 4.660156 5.078125 4.65625 C 5.074219 4.652344 5.066406 4.652344 5.058594 4.648438 C 5.054688 4.644531 5.046875 4.640625 5.042969 4.636719 C 5.039062 4.632812 5.03125 4.628906 5.027344 4.628906 C 5.015625 4.617188 5.015625 4.617188 5.011719 4.59375 C 5.011719 4.589844 5.011719 4.582031 5.011719 4.574219 C 5.011719 4.5625 5.011719 4.554688 5.011719 4.546875 C 5.011719 4.535156 5.011719 4.527344 5.011719 4.515625 C 5.011719 4.507812 5.011719 4.496094 5.011719 4.484375 C 5.011719 4.457031 5.011719 4.429688 5.011719 4.402344 C 5.011719 4.371094 5.011719 4.34375 5.015625 4.3125 C 5.015625 4.257812 5.015625 4.203125 5.015625 4.148438 C 5.015625 4.085938 5.015625 4.023438 5.015625 3.957031 C 5.015625 3.828125 5.015625 3.699219 5.015625 3.570312 Z M 5.015625 3.570312 "/>
<path style=" stroke:none;fill-rule:nonzero;fill:rgb(62.352943%,45.09804%,69.803923%);fill-opacity:1;" d="M 3.390625 2.621094 C 3.421875 2.625 3.445312 2.632812 3.476562 2.648438 C 3.480469 2.648438 3.484375 2.652344 3.488281 2.652344 C 3.496094 2.65625 3.507812 2.660156 3.515625 2.664062 C 3.539062 2.675781 3.558594 2.683594 3.578125 2.695312 C 3.589844 2.699219 3.601562 2.703125 3.613281 2.707031 C 3.671875 2.734375 3.730469 2.761719 3.792969 2.789062 C 3.824219 2.804688 3.855469 2.820312 3.886719 2.832031 C 3.894531 2.835938 3.902344 2.835938 3.90625 2.839844 C 4 2.882812 4.089844 2.921875 4.179688 2.960938 C 4.226562 2.980469 4.273438 3.003906 4.316406 3.023438 C 4.347656 3.035156 4.375 3.046875 4.402344 3.0625 C 4.46875 3.089844 4.46875 3.089844 4.535156 3.117188 C 4.546875 3.125 4.558594 3.128906 4.570312 3.136719 C 4.582031 3.140625 4.597656 3.144531 4.609375 3.152344 C 4.617188 3.15625 4.617188 3.15625 4.625 3.160156 C 4.632812 3.160156 4.636719 3.164062 4.640625 3.164062 C 4.652344 3.171875 4.652344 3.171875 4.65625 3.1875 C 4.53125 3.1875 4.40625 3.1875 4.28125 3.1875 C 4.21875 3.1875 4.160156 3.191406 4.101562 3.191406 C 4.054688 3.191406 4 3.191406 3.949219 3.191406 C 3.921875 3.191406 3.894531 3.191406 3.867188 3.191406 C 3.84375 3.191406 3.816406 3.191406 3.792969 3.191406 C 3.785156 3.191406 3.773438 3.191406 3.761719 3.191406 C 3.734375 3.195312 3.710938 3.195312 3.683594 3.1875 C 3.664062 3.164062 3.65625 3.144531 3.644531 3.117188 C 3.640625 3.109375 3.636719 3.101562 3.632812 3.09375 C 3.628906 3.085938 3.628906 3.082031 3.621094 3.074219 C 3.617188 3.0625 3.617188 3.0625 3.609375 3.050781 C 3.605469 3.042969 3.601562 3.035156 3.597656 3.027344 C 3.589844 3.011719 3.582031 2.996094 3.574219 2.976562 C 3.570312 2.972656 3.570312 2.96875 3.566406 2.964844 C 3.546875 2.925781 3.523438 2.882812 3.503906 2.84375 C 3.476562 2.792969 3.449219 2.742188 3.421875 2.6875 C 3.417969 2.679688 3.417969 2.679688 3.414062 2.671875 C 3.410156 2.664062 3.40625 2.660156 3.402344 2.652344 C 3.402344 2.648438 3.398438 2.644531 3.398438 2.640625 C 3.390625 2.628906 3.390625 2.628906 3.390625 2.621094 Z M 3.390625 2.621094 "/>
<path style=" stroke:none;fill-rule:nonzero;fill:rgb(62.352943%,45.09804%,69.803923%);fill-opacity:1;" d="M 6.613281 2.628906 C 6.554688 2.742188 6.496094 2.855469 6.4375 2.96875 C 6.429688 2.988281 6.417969 3.007812 6.40625 3.027344 C 6.402344 3.039062 6.394531 3.050781 6.390625 3.066406 C 6.382812 3.078125 6.371094 3.09375 6.363281 3.109375 C 6.363281 3.117188 6.359375 3.121094 6.355469 3.128906 C 6.347656 3.140625 6.347656 3.140625 6.34375 3.148438 C 6.335938 3.160156 6.328125 3.175781 6.324219 3.1875 C 6.304688 3.1875 6.304688 3.1875 6.285156 3.1875 C 6.273438 3.1875 6.273438 3.1875 6.257812 3.1875 C 6.25 3.1875 6.242188 3.1875 6.230469 3.1875 C 6.21875 3.1875 6.210938 3.1875 6.203125 3.1875 C 6.175781 3.1875 6.148438 3.1875 6.125 3.1875 C 6.09375 3.1875 6.066406 3.1875 6.039062 3.1875 C 5.988281 3.1875 5.9375 3.1875 5.882812 3.1875 C 5.824219 3.1875 5.765625 3.1875 5.707031 3.1875 C 5.585938 3.1875 5.464844 3.1875 5.34375 3.1875 C 5.363281 3.164062 5.390625 3.152344 5.417969 3.140625 C 5.425781 3.136719 5.425781 3.136719 5.433594 3.136719 C 5.449219 3.125 5.46875 3.117188 5.484375 3.113281 C 5.5 3.105469 5.507812 3.101562 5.523438 3.097656 C 5.546875 3.085938 5.570312 3.074219 5.597656 3.0625 C 5.648438 3.039062 5.699219 3.015625 5.75 2.996094 C 5.777344 2.980469 5.804688 2.96875 5.832031 2.957031 C 5.871094 2.941406 5.910156 2.925781 5.949219 2.90625 C 5.976562 2.894531 6.003906 2.882812 6.03125 2.871094 C 6.035156 2.867188 6.042969 2.863281 6.046875 2.863281 C 6.113281 2.832031 6.179688 2.804688 6.246094 2.773438 C 6.25 2.769531 6.257812 2.769531 6.265625 2.765625 C 6.296875 2.753906 6.328125 2.734375 6.363281 2.722656 C 6.367188 2.71875 6.371094 2.71875 6.378906 2.714844 C 6.390625 2.710938 6.402344 2.703125 6.414062 2.699219 C 6.445312 2.6875 6.472656 2.671875 6.5 2.660156 C 6.511719 2.65625 6.511719 2.65625 6.519531 2.652344 C 6.527344 2.648438 6.539062 2.644531 6.550781 2.636719 C 6.554688 2.636719 6.558594 2.632812 6.566406 2.628906 C 6.570312 2.628906 6.574219 2.625 6.578125 2.625 C 6.589844 2.621094 6.601562 2.621094 6.613281 2.628906 Z M 6.613281 2.628906 "/>
<path style=" stroke:none;fill-rule:nonzero;fill:rgb(62.352943%,45.09804%,69.803923%);fill-opacity:1;" d="M 5.964844 2.214844 C 5.980469 2.21875 5.980469 2.21875 5.992188 2.222656 C 6 2.226562 6.007812 2.230469 6.015625 2.230469 C 6.027344 2.234375 6.035156 2.234375 6.046875 2.238281 C 6.054688 2.242188 6.054688 2.242188 6.058594 2.242188 C 6.078125 2.25 6.09375 2.253906 6.113281 2.257812 C 6.125 2.261719 6.132812 2.265625 6.144531 2.269531 C 6.171875 2.277344 6.195312 2.285156 6.21875 2.292969 C 6.25 2.300781 6.28125 2.3125 6.3125 2.320312 C 6.335938 2.328125 6.363281 2.335938 6.386719 2.34375 C 6.398438 2.34375 6.410156 2.347656 6.421875 2.351562 C 6.4375 2.359375 6.453125 2.363281 6.46875 2.367188 C 6.476562 2.371094 6.480469 2.371094 6.484375 2.371094 C 6.496094 2.375 6.507812 2.378906 6.519531 2.382812 C 6.519531 2.390625 6.523438 2.394531 6.523438 2.398438 C 6.390625 2.460938 6.25 2.523438 6.117188 2.582031 C 6.050781 2.613281 5.988281 2.640625 5.925781 2.667969 C 5.910156 2.671875 5.898438 2.679688 5.886719 2.683594 C 5.808594 2.71875 5.734375 2.753906 5.65625 2.785156 C 5.640625 2.792969 5.625 2.800781 5.605469 2.808594 C 5.558594 2.832031 5.507812 2.851562 5.457031 2.875 C 5.4375 2.882812 5.414062 2.894531 5.390625 2.902344 C 5.382812 2.910156 5.375 2.914062 5.363281 2.917969 C 5.347656 2.925781 5.332031 2.933594 5.320312 2.9375 C 5.316406 2.941406 5.3125 2.941406 5.308594 2.941406 C 5.277344 2.957031 5.277344 2.957031 5.257812 2.949219 C 5.34375 2.855469 5.433594 2.757812 5.519531 2.660156 C 5.5625 2.617188 5.601562 2.574219 5.644531 2.527344 C 5.679688 2.488281 5.714844 2.449219 5.75 2.414062 C 5.769531 2.394531 5.789062 2.371094 5.808594 2.351562 C 5.824219 2.332031 5.84375 2.3125 5.859375 2.292969 C 5.867188 2.285156 5.875 2.277344 5.878906 2.273438 C 5.9375 2.210938 5.9375 2.210938 5.964844 2.214844 Z M 5.964844 2.214844 "/>
<path style=" stroke:none;fill-rule:nonzero;fill:rgb(62.352943%,45.09804%,69.803923%);fill-opacity:1;" d="M 4.769531 3.472656 C 4.773438 3.480469 4.773438 3.480469 4.773438 3.488281 C 4.769531 3.5 4.765625 3.515625 4.761719 3.53125 C 4.757812 3.535156 4.753906 3.539062 4.753906 3.542969 C 4.75 3.554688 4.746094 3.566406 4.742188 3.574219 C 4.734375 3.597656 4.722656 3.621094 4.714844 3.644531 C 4.710938 3.65625 4.707031 3.667969 4.699219 3.679688 C 4.675781 3.746094 4.648438 3.808594 4.625 3.875 C 4.613281 3.910156 4.597656 3.945312 4.585938 3.976562 C 4.582031 3.984375 4.582031 3.988281 4.578125 3.996094 C 4.550781 4.066406 4.523438 4.136719 4.496094 4.203125 C 4.496094 4.210938 4.492188 4.214844 4.492188 4.222656 C 4.464844 4.285156 4.441406 4.347656 4.417969 4.410156 C 4.417969 4.414062 4.414062 4.417969 4.414062 4.421875 C 4.402344 4.449219 4.394531 4.476562 4.382812 4.503906 C 4.363281 4.554688 4.339844 4.609375 4.320312 4.660156 C 4.316406 4.671875 4.3125 4.683594 4.308594 4.695312 C 4.300781 4.71875 4.292969 4.738281 4.285156 4.757812 C 4.28125 4.769531 4.277344 4.777344 4.273438 4.789062 C 4.269531 4.796875 4.265625 4.804688 4.265625 4.8125 C 4.257812 4.832031 4.257812 4.832031 4.242188 4.835938 C 4.21875 4.757812 4.199219 4.679688 4.179688 4.597656 C 4.167969 4.5625 4.160156 4.523438 4.148438 4.488281 C 4.140625 4.453125 4.128906 4.417969 4.121094 4.382812 C 4.117188 4.367188 4.113281 4.355469 4.109375 4.339844 C 4.101562 4.324219 4.097656 4.304688 4.09375 4.28125 C 4.09375 4.277344 4.089844 4.273438 4.089844 4.265625 C 4.078125 4.230469 4.078125 4.230469 4.085938 4.210938 C 4.09375 4.195312 4.105469 4.179688 4.121094 4.164062 C 4.128906 4.15625 4.128906 4.15625 4.136719 4.148438 C 4.144531 4.140625 4.152344 4.132812 4.15625 4.128906 C 4.164062 4.121094 4.171875 4.113281 4.179688 4.105469 C 4.195312 4.085938 4.214844 4.066406 4.230469 4.046875 C 4.25 4.027344 4.269531 4.007812 4.289062 3.988281 C 4.324219 3.949219 4.359375 3.910156 4.394531 3.871094 C 4.4375 3.828125 4.476562 3.785156 4.519531 3.742188 C 4.601562 3.648438 4.6875 3.5625 4.769531 3.472656 Z M 4.769531 3.472656 "/>
<path style=" stroke:none;fill-rule:nonzero;fill:rgb(62.352943%,45.09804%,69.803923%);fill-opacity:1;" d="M 4.738281 3.445312 C 4.742188 3.445312 4.742188 3.445312 4.75 3.453125 C 4.664062 3.546875 4.574219 3.644531 4.488281 3.742188 C 4.445312 3.785156 4.402344 3.832031 4.363281 3.875 C 4.328125 3.914062 4.292969 3.953125 4.257812 3.992188 C 4.238281 4.015625 4.21875 4.035156 4.199219 4.054688 C 4.179688 4.074219 4.164062 4.09375 4.144531 4.113281 C 4.140625 4.121094 4.132812 4.128906 4.125 4.136719 C 4.105469 4.160156 4.089844 4.175781 4.0625 4.191406 C 4.023438 4.1875 3.992188 4.175781 3.957031 4.164062 C 3.945312 4.160156 3.9375 4.15625 3.925781 4.152344 C 3.914062 4.148438 3.914062 4.148438 3.902344 4.144531 C 3.898438 4.144531 3.894531 4.140625 3.890625 4.140625 C 3.875 4.136719 3.859375 4.132812 3.847656 4.128906 C 3.835938 4.125 3.824219 4.125 3.816406 4.121094 C 3.792969 4.113281 3.773438 4.105469 3.753906 4.101562 C 3.726562 4.09375 3.699219 4.085938 3.671875 4.078125 C 3.648438 4.070312 3.628906 4.0625 3.609375 4.058594 C 3.597656 4.054688 3.589844 4.050781 3.578125 4.050781 C 3.566406 4.042969 3.550781 4.039062 3.539062 4.035156 C 3.53125 4.03125 3.519531 4.03125 3.515625 4.027344 C 3.496094 4.023438 3.496094 4.023438 3.480469 4.015625 C 3.480469 4.011719 3.480469 4.007812 3.480469 4 C 3.492188 3.996094 3.492188 3.996094 3.507812 3.992188 C 3.640625 3.929688 3.78125 3.871094 3.917969 3.808594 C 3.921875 3.808594 3.925781 3.804688 3.933594 3.800781 C 3.972656 3.785156 4.007812 3.769531 4.046875 3.75 C 4.09375 3.730469 4.136719 3.710938 4.179688 3.691406 C 4.183594 3.691406 4.1875 3.6875 4.195312 3.683594 C 4.261719 3.65625 4.328125 3.628906 4.394531 3.597656 C 4.398438 3.59375 4.40625 3.59375 4.414062 3.589844 C 4.445312 3.574219 4.476562 3.558594 4.511719 3.542969 C 4.515625 3.542969 4.523438 3.539062 4.527344 3.539062 C 4.539062 3.53125 4.550781 3.527344 4.5625 3.523438 C 4.589844 3.507812 4.621094 3.496094 4.648438 3.484375 C 4.652344 3.480469 4.660156 3.476562 4.667969 3.472656 C 4.675781 3.46875 4.6875 3.464844 4.699219 3.460938 C 4.710938 3.453125 4.722656 3.449219 4.738281 3.445312 Z M 4.738281 3.445312 "/>
<path style=" stroke:none;fill-rule:nonzero;fill:rgb(62.352943%,45.09804%,69.803923%);fill-opacity:1;" d="M 5.347656 3.21875 C 5.667969 3.21875 5.992188 3.21875 6.324219 3.21875 C 6.410156 3.386719 6.410156 3.386719 6.449219 3.460938 C 6.484375 3.527344 6.519531 3.597656 6.554688 3.664062 C 6.574219 3.703125 6.597656 3.742188 6.613281 3.785156 C 6.582031 3.78125 6.554688 3.769531 6.523438 3.753906 C 6.519531 3.75 6.511719 3.746094 6.507812 3.746094 C 6.488281 3.738281 6.46875 3.726562 6.449219 3.71875 C 6.4375 3.714844 6.421875 3.707031 6.410156 3.703125 C 6.382812 3.691406 6.355469 3.675781 6.328125 3.664062 C 6.265625 3.640625 6.210938 3.613281 6.152344 3.585938 C 6.050781 3.542969 5.949219 3.5 5.847656 3.453125 C 5.84375 3.453125 5.839844 3.449219 5.832031 3.445312 C 5.777344 3.421875 5.71875 3.394531 5.664062 3.371094 C 5.640625 3.359375 5.617188 3.351562 5.589844 3.339844 C 5.582031 3.332031 5.570312 3.328125 5.558594 3.324219 C 5.542969 3.316406 5.527344 3.308594 5.507812 3.300781 C 5.503906 3.296875 5.503906 3.296875 5.496094 3.296875 C 5.46875 3.285156 5.445312 3.277344 5.421875 3.261719 C 5.414062 3.261719 5.414062 3.261719 5.410156 3.257812 C 5.398438 3.253906 5.382812 3.25 5.371094 3.242188 C 5.355469 3.234375 5.355469 3.234375 5.347656 3.21875 Z M 5.347656 3.21875 "/>
<path style=" stroke:none;fill-rule:nonzero;fill:rgb(62.352943%,45.09804%,69.803923%);fill-opacity:1;" d="M 3.675781 3.21875 C 4 3.21875 4.324219 3.21875 4.65625 3.21875 C 4.636719 3.242188 4.613281 3.253906 4.585938 3.261719 C 4.578125 3.265625 4.574219 3.269531 4.570312 3.269531 C 4.558594 3.277344 4.546875 3.28125 4.535156 3.285156 C 4.515625 3.292969 4.492188 3.304688 4.46875 3.316406 C 4.457031 3.320312 4.445312 3.324219 4.433594 3.328125 C 4.371094 3.355469 4.308594 3.386719 4.246094 3.410156 C 4.234375 3.417969 4.222656 3.421875 4.214844 3.425781 C 4.191406 3.4375 4.167969 3.445312 4.144531 3.457031 C 4.09375 3.480469 4.035156 3.503906 3.980469 3.53125 C 3.976562 3.53125 3.972656 3.535156 3.964844 3.535156 C 3.875 3.578125 3.78125 3.621094 3.6875 3.660156 C 3.683594 3.664062 3.675781 3.664062 3.671875 3.667969 C 3.636719 3.683594 3.601562 3.699219 3.566406 3.714844 C 3.546875 3.722656 3.527344 3.734375 3.507812 3.742188 C 3.492188 3.746094 3.480469 3.75 3.46875 3.757812 C 3.460938 3.761719 3.457031 3.761719 3.449219 3.765625 C 3.441406 3.769531 3.4375 3.773438 3.433594 3.773438 C 3.425781 3.777344 3.421875 3.777344 3.417969 3.78125 C 3.40625 3.785156 3.40625 3.785156 3.390625 3.785156 C 3.402344 3.742188 3.421875 3.707031 3.441406 3.671875 C 3.449219 3.65625 3.457031 3.640625 3.464844 3.628906 C 3.46875 3.621094 3.472656 3.613281 3.476562 3.605469 C 3.546875 3.476562 3.609375 3.351562 3.675781 3.21875 Z M 3.675781 3.21875 "/>
<path style=" stroke:none;fill-rule:nonzero;fill:rgb(62.352943%,45.09804%,69.803923%);fill-opacity:1;" d="M 4.976562 3.570312 C 4.980469 3.570312 4.980469 3.570312 4.984375 3.570312 C 4.984375 3.917969 4.984375 4.265625 4.984375 4.621094 C 4.9375 4.648438 4.890625 4.675781 4.839844 4.703125 C 4.816406 4.722656 4.792969 4.734375 4.765625 4.75 C 4.703125 4.789062 4.640625 4.828125 4.574219 4.867188 C 4.566406 4.871094 4.5625 4.875 4.554688 4.878906 C 4.542969 4.882812 4.542969 4.882812 4.53125 4.890625 C 4.519531 4.898438 4.503906 4.90625 4.488281 4.917969 C 4.46875 4.929688 4.46875 4.929688 4.457031 4.929688 C 4.476562 4.867188 4.5 4.804688 4.523438 4.746094 C 4.527344 4.730469 4.53125 4.71875 4.535156 4.707031 C 4.550781 4.667969 4.566406 4.632812 4.582031 4.59375 C 4.582031 4.589844 4.585938 4.582031 4.585938 4.578125 C 4.613281 4.503906 4.644531 4.433594 4.671875 4.363281 C 4.695312 4.304688 4.714844 4.242188 4.738281 4.183594 C 4.75 4.160156 4.757812 4.136719 4.765625 4.113281 C 4.785156 4.0625 4.804688 4.015625 4.824219 3.964844 C 4.875 3.832031 4.925781 3.703125 4.976562 3.570312 Z M 4.976562 3.570312 "/>
<path style=" stroke:none;fill-rule:nonzero;fill:rgb(62.352943%,45.09804%,69.803923%);fill-opacity:1;" d="M 4.457031 1.46875 C 4.519531 1.503906 4.582031 1.539062 4.644531 1.574219 C 4.695312 1.609375 4.753906 1.640625 4.808594 1.675781 C 4.820312 1.683594 4.835938 1.691406 4.847656 1.703125 C 4.867188 1.710938 4.882812 1.71875 4.902344 1.722656 C 4.933594 1.738281 4.960938 1.75 4.984375 1.785156 C 5.003906 1.855469 4.996094 1.933594 4.996094 2.003906 C 4.996094 2.03125 4.996094 2.0625 4.992188 2.09375 C 4.992188 2.148438 4.992188 2.203125 4.992188 2.257812 C 4.992188 2.320312 4.988281 2.382812 4.988281 2.449219 C 4.988281 2.578125 4.988281 2.707031 4.984375 2.835938 C 4.96875 2.8125 4.960938 2.789062 4.949219 2.761719 C 4.945312 2.753906 4.945312 2.75 4.941406 2.742188 C 4.933594 2.722656 4.925781 2.703125 4.917969 2.6875 C 4.914062 2.671875 4.90625 2.65625 4.902344 2.644531 C 4.851562 2.515625 4.804688 2.382812 4.753906 2.253906 C 4.730469 2.195312 4.707031 2.132812 4.683594 2.070312 C 4.640625 1.96875 4.601562 1.863281 4.5625 1.757812 C 4.554688 1.746094 4.550781 1.734375 4.546875 1.71875 C 4.53125 1.675781 4.511719 1.632812 4.496094 1.589844 C 4.492188 1.582031 4.492188 1.578125 4.492188 1.574219 C 4.484375 1.558594 4.476562 1.542969 4.472656 1.527344 C 4.46875 1.519531 4.464844 1.511719 4.464844 1.503906 C 4.457031 1.484375 4.457031 1.484375 4.457031 1.46875 Z M 4.457031 1.46875 "/>
<path style=" stroke:none;fill-rule:nonzero;fill:rgb(16.078432%,6.666667%,18.82353%);fill-opacity:1;" d="M 6.679688 5.710938 C 6.984375 5.710938 6.984375 5.710938 7.042969 5.773438 C 7.078125 5.824219 7.078125 5.878906 7.074219 5.941406 C 7.070312 5.980469 7.050781 6.007812 7.027344 6.035156 C 7.015625 6.042969 7.003906 6.046875 6.992188 6.050781 C 6.996094 6.058594 7 6.0625 7 6.070312 C 7.011719 6.09375 7.027344 6.117188 7.035156 6.140625 C 7.042969 6.148438 7.046875 6.160156 7.050781 6.171875 C 7.058594 6.183594 7.066406 6.199219 7.074219 6.214844 C 7.074219 6.21875 7.078125 6.222656 7.078125 6.230469 C 7.097656 6.257812 7.097656 6.257812 7.097656 6.269531 C 7.050781 6.269531 7.011719 6.269531 6.964844 6.269531 C 6.960938 6.257812 6.953125 6.246094 6.949219 6.234375 C 6.941406 6.222656 6.9375 6.207031 6.925781 6.195312 C 6.925781 6.1875 6.921875 6.179688 6.917969 6.171875 C 6.914062 6.164062 6.910156 6.160156 6.90625 6.152344 C 6.902344 6.140625 6.902344 6.140625 6.898438 6.132812 C 6.894531 6.125 6.890625 6.121094 6.886719 6.113281 C 6.886719 6.105469 6.882812 6.101562 6.882812 6.09375 C 6.863281 6.070312 6.863281 6.070312 6.796875 6.070312 C 6.796875 6.136719 6.796875 6.203125 6.796875 6.269531 C 6.757812 6.269531 6.71875 6.269531 6.679688 6.269531 C 6.679688 6.082031 6.679688 5.898438 6.679688 5.710938 Z M 6.796875 5.8125 C 6.796875 5.867188 6.796875 5.921875 6.796875 5.972656 C 6.875 5.980469 6.875 5.980469 6.941406 5.953125 C 6.957031 5.929688 6.960938 5.914062 6.960938 5.882812 C 6.953125 5.855469 6.941406 5.839844 6.921875 5.820312 C 6.894531 5.8125 6.875 5.8125 6.847656 5.8125 C 6.832031 5.8125 6.816406 5.8125 6.796875 5.8125 Z M 6.796875 5.8125 "/>
<path style=" stroke:none;fill-rule:nonzero;fill:rgb(16.078432%,6.666667%,18.82353%);fill-opacity:1;" d="M 1.742188 5.710938 C 2.046875 5.710938 2.046875 5.710938 2.105469 5.773438 C 2.140625 5.824219 2.140625 5.878906 2.136719 5.941406 C 2.128906 5.980469 2.109375 6.007812 2.085938 6.035156 C 2.074219 6.042969 2.0625 6.046875 2.050781 6.050781 C 2.054688 6.058594 2.058594 6.0625 2.0625 6.070312 C 2.074219 6.09375 2.085938 6.117188 2.097656 6.140625 C 2.101562 6.148438 2.105469 6.160156 2.109375 6.171875 C 2.121094 6.183594 2.125 6.199219 2.132812 6.214844 C 2.136719 6.21875 2.136719 6.222656 2.140625 6.230469 C 2.15625 6.257812 2.15625 6.257812 2.15625 6.269531 C 2.113281 6.269531 2.070312 6.269531 2.027344 6.269531 C 2.019531 6.257812 2.015625 6.246094 2.011719 6.234375 C 2.003906 6.222656 1.996094 6.207031 1.988281 6.195312 C 1.984375 6.1875 1.980469 6.179688 1.976562 6.171875 C 1.976562 6.164062 1.972656 6.160156 1.96875 6.152344 C 1.960938 6.140625 1.960938 6.140625 1.957031 6.132812 C 1.953125 6.125 1.953125 6.121094 1.949219 6.113281 C 1.945312 6.105469 1.945312 6.101562 1.941406 6.09375 C 1.921875 6.070312 1.921875 6.070312 1.859375 6.070312 C 1.859375 6.136719 1.859375 6.203125 1.859375 6.269531 C 1.820312 6.269531 1.78125 6.269531 1.742188 6.269531 C 1.742188 6.082031 1.742188 5.898438 1.742188 5.710938 Z M 1.859375 5.8125 C 1.859375 5.867188 1.859375 5.921875 1.859375 5.972656 C 1.933594 5.980469 1.933594 5.980469 2 5.953125 C 2.015625 5.929688 2.019531 5.914062 2.019531 5.882812 C 2.015625 5.855469 2.003906 5.839844 1.980469 5.820312 C 1.957031 5.8125 1.933594 5.8125 1.90625 5.8125 C 1.890625 5.8125 1.875 5.8125 1.859375 5.8125 Z M 1.859375 5.8125 "/>
<path style=" stroke:none;fill-rule:nonzero;fill:rgb(16.078432%,6.666667%,18.82353%);fill-opacity:1;" d="M 4.230469 5.746094 C 4.285156 5.792969 4.3125 5.847656 4.328125 5.917969 C 4.335938 6.011719 4.332031 6.105469 4.28125 6.183594 C 4.230469 6.242188 4.179688 6.273438 4.105469 6.28125 C 4.035156 6.285156 3.96875 6.265625 3.910156 6.214844 C 3.847656 6.144531 3.835938 6.054688 3.839844 5.960938 C 3.839844 5.882812 3.871094 5.8125 3.921875 5.757812 C 4.011719 5.683594 4.136719 5.679688 4.230469 5.746094 Z M 3.992188 5.859375 C 3.953125 5.921875 3.945312 5.988281 3.960938 6.058594 C 3.972656 6.101562 3.992188 6.132812 4.027344 6.15625 C 4.0625 6.171875 4.089844 6.171875 4.125 6.164062 C 4.15625 6.148438 4.179688 6.125 4.195312 6.09375 C 4.210938 6.058594 4.214844 6.027344 4.214844 5.988281 C 4.214844 5.984375 4.214844 5.980469 4.214844 5.976562 C 4.210938 5.933594 4.207031 5.902344 4.183594 5.871094 C 4.179688 5.863281 4.175781 5.855469 4.171875 5.851562 C 4.148438 5.824219 4.121094 5.8125 4.085938 5.8125 C 4.042969 5.8125 4.015625 5.824219 3.992188 5.859375 Z M 3.992188 5.859375 "/>
<path style=" stroke:none;fill-rule:nonzero;fill:rgb(16.078432%,6.666667%,18.82353%);fill-opacity:1;" d="M 7.414062 5.710938 C 7.464844 5.710938 7.515625 5.710938 7.5625 5.710938 C 7.59375 5.796875 7.625 5.886719 7.652344 5.972656 C 7.660156 6 7.667969 6.027344 7.675781 6.054688 C 7.679688 6.058594 7.679688 6.066406 7.683594 6.070312 C 7.691406 6.101562 7.703125 6.132812 7.710938 6.164062 C 7.714844 6.171875 7.714844 6.171875 7.71875 6.179688 C 7.722656 6.191406 7.722656 6.199219 7.726562 6.210938 C 7.734375 6.230469 7.738281 6.246094 7.738281 6.269531 C 7.699219 6.269531 7.65625 6.269531 7.617188 6.269531 C 7.613281 6.25 7.605469 6.234375 7.597656 6.214844 C 7.597656 6.210938 7.597656 6.207031 7.59375 6.199219 C 7.589844 6.179688 7.582031 6.164062 7.582031 6.140625 C 7.523438 6.140625 7.464844 6.140625 7.402344 6.140625 C 7.394531 6.167969 7.390625 6.191406 7.382812 6.21875 C 7.375 6.234375 7.371094 6.25 7.363281 6.269531 C 7.320312 6.269531 7.28125 6.269531 7.238281 6.269531 C 7.253906 6.214844 7.269531 6.164062 7.285156 6.113281 C 7.289062 6.105469 7.289062 6.097656 7.292969 6.089844 C 7.296875 6.074219 7.304688 6.058594 7.308594 6.039062 C 7.316406 6.015625 7.324219 5.992188 7.332031 5.964844 C 7.359375 5.882812 7.386719 5.792969 7.414062 5.710938 Z M 7.488281 5.855469 C 7.476562 5.882812 7.46875 5.910156 7.460938 5.9375 C 7.457031 5.949219 7.457031 5.949219 7.453125 5.960938 C 7.449219 5.96875 7.449219 5.976562 7.445312 5.984375 C 7.441406 5.992188 7.441406 6 7.4375 6.003906 C 7.433594 6.023438 7.433594 6.023438 7.433594 6.042969 C 7.472656 6.042969 7.511719 6.042969 7.550781 6.042969 C 7.542969 6.015625 7.535156 5.984375 7.527344 5.953125 C 7.523438 5.941406 7.523438 5.941406 7.519531 5.925781 C 7.515625 5.921875 7.515625 5.914062 7.511719 5.902344 C 7.507812 5.894531 7.507812 5.886719 7.503906 5.882812 C 7.5 5.859375 7.5 5.859375 7.488281 5.855469 Z M 7.488281 5.855469 "/>
<path style=" stroke:none;fill-rule:nonzero;fill:rgb(16.078432%,6.666667%,18.82353%);fill-opacity:1;" d="M 4.515625 5.710938 C 4.554688 5.710938 4.59375 5.710938 4.632812 5.710938 C 4.632812 5.71875 4.632812 5.730469 4.632812 5.742188 C 4.632812 5.785156 4.632812 5.824219 4.636719 5.867188 C 4.636719 5.886719 4.636719 5.902344 4.636719 5.921875 C 4.636719 5.949219 4.636719 5.972656 4.636719 6 C 4.636719 6.007812 4.636719 6.015625 4.636719 6.023438 C 4.636719 6.078125 4.636719 6.078125 4.65625 6.128906 C 4.683594 6.152344 4.699219 6.160156 4.730469 6.164062 C 4.761719 6.164062 4.785156 6.152344 4.808594 6.136719 C 4.824219 6.109375 4.832031 6.09375 4.832031 6.058594 C 4.832031 6.054688 4.832031 6.042969 4.832031 6.035156 C 4.832031 6.027344 4.832031 6.019531 4.832031 6.011719 C 4.832031 6 4.832031 5.992188 4.832031 5.984375 C 4.832031 5.960938 4.832031 5.941406 4.832031 5.917969 C 4.832031 5.894531 4.832031 5.871094 4.832031 5.847656 C 4.832031 5.800781 4.835938 5.753906 4.835938 5.710938 C 4.871094 5.710938 4.914062 5.710938 4.953125 5.710938 C 4.953125 5.761719 4.953125 5.816406 4.953125 5.867188 C 4.953125 5.890625 4.953125 5.917969 4.953125 5.941406 C 4.953125 5.96875 4.953125 5.996094 4.953125 6.023438 C 4.953125 6.03125 4.953125 6.039062 4.953125 6.050781 C 4.953125 6.113281 4.945312 6.167969 4.902344 6.214844 C 4.855469 6.265625 4.792969 6.285156 4.722656 6.28125 C 4.664062 6.277344 4.601562 6.257812 4.558594 6.207031 C 4.523438 6.164062 4.515625 6.109375 4.515625 6.054688 C 4.515625 6.046875 4.515625 6.035156 4.515625 6.03125 C 4.515625 6.023438 4.515625 6.011719 4.515625 6.003906 C 4.515625 5.996094 4.515625 5.988281 4.515625 5.980469 C 4.515625 5.953125 4.515625 5.925781 4.515625 5.898438 C 4.515625 5.882812 4.515625 5.863281 4.515625 5.84375 C 4.515625 5.800781 4.515625 5.753906 4.515625 5.710938 Z M 4.515625 5.710938 "/>
<path style=" stroke:none;fill-rule:nonzero;fill:rgb(16.078432%,6.666667%,18.82353%);fill-opacity:1;" d="M 5.480469 5.738281 C 5.507812 5.761719 5.53125 5.789062 5.542969 5.828125 C 5.542969 5.84375 5.542969 5.859375 5.542969 5.878906 C 5.507812 5.878906 5.46875 5.878906 5.433594 5.878906 C 5.425781 5.863281 5.417969 5.847656 5.414062 5.835938 C 5.382812 5.816406 5.363281 5.8125 5.328125 5.8125 C 5.3125 5.816406 5.296875 5.824219 5.28125 5.828125 C 5.28125 5.835938 5.28125 5.847656 5.277344 5.855469 C 5.277344 5.859375 5.277344 5.863281 5.277344 5.871094 C 5.277344 5.886719 5.277344 5.886719 5.28125 5.90625 C 5.3125 5.917969 5.335938 5.925781 5.363281 5.929688 C 5.5 5.96875 5.5 5.96875 5.535156 6.03125 C 5.554688 6.074219 5.558594 6.113281 5.550781 6.164062 C 5.535156 6.207031 5.503906 6.238281 5.464844 6.261719 C 5.394531 6.292969 5.304688 6.292969 5.234375 6.261719 C 5.183594 6.234375 5.15625 6.199219 5.140625 6.140625 C 5.140625 6.125 5.140625 6.109375 5.140625 6.09375 C 5.175781 6.09375 5.210938 6.09375 5.25 6.09375 C 5.269531 6.136719 5.269531 6.136719 5.269531 6.148438 C 5.316406 6.167969 5.355469 6.175781 5.40625 6.15625 C 5.417969 6.144531 5.425781 6.136719 5.433594 6.117188 C 5.433594 6.097656 5.433594 6.097656 5.421875 6.082031 C 5.394531 6.058594 5.359375 6.050781 5.324219 6.039062 C 5.203125 6.003906 5.203125 6.003906 5.164062 5.949219 C 5.148438 5.902344 5.144531 5.859375 5.15625 5.816406 C 5.179688 5.765625 5.210938 5.738281 5.257812 5.714844 C 5.332031 5.6875 5.410156 5.695312 5.480469 5.738281 Z M 5.480469 5.738281 "/>
<path style=" stroke:none;fill-rule:nonzero;fill:rgb(16.078432%,6.666667%,18.82353%);fill-opacity:1;" d="M 2.324219 5.710938 C 2.441406 5.710938 2.5625 5.710938 2.683594 5.710938 C 2.683594 5.746094 2.683594 5.777344 2.683594 5.8125 C 2.601562 5.8125 2.523438 5.8125 2.441406 5.8125 C 2.441406 5.855469 2.441406 5.894531 2.441406 5.941406 C 2.515625 5.941406 2.589844 5.941406 2.664062 5.941406 C 2.664062 5.972656 2.664062 6.007812 2.664062 6.042969 C 2.589844 6.042969 2.515625 6.042969 2.441406 6.042969 C 2.441406 6.085938 2.441406 6.128906 2.441406 6.167969 C 2.523438 6.167969 2.601562 6.167969 2.683594 6.167969 C 2.683594 6.203125 2.683594 6.234375 2.683594 6.269531 C 2.566406 6.269531 2.445312 6.269531 2.324219 6.269531 C 2.324219 6.082031 2.324219 5.898438 2.324219 5.710938 Z M 2.324219 5.710938 "/>
<path style=" stroke:none;fill-rule:nonzero;fill:rgb(16.078432%,6.666667%,18.82353%);fill-opacity:1;" d="M 6.414062 5.75 C 6.453125 5.78125 6.480469 5.820312 6.492188 5.871094 C 6.492188 5.882812 6.492188 5.898438 6.492188 5.914062 C 6.453125 5.914062 6.414062 5.914062 6.375 5.914062 C 6.367188 5.894531 6.363281 5.878906 6.355469 5.863281 C 6.335938 5.835938 6.316406 5.824219 6.28125 5.820312 C 6.25 5.816406 6.226562 5.820312 6.199219 5.84375 C 6.160156 5.886719 6.144531 5.929688 6.144531 5.992188 C 6.144531 6.039062 6.152344 6.089844 6.183594 6.125 C 6.210938 6.15625 6.242188 6.164062 6.285156 6.164062 C 6.3125 6.160156 6.328125 6.148438 6.351562 6.128906 C 6.367188 6.109375 6.367188 6.109375 6.375 6.070312 C 6.414062 6.070312 6.453125 6.070312 6.492188 6.070312 C 6.488281 6.132812 6.472656 6.175781 6.433594 6.21875 C 6.371094 6.273438 6.304688 6.285156 6.226562 6.277344 C 6.167969 6.269531 6.117188 6.238281 6.078125 6.191406 C 6.019531 6.105469 6.011719 6.011719 6.027344 5.910156 C 6.042969 5.839844 6.078125 5.777344 6.132812 5.738281 C 6.222656 5.683594 6.328125 5.6875 6.414062 5.75 Z M 6.414062 5.75 "/>
<path style=" stroke:none;fill-rule:nonzero;fill:rgb(16.078432%,6.666667%,18.82353%);fill-opacity:1;" d="M 3.261719 5.75 C 3.300781 5.78125 3.324219 5.820312 3.339844 5.871094 C 3.339844 5.882812 3.339844 5.898438 3.339844 5.914062 C 3.300781 5.914062 3.261719 5.914062 3.222656 5.914062 C 3.214844 5.894531 3.207031 5.878906 3.203125 5.863281 C 3.183594 5.835938 3.164062 5.824219 3.128906 5.820312 C 3.097656 5.816406 3.074219 5.820312 3.046875 5.84375 C 3.007812 5.886719 2.996094 5.929688 2.992188 5.992188 C 2.992188 6.039062 3 6.089844 3.03125 6.125 C 3.058594 6.15625 3.089844 6.164062 3.132812 6.164062 C 3.160156 6.160156 3.179688 6.148438 3.203125 6.128906 C 3.210938 6.109375 3.210938 6.109375 3.222656 6.070312 C 3.261719 6.070312 3.300781 6.070312 3.339844 6.070312 C 3.335938 6.132812 3.320312 6.175781 3.28125 6.21875 C 3.21875 6.273438 3.152344 6.285156 3.074219 6.277344 C 3.015625 6.269531 2.964844 6.238281 2.925781 6.191406 C 2.867188 6.105469 2.859375 6.011719 2.875 5.910156 C 2.890625 5.839844 2.925781 5.777344 2.980469 5.738281 C 3.070312 5.683594 3.179688 5.6875 3.261719 5.75 Z M 3.261719 5.75 "/>
<path style=" stroke:none;fill-rule:nonzero;fill:rgb(16.078432%,6.666667%,18.82353%);fill-opacity:1;" d="M 1.167969 5.710938 C 1.460938 5.710938 1.460938 5.710938 1.519531 5.765625 C 1.554688 5.804688 1.566406 5.847656 1.566406 5.898438 C 1.566406 5.953125 1.558594 5.992188 1.523438 6.03125 C 1.46875 6.089844 1.417969 6.09375 1.34375 6.09375 C 1.324219 6.09375 1.304688 6.09375 1.285156 6.09375 C 1.285156 6.152344 1.285156 6.207031 1.285156 6.269531 C 1.246094 6.269531 1.210938 6.269531 1.167969 6.269531 C 1.167969 6.082031 1.167969 5.898438 1.167969 5.710938 Z M 1.285156 5.8125 C 1.285156 5.871094 1.285156 5.929688 1.285156 5.988281 C 1.3125 5.988281 1.3125 5.988281 1.339844 5.992188 C 1.34375 5.992188 1.347656 5.992188 1.355469 5.992188 C 1.378906 5.992188 1.398438 5.992188 1.417969 5.972656 C 1.4375 5.949219 1.449219 5.933594 1.449219 5.90625 C 1.445312 5.871094 1.4375 5.851562 1.414062 5.828125 C 1.390625 5.808594 1.363281 5.8125 1.335938 5.8125 C 1.3125 5.8125 1.3125 5.8125 1.285156 5.8125 Z M 1.285156 5.8125 "/>
<path style=" stroke:none;fill-rule:nonzero;fill:rgb(16.078432%,6.666667%,18.82353%);fill-opacity:1;" d="M 7.914062 5.710938 C 8.03125 5.710938 8.148438 5.710938 8.265625 5.710938 C 8.265625 5.746094 8.265625 5.777344 8.265625 5.8125 C 8.191406 5.8125 8.113281 5.8125 8.03125 5.8125 C 8.03125 5.855469 8.03125 5.894531 8.03125 5.941406 C 8.101562 5.941406 8.167969 5.941406 8.242188 5.941406 C 8.242188 5.972656 8.242188 6.007812 8.242188 6.042969 C 8.171875 6.042969 8.101562 6.042969 8.03125 6.042969 C 8.03125 6.117188 8.03125 6.191406 8.03125 6.269531 C 7.992188 6.269531 7.957031 6.269531 7.914062 6.269531 C 7.914062 6.082031 7.914062 5.898438 7.914062 5.710938 Z M 7.914062 5.710938 "/>
<path style=" stroke:none;fill-rule:nonzero;fill:rgb(16.078432%,6.666667%,18.82353%);fill-opacity:1;" d="M 8.421875 5.710938 C 8.5625 5.710938 8.707031 5.710938 8.851562 5.710938 C 8.851562 5.746094 8.851562 5.777344 8.851562 5.8125 C 8.800781 5.8125 8.75 5.8125 8.695312 5.8125 C 8.695312 5.964844 8.695312 6.113281 8.695312 6.269531 C 8.660156 6.269531 8.621094 6.269531 8.585938 6.269531 C 8.585938 6.117188 8.585938 5.96875 8.585938 5.8125 C 8.53125 5.8125 8.476562 5.8125 8.421875 5.8125 C 8.421875 5.78125 8.421875 5.746094 8.421875 5.710938 Z M 8.421875 5.710938 "/>
<path style=" stroke:none;fill-rule:nonzero;fill:rgb(43.137255%,29.019609%,51.764709%);fill-opacity:1;" d="M 4.261719 7.332031 C 4.285156 7.332031 4.304688 7.332031 4.328125 7.332031 C 4.339844 7.378906 4.351562 7.425781 4.363281 7.472656 C 4.367188 7.484375 4.371094 7.5 4.371094 7.511719 C 4.375 7.515625 4.375 7.523438 4.375 7.53125 C 4.378906 7.542969 4.378906 7.542969 4.386719 7.558594 C 4.386719 7.546875 4.386719 7.546875 4.390625 7.539062 C 4.398438 7.515625 4.402344 7.492188 4.40625 7.46875 C 4.410156 7.460938 4.414062 7.449219 4.414062 7.4375 C 4.417969 7.425781 4.421875 7.410156 4.425781 7.394531 C 4.429688 7.386719 4.429688 7.375 4.433594 7.367188 C 4.4375 7.347656 4.4375 7.347656 4.445312 7.332031 C 4.464844 7.332031 4.488281 7.332031 4.511719 7.332031 C 4.511719 7.339844 4.511719 7.347656 4.515625 7.355469 C 4.519531 7.375 4.527344 7.402344 4.53125 7.425781 C 4.53125 7.4375 4.535156 7.445312 4.539062 7.457031 C 4.542969 7.472656 4.546875 7.488281 4.550781 7.503906 C 4.550781 7.507812 4.550781 7.511719 4.554688 7.515625 C 4.558594 7.539062 4.558594 7.539062 4.566406 7.558594 C 4.585938 7.480469 4.601562 7.410156 4.621094 7.332031 C 4.644531 7.332031 4.667969 7.332031 4.691406 7.332031 C 4.679688 7.378906 4.667969 7.425781 4.65625 7.472656 C 4.652344 7.488281 4.648438 7.503906 4.644531 7.519531 C 4.636719 7.542969 4.632812 7.566406 4.625 7.585938 C 4.625 7.59375 4.621094 7.601562 4.621094 7.609375 C 4.617188 7.617188 4.617188 7.621094 4.613281 7.628906 C 4.613281 7.636719 4.613281 7.640625 4.609375 7.648438 C 4.609375 7.660156 4.609375 7.660156 4.601562 7.675781 C 4.578125 7.675781 4.558594 7.675781 4.535156 7.675781 C 4.527344 7.648438 4.519531 7.625 4.515625 7.601562 C 4.511719 7.589844 4.511719 7.582031 4.507812 7.578125 C 4.496094 7.539062 4.488281 7.5 4.476562 7.460938 C 4.476562 7.464844 4.472656 7.46875 4.472656 7.472656 C 4.464844 7.496094 4.460938 7.515625 4.453125 7.535156 C 4.453125 7.542969 4.449219 7.550781 4.449219 7.558594 C 4.4375 7.597656 4.425781 7.636719 4.410156 7.675781 C 4.390625 7.675781 4.371094 7.675781 4.347656 7.675781 C 4.335938 7.628906 4.324219 7.585938 4.308594 7.539062 C 4.304688 7.523438 4.300781 7.507812 4.296875 7.496094 C 4.292969 7.472656 4.285156 7.449219 4.28125 7.425781 C 4.277344 7.417969 4.277344 7.417969 4.273438 7.40625 C 4.273438 7.398438 4.273438 7.394531 4.269531 7.386719 C 4.269531 7.382812 4.265625 7.375 4.265625 7.367188 C 4.261719 7.355469 4.261719 7.355469 4.261719 7.332031 Z M 4.261719 7.332031 "/>
<path style=" stroke:none;fill-rule:nonzero;fill:rgb(16.078432%,6.666667%,18.82353%);fill-opacity:1;" d="M 3.527344 5.710938 C 3.566406 5.710938 3.605469 5.710938 3.644531 5.710938 C 3.644531 5.894531 3.644531 6.078125 3.644531 6.269531 C 3.605469 6.269531 3.566406 6.269531 3.527344 6.269531 C 3.527344 6.082031 3.527344 5.898438 3.527344 5.710938 Z M 3.527344 5.710938 "/>
<path style=" stroke:none;fill-rule:nonzero;fill:rgb(43.137255%,29.019609%,51.764709%);fill-opacity:1;" d="M 6.070312 6.664062 C 6.09375 6.664062 6.125 6.664062 6.152344 6.664062 C 6.164062 6.664062 6.164062 6.664062 6.175781 6.660156 C 6.21875 6.660156 6.25 6.664062 6.285156 6.691406 C 6.296875 6.71875 6.304688 6.734375 6.304688 6.765625 C 6.296875 6.796875 6.285156 6.804688 6.265625 6.824219 C 6.269531 6.828125 6.277344 6.835938 6.28125 6.839844 C 6.304688 6.859375 6.3125 6.875 6.316406 6.90625 C 6.316406 6.933594 6.3125 6.957031 6.296875 6.976562 C 6.253906 7.015625 6.210938 7.007812 6.15625 7.007812 C 6.128906 7.007812 6.097656 7.007812 6.070312 7.007812 C 6.070312 6.894531 6.070312 6.78125 6.070312 6.664062 Z M 6.132812 6.722656 C 6.132812 6.75 6.132812 6.777344 6.132812 6.808594 C 6.175781 6.8125 6.175781 6.8125 6.21875 6.804688 C 6.234375 6.792969 6.234375 6.792969 6.238281 6.769531 C 6.242188 6.75 6.242188 6.75 6.226562 6.734375 C 6.207031 6.714844 6.195312 6.71875 6.171875 6.71875 C 6.160156 6.71875 6.148438 6.722656 6.132812 6.722656 Z M 6.132812 6.859375 C 6.132812 6.890625 6.132812 6.917969 6.132812 6.949219 C 6.148438 6.949219 6.164062 6.949219 6.175781 6.953125 C 6.191406 6.953125 6.191406 6.953125 6.203125 6.953125 C 6.226562 6.953125 6.226562 6.953125 6.242188 6.9375 C 6.253906 6.921875 6.253906 6.921875 6.25 6.902344 C 6.242188 6.875 6.238281 6.871094 6.21875 6.859375 C 6.199219 6.855469 6.199219 6.855469 6.175781 6.859375 C 6.160156 6.859375 6.148438 6.859375 6.132812 6.859375 Z M 6.132812 6.859375 "/>
<path style=" stroke:none;fill-rule:nonzero;fill:rgb(43.137255%,29.019609%,51.764709%);fill-opacity:1;" d="M 5.769531 7.332031 C 5.796875 7.332031 5.820312 7.332031 5.847656 7.332031 C 5.859375 7.332031 5.859375 7.332031 5.871094 7.332031 C 5.917969 7.332031 5.945312 7.335938 5.984375 7.363281 C 6.007812 7.390625 6.011719 7.429688 6.011719 7.464844 C 6.003906 7.496094 5.992188 7.519531 5.972656 7.535156 C 5.96875 7.535156 5.964844 7.535156 5.960938 7.535156 C 5.964844 7.546875 5.964844 7.546875 5.96875 7.558594 C 5.976562 7.570312 5.980469 7.578125 5.984375 7.589844 C 5.988281 7.59375 5.988281 7.601562 5.992188 7.605469 C 5.992188 7.609375 5.996094 7.613281 6 7.621094 C 6 7.625 6.003906 7.628906 6.003906 7.636719 C 6.011719 7.648438 6.011719 7.648438 6.015625 7.675781 C 5.992188 7.675781 5.96875 7.675781 5.945312 7.675781 C 5.9375 7.65625 5.929688 7.640625 5.921875 7.625 C 5.917969 7.617188 5.914062 7.613281 5.910156 7.609375 C 5.894531 7.574219 5.894531 7.574219 5.894531 7.558594 C 5.875 7.558594 5.855469 7.558594 5.835938 7.558594 C 5.835938 7.597656 5.835938 7.636719 5.835938 7.675781 C 5.8125 7.675781 5.792969 7.675781 5.769531 7.675781 C 5.769531 7.5625 5.769531 7.449219 5.769531 7.332031 Z M 5.835938 7.390625 C 5.835938 7.425781 5.835938 7.460938 5.835938 7.496094 C 5.878906 7.496094 5.878906 7.496094 5.921875 7.496094 C 5.9375 7.476562 5.9375 7.476562 5.945312 7.460938 C 5.945312 7.433594 5.945312 7.433594 5.9375 7.410156 C 5.925781 7.394531 5.910156 7.390625 5.886719 7.390625 C 5.871094 7.390625 5.851562 7.390625 5.835938 7.390625 Z M 5.835938 7.390625 "/>
<path style=" stroke:none;fill-rule:nonzero;fill:rgb(43.137255%,29.019609%,51.764709%);fill-opacity:1;" d="M 6.433594 6.664062 C 6.457031 6.664062 6.484375 6.664062 6.511719 6.664062 C 6.523438 6.664062 6.523438 6.664062 6.535156 6.660156 C 6.582031 6.660156 6.609375 6.664062 6.648438 6.691406 C 6.671875 6.722656 6.675781 6.761719 6.675781 6.796875 C 6.667969 6.824219 6.65625 6.847656 6.636719 6.867188 C 6.632812 6.867188 6.625 6.867188 6.621094 6.867188 C 6.628906 6.878906 6.628906 6.878906 6.632812 6.890625 C 6.636719 6.902344 6.640625 6.910156 6.648438 6.917969 C 6.648438 6.925781 6.652344 6.933594 6.65625 6.9375 C 6.65625 6.941406 6.660156 6.945312 6.660156 6.949219 C 6.664062 6.953125 6.667969 6.960938 6.667969 6.964844 C 6.675781 6.976562 6.675781 6.976562 6.679688 7.007812 C 6.65625 7.007812 6.632812 7.007812 6.609375 7.007812 C 6.601562 6.988281 6.589844 6.972656 6.582031 6.953125 C 6.578125 6.949219 6.578125 6.945312 6.574219 6.941406 C 6.558594 6.902344 6.558594 6.902344 6.558594 6.886719 C 6.539062 6.886719 6.519531 6.886719 6.496094 6.886719 C 6.496094 6.925781 6.496094 6.96875 6.496094 7.007812 C 6.476562 7.007812 6.453125 7.007812 6.433594 7.007812 C 6.433594 6.894531 6.433594 6.78125 6.433594 6.664062 Z M 6.496094 6.722656 C 6.496094 6.753906 6.496094 6.789062 6.496094 6.824219 C 6.539062 6.828125 6.539062 6.828125 6.582031 6.824219 C 6.601562 6.808594 6.601562 6.808594 6.609375 6.792969 C 6.609375 6.765625 6.609375 6.765625 6.601562 6.742188 C 6.585938 6.722656 6.574219 6.722656 6.550781 6.71875 C 6.535156 6.71875 6.515625 6.71875 6.496094 6.722656 Z M 6.496094 6.722656 "/>
<path style=" stroke:none;fill-rule:nonzero;fill:rgb(43.137255%,29.019609%,51.764709%);fill-opacity:1;" d="M 5.507812 6.664062 C 5.535156 6.664062 5.5625 6.664062 5.589844 6.664062 C 5.601562 6.664062 5.601562 6.664062 5.613281 6.660156 C 5.65625 6.660156 5.6875 6.664062 5.722656 6.691406 C 5.75 6.722656 5.75 6.761719 5.75 6.796875 C 5.746094 6.824219 5.734375 6.847656 5.710938 6.867188 C 5.707031 6.867188 5.703125 6.867188 5.699219 6.867188 C 5.703125 6.878906 5.703125 6.878906 5.710938 6.890625 C 5.714844 6.902344 5.71875 6.910156 5.722656 6.917969 C 5.726562 6.925781 5.730469 6.933594 5.730469 6.9375 C 5.734375 6.941406 5.734375 6.945312 5.738281 6.949219 C 5.742188 6.953125 5.742188 6.960938 5.746094 6.964844 C 5.75 6.976562 5.75 6.976562 5.757812 7.007812 C 5.734375 7.007812 5.710938 7.007812 5.6875 7.007812 C 5.675781 6.988281 5.667969 6.972656 5.660156 6.953125 C 5.65625 6.949219 5.65625 6.945312 5.652344 6.941406 C 5.632812 6.902344 5.632812 6.902344 5.632812 6.886719 C 5.617188 6.886719 5.59375 6.886719 5.574219 6.886719 C 5.574219 6.925781 5.574219 6.96875 5.574219 7.007812 C 5.554688 7.007812 5.53125 7.007812 5.507812 7.007812 C 5.507812 6.894531 5.507812 6.78125 5.507812 6.664062 Z M 5.574219 6.722656 C 5.574219 6.753906 5.574219 6.789062 5.574219 6.824219 C 5.617188 6.828125 5.617188 6.828125 5.660156 6.824219 C 5.675781 6.808594 5.675781 6.808594 5.6875 6.792969 C 5.6875 6.765625 5.6875 6.765625 5.679688 6.742188 C 5.664062 6.722656 5.652344 6.722656 5.628906 6.71875 C 5.609375 6.71875 5.59375 6.71875 5.574219 6.722656 Z M 5.574219 6.722656 "/>
<path style=" stroke:none;fill-rule:nonzero;fill:rgb(43.137255%,29.019609%,51.764709%);fill-opacity:1;" d="M 3.371094 6.664062 C 3.554688 6.664062 3.554688 6.664062 3.59375 6.699219 C 3.597656 6.703125 3.601562 6.707031 3.605469 6.710938 C 3.609375 6.71875 3.609375 6.71875 3.617188 6.726562 C 3.644531 6.777344 3.640625 6.835938 3.636719 6.894531 C 3.628906 6.9375 3.601562 6.96875 3.566406 6.992188 C 3.542969 7.003906 3.523438 7.007812 3.496094 7.007812 C 3.488281 7.007812 3.480469 7.007812 3.476562 7.007812 C 3.46875 7.007812 3.460938 7.007812 3.449219 7.007812 C 3.410156 7.007812 3.410156 7.007812 3.371094 7.007812 C 3.371094 6.894531 3.371094 6.78125 3.371094 6.664062 Z M 3.4375 6.722656 C 3.4375 6.796875 3.4375 6.871094 3.4375 6.949219 C 3.5 6.953125 3.5 6.953125 3.546875 6.929688 C 3.578125 6.894531 3.582031 6.867188 3.582031 6.820312 C 3.578125 6.785156 3.566406 6.761719 3.542969 6.738281 C 3.507812 6.714844 3.480469 6.722656 3.4375 6.722656 Z M 3.4375 6.722656 "/>
<path style=" stroke:none;fill-rule:nonzero;fill:rgb(43.137255%,29.019609%,51.764709%);fill-opacity:1;" d="M 2.472656 6.6875 C 2.503906 6.707031 2.511719 6.738281 2.519531 6.777344 C 2.464844 6.78125 2.464844 6.78125 2.445312 6.765625 C 2.4375 6.757812 2.4375 6.757812 2.421875 6.734375 C 2.402344 6.722656 2.382812 6.726562 2.355469 6.726562 C 2.332031 6.738281 2.328125 6.746094 2.3125 6.769531 C 2.296875 6.8125 2.296875 6.863281 2.316406 6.90625 C 2.328125 6.925781 2.339844 6.9375 2.355469 6.945312 C 2.386719 6.949219 2.410156 6.949219 2.433594 6.933594 C 2.453125 6.914062 2.453125 6.914062 2.460938 6.878906 C 2.4375 6.878906 2.414062 6.878906 2.390625 6.878906 C 2.390625 6.863281 2.390625 6.84375 2.390625 6.824219 C 2.433594 6.824219 2.476562 6.824219 2.519531 6.824219 C 2.523438 6.925781 2.523438 6.925781 2.5 6.957031 C 2.464844 6.996094 2.4375 7.015625 2.382812 7.015625 C 2.34375 7.015625 2.3125 7.003906 2.28125 6.976562 C 2.246094 6.933594 2.234375 6.890625 2.230469 6.835938 C 2.234375 6.777344 2.246094 6.734375 2.28125 6.695312 C 2.339844 6.640625 2.414062 6.648438 2.472656 6.6875 Z M 2.472656 6.6875 "/>
<path style=" stroke:none;fill-rule:nonzero;fill:rgb(43.137255%,29.019609%,51.764709%);fill-opacity:1;" d="M 2.878906 6.6875 C 2.917969 6.71875 2.929688 6.765625 2.9375 6.820312 C 2.941406 6.875 2.929688 6.925781 2.894531 6.96875 C 2.863281 7.003906 2.832031 7.015625 2.785156 7.015625 C 2.738281 7.015625 2.707031 7 2.675781 6.964844 C 2.636719 6.914062 2.628906 6.859375 2.636719 6.796875 C 2.648438 6.746094 2.664062 6.710938 2.703125 6.679688 C 2.757812 6.640625 2.820312 6.652344 2.878906 6.6875 Z M 2.722656 6.75 C 2.695312 6.789062 2.695312 6.832031 2.703125 6.878906 C 2.710938 6.90625 2.722656 6.921875 2.738281 6.941406 C 2.761719 6.953125 2.785156 6.953125 2.8125 6.949219 C 2.839844 6.9375 2.847656 6.925781 2.863281 6.902344 C 2.878906 6.855469 2.878906 6.808594 2.859375 6.765625 C 2.847656 6.742188 2.835938 6.730469 2.8125 6.722656 C 2.773438 6.714844 2.75 6.71875 2.722656 6.75 Z M 2.722656 6.75 "/>
<path style=" stroke:none;fill-rule:nonzero;fill:rgb(43.137255%,29.019609%,51.764709%);fill-opacity:1;" d="M 7.726562 6.679688 C 7.75 6.699219 7.757812 6.707031 7.765625 6.738281 C 7.765625 6.746094 7.765625 6.753906 7.765625 6.761719 C 7.746094 6.761719 7.726562 6.761719 7.707031 6.761719 C 7.703125 6.753906 7.699219 6.742188 7.695312 6.734375 C 7.671875 6.722656 7.648438 6.71875 7.621094 6.726562 C 7.609375 6.734375 7.609375 6.734375 7.601562 6.742188 C 7.601562 6.753906 7.601562 6.765625 7.601562 6.777344 C 7.628906 6.792969 7.65625 6.800781 7.683594 6.808594 C 7.726562 6.824219 7.742188 6.835938 7.769531 6.871094 C 7.777344 6.90625 7.773438 6.929688 7.761719 6.960938 C 7.746094 6.988281 7.722656 7.003906 7.695312 7.011719 C 7.648438 7.019531 7.601562 7.019531 7.5625 6.996094 C 7.542969 6.980469 7.535156 6.964844 7.527344 6.945312 C 7.523438 6.917969 7.523438 6.917969 7.527344 6.902344 C 7.546875 6.898438 7.5625 6.898438 7.582031 6.902344 C 7.59375 6.914062 7.601562 6.929688 7.609375 6.945312 C 7.636719 6.953125 7.660156 6.953125 7.6875 6.941406 C 7.703125 6.929688 7.703125 6.929688 7.703125 6.910156 C 7.703125 6.894531 7.703125 6.894531 7.6875 6.882812 C 7.667969 6.871094 7.648438 6.867188 7.625 6.859375 C 7.589844 6.847656 7.558594 6.839844 7.535156 6.804688 C 7.527344 6.773438 7.527344 6.746094 7.539062 6.714844 C 7.585938 6.652344 7.660156 6.640625 7.726562 6.679688 Z M 7.726562 6.679688 "/>
<path style=" stroke:none;fill-rule:nonzero;fill:rgb(43.137255%,29.019609%,51.764709%);fill-opacity:1;" d="M 7.371094 6.679688 C 7.394531 6.699219 7.402344 6.707031 7.40625 6.738281 C 7.40625 6.746094 7.40625 6.753906 7.410156 6.761719 C 7.390625 6.761719 7.371094 6.761719 7.347656 6.761719 C 7.34375 6.753906 7.339844 6.742188 7.335938 6.734375 C 7.3125 6.722656 7.289062 6.71875 7.265625 6.726562 C 7.253906 6.734375 7.253906 6.734375 7.246094 6.742188 C 7.246094 6.753906 7.246094 6.765625 7.246094 6.777344 C 7.273438 6.792969 7.296875 6.800781 7.328125 6.808594 C 7.371094 6.824219 7.382812 6.835938 7.410156 6.871094 C 7.421875 6.90625 7.417969 6.929688 7.40625 6.960938 C 7.386719 6.988281 7.367188 7.003906 7.335938 7.011719 C 7.289062 7.019531 7.246094 7.019531 7.203125 6.996094 C 7.1875 6.980469 7.179688 6.964844 7.167969 6.945312 C 7.164062 6.917969 7.164062 6.917969 7.167969 6.902344 C 7.1875 6.898438 7.207031 6.898438 7.226562 6.902344 C 7.234375 6.914062 7.242188 6.929688 7.253906 6.945312 C 7.28125 6.953125 7.304688 6.953125 7.332031 6.941406 C 7.34375 6.929688 7.34375 6.929688 7.347656 6.910156 C 7.34375 6.894531 7.34375 6.894531 7.328125 6.882812 C 7.308594 6.871094 7.289062 6.867188 7.269531 6.859375 C 7.230469 6.847656 7.203125 6.839844 7.179688 6.804688 C 7.167969 6.773438 7.167969 6.746094 7.183594 6.714844 C 7.230469 6.652344 7.304688 6.640625 7.371094 6.679688 Z M 7.371094 6.679688 "/>
<path style=" stroke:none;fill-rule:nonzero;fill:rgb(43.137255%,29.019609%,51.764709%);fill-opacity:1;" d="M 4.140625 6.679688 C 4.164062 6.699219 4.171875 6.707031 4.175781 6.738281 C 4.179688 6.746094 4.179688 6.753906 4.179688 6.761719 C 4.160156 6.761719 4.140625 6.761719 4.121094 6.761719 C 4.117188 6.753906 4.109375 6.742188 4.105469 6.734375 C 4.082031 6.722656 4.0625 6.71875 4.035156 6.726562 C 4.023438 6.734375 4.023438 6.734375 4.015625 6.742188 C 4.015625 6.753906 4.015625 6.765625 4.015625 6.777344 C 4.042969 6.792969 4.066406 6.800781 4.097656 6.808594 C 4.136719 6.824219 4.15625 6.835938 4.179688 6.871094 C 4.1875 6.90625 4.1875 6.929688 4.175781 6.960938 C 4.15625 6.988281 4.136719 7.003906 4.105469 7.011719 C 4.0625 7.019531 4.015625 7.019531 3.972656 6.996094 C 3.957031 6.980469 3.945312 6.964844 3.9375 6.945312 C 3.9375 6.917969 3.9375 6.917969 3.9375 6.902344 C 3.957031 6.898438 3.976562 6.898438 3.996094 6.902344 C 4.003906 6.914062 4.011719 6.929688 4.023438 6.945312 C 4.050781 6.953125 4.070312 6.953125 4.101562 6.941406 C 4.113281 6.929688 4.113281 6.929688 4.117188 6.910156 C 4.113281 6.894531 4.113281 6.894531 4.097656 6.882812 C 4.078125 6.871094 4.0625 6.867188 4.039062 6.859375 C 4 6.847656 3.972656 6.839844 3.945312 6.804688 C 3.941406 6.773438 3.941406 6.746094 3.949219 6.714844 C 4 6.652344 4.070312 6.640625 4.140625 6.679688 Z M 4.140625 6.679688 "/>
<path style=" stroke:none;fill-rule:nonzero;fill:rgb(43.137255%,29.019609%,51.764709%);fill-opacity:1;" d="M 6.882812 6.664062 C 6.90625 6.664062 6.933594 6.664062 6.960938 6.664062 C 6.984375 6.726562 7.007812 6.792969 7.027344 6.859375 C 7.03125 6.875 7.039062 6.890625 7.042969 6.910156 C 7.046875 6.917969 7.050781 6.929688 7.054688 6.941406 C 7.054688 6.945312 7.058594 6.949219 7.058594 6.953125 C 7.070312 6.988281 7.070312 6.988281 7.070312 7.007812 C 7.046875 7.007812 7.027344 7.007812 7.003906 7.007812 C 7 6.996094 6.996094 6.984375 6.992188 6.972656 C 6.988281 6.96875 6.988281 6.960938 6.984375 6.953125 C 6.980469 6.9375 6.980469 6.9375 6.980469 6.921875 C 6.941406 6.921875 6.902344 6.921875 6.863281 6.921875 C 6.859375 6.933594 6.859375 6.941406 6.855469 6.953125 C 6.851562 6.972656 6.847656 6.988281 6.84375 7.007812 C 6.820312 7.007812 6.796875 7.007812 6.769531 7.007812 C 6.808594 6.890625 6.84375 6.777344 6.882812 6.664062 Z M 6.921875 6.75 C 6.90625 6.789062 6.890625 6.832031 6.882812 6.875 C 6.90625 6.875 6.933594 6.875 6.960938 6.875 C 6.953125 6.832031 6.941406 6.789062 6.925781 6.75 C 6.925781 6.75 6.921875 6.75 6.921875 6.75 Z M 6.921875 6.75 "/>
<path style=" stroke:none;fill-rule:nonzero;fill:rgb(43.137255%,29.019609%,51.764709%);fill-opacity:1;" d="M 5.4375 7.332031 C 5.507812 7.332031 5.582031 7.332031 5.652344 7.332031 C 5.652344 7.351562 5.652344 7.371094 5.652344 7.390625 C 5.605469 7.390625 5.554688 7.390625 5.503906 7.390625 C 5.503906 7.417969 5.503906 7.449219 5.503906 7.480469 C 5.550781 7.480469 5.59375 7.480469 5.640625 7.480469 C 5.640625 7.5 5.640625 7.515625 5.640625 7.535156 C 5.59375 7.535156 5.550781 7.535156 5.503906 7.535156 C 5.503906 7.566406 5.503906 7.589844 5.503906 7.617188 C 5.554688 7.617188 5.601562 7.617188 5.652344 7.617188 C 5.652344 7.640625 5.652344 7.65625 5.652344 7.675781 C 5.582031 7.675781 5.511719 7.675781 5.4375 7.675781 C 5.4375 7.5625 5.4375 7.449219 5.4375 7.332031 Z M 5.4375 7.332031 "/>
<path style=" stroke:none;fill-rule:nonzero;fill:rgb(43.137255%,29.019609%,51.764709%);fill-opacity:1;" d="M 4.789062 7.332031 C 4.859375 7.332031 4.929688 7.332031 5.003906 7.332031 C 5.003906 7.351562 5.003906 7.371094 5.003906 7.390625 C 4.953125 7.390625 4.902344 7.390625 4.855469 7.390625 C 4.855469 7.417969 4.855469 7.449219 4.855469 7.480469 C 4.898438 7.480469 4.945312 7.480469 4.992188 7.480469 C 4.992188 7.5 4.992188 7.515625 4.992188 7.535156 C 4.945312 7.535156 4.898438 7.535156 4.855469 7.535156 C 4.855469 7.566406 4.855469 7.589844 4.855469 7.617188 C 4.902344 7.617188 4.953125 7.617188 5.003906 7.617188 C 5.003906 7.640625 5.003906 7.65625 5.003906 7.675781 C 4.933594 7.675781 4.863281 7.675781 4.789062 7.675781 C 4.789062 7.5625 4.789062 7.449219 4.789062 7.332031 Z M 4.789062 7.332031 "/>
<path style=" stroke:none;fill-rule:nonzero;fill:rgb(43.137255%,29.019609%,51.764709%);fill-opacity:1;" d="M 3.949219 7.332031 C 4.019531 7.332031 4.09375 7.332031 4.164062 7.332031 C 4.164062 7.351562 4.164062 7.371094 4.164062 7.390625 C 4.117188 7.390625 4.066406 7.390625 4.015625 7.390625 C 4.015625 7.417969 4.015625 7.449219 4.015625 7.480469 C 4.0625 7.480469 4.105469 7.480469 4.152344 7.480469 C 4.152344 7.5 4.152344 7.515625 4.152344 7.535156 C 4.105469 7.535156 4.0625 7.535156 4.015625 7.535156 C 4.015625 7.566406 4.015625 7.589844 4.015625 7.617188 C 4.0625 7.617188 4.113281 7.617188 4.164062 7.617188 C 4.164062 7.640625 4.164062 7.65625 4.164062 7.675781 C 4.09375 7.675781 4.023438 7.675781 3.949219 7.675781 C 3.949219 7.5625 3.949219 7.449219 3.949219 7.332031 Z M 3.949219 7.332031 "/>
<path style=" stroke:none;fill-rule:nonzero;fill:rgb(43.137255%,29.019609%,51.764709%);fill-opacity:1;" d="M 5.171875 6.664062 C 5.242188 6.664062 5.3125 6.664062 5.386719 6.664062 C 5.386719 6.683594 5.386719 6.699219 5.386719 6.722656 C 5.335938 6.722656 5.289062 6.722656 5.238281 6.722656 C 5.238281 6.75 5.238281 6.777344 5.238281 6.808594 C 5.28125 6.808594 5.328125 6.808594 5.375 6.808594 C 5.375 6.828125 5.375 6.847656 5.375 6.867188 C 5.328125 6.867188 5.285156 6.867188 5.238281 6.867188 C 5.238281 6.894531 5.238281 6.921875 5.238281 6.949219 C 5.285156 6.949219 5.335938 6.949219 5.386719 6.949219 C 5.386719 6.96875 5.386719 6.988281 5.386719 7.007812 C 5.316406 7.007812 5.246094 7.007812 5.171875 7.007812 C 5.171875 6.894531 5.171875 6.78125 5.171875 6.664062 Z M 5.171875 6.664062 "/>
<path style=" stroke:none;fill-rule:nonzero;fill:rgb(43.137255%,29.019609%,51.764709%);fill-opacity:1;" d="M 4.761719 6.664062 C 4.785156 6.664062 4.808594 6.664062 4.835938 6.664062 C 4.859375 6.746094 4.886719 6.832031 4.914062 6.914062 C 4.9375 6.835938 4.9375 6.835938 4.960938 6.757812 C 4.964844 6.746094 4.96875 6.734375 4.972656 6.726562 C 4.972656 6.722656 4.976562 6.714844 4.976562 6.707031 C 4.988281 6.671875 4.988281 6.671875 4.996094 6.664062 C 5.007812 6.664062 5.019531 6.664062 5.03125 6.664062 C 5.035156 6.664062 5.042969 6.664062 5.046875 6.664062 C 5.050781 6.664062 5.054688 6.664062 5.0625 6.664062 C 5.058594 6.703125 5.046875 6.738281 5.035156 6.773438 C 5.03125 6.78125 5.027344 6.785156 5.027344 6.792969 C 5.023438 6.808594 5.019531 6.820312 5.011719 6.835938 C 5.007812 6.855469 5 6.875 4.992188 6.898438 C 4.988281 6.910156 4.984375 6.921875 4.980469 6.9375 C 4.976562 6.941406 4.976562 6.949219 4.972656 6.953125 C 4.972656 6.960938 4.96875 6.96875 4.96875 6.972656 C 4.964844 6.976562 4.964844 6.980469 4.960938 6.988281 C 4.957031 7 4.957031 7 4.953125 7.007812 C 4.9375 7.007812 4.925781 7.007812 4.914062 7.007812 C 4.902344 7.007812 4.898438 7.007812 4.890625 7.007812 C 4.882812 7.007812 4.878906 7.007812 4.875 7.007812 C 4.859375 6.964844 4.847656 6.925781 4.832031 6.882812 C 4.828125 6.871094 4.824219 6.855469 4.820312 6.84375 C 4.8125 6.820312 4.804688 6.800781 4.800781 6.78125 C 4.796875 6.777344 4.792969 6.769531 4.792969 6.765625 C 4.78125 6.730469 4.769531 6.699219 4.761719 6.664062 Z M 4.761719 6.664062 "/>
<path style=" stroke:none;fill-rule:nonzero;fill:rgb(43.137255%,29.019609%,51.764709%);fill-opacity:1;" d="M 6.089844 7.332031 C 6.117188 7.324219 6.132812 7.324219 6.160156 7.332031 C 6.1875 7.367188 6.207031 7.410156 6.226562 7.453125 C 6.230469 7.464844 6.230469 7.464844 6.238281 7.472656 C 6.261719 7.429688 6.285156 7.382812 6.308594 7.332031 C 6.332031 7.332031 6.359375 7.332031 6.382812 7.332031 C 6.371094 7.363281 6.359375 7.382812 6.34375 7.40625 C 6.292969 7.496094 6.253906 7.570312 6.265625 7.675781 C 6.246094 7.675781 6.226562 7.675781 6.207031 7.675781 C 6.207031 7.667969 6.207031 7.660156 6.207031 7.652344 C 6.210938 7.554688 6.171875 7.488281 6.125 7.40625 C 6.113281 7.382812 6.097656 7.359375 6.089844 7.332031 Z M 6.089844 7.332031 "/>
<path style=" stroke:none;fill-rule:nonzero;fill:rgb(43.137255%,29.019609%,51.764709%);fill-opacity:1;" d="M 5.121094 7.332031 C 5.140625 7.332031 5.164062 7.332031 5.183594 7.332031 C 5.183594 7.429688 5.183594 7.523438 5.183594 7.617188 C 5.230469 7.617188 5.277344 7.617188 5.320312 7.617188 C 5.320312 7.640625 5.320312 7.65625 5.320312 7.675781 C 5.253906 7.675781 5.191406 7.675781 5.121094 7.675781 C 5.121094 7.5625 5.121094 7.449219 5.121094 7.332031 Z M 5.121094 7.332031 "/>
<path style=" stroke:none;fill-rule:nonzero;fill:rgb(43.137255%,29.019609%,51.764709%);fill-opacity:1;" d="M 4.496094 6.664062 C 4.519531 6.664062 4.539062 6.664062 4.5625 6.664062 C 4.5625 6.757812 4.5625 6.851562 4.5625 6.949219 C 4.605469 6.949219 4.652344 6.949219 4.699219 6.949219 C 4.699219 6.96875 4.699219 6.988281 4.699219 7.007812 C 4.628906 7.007812 4.566406 7.007812 4.496094 7.007812 C 4.496094 6.894531 4.496094 6.78125 4.496094 6.664062 Z M 4.496094 6.664062 "/>
<path style=" stroke:none;fill-rule:nonzero;fill:rgb(43.137255%,29.019609%,51.764709%);fill-opacity:1;" d="M 3.054688 6.664062 C 3.074219 6.664062 3.09375 6.664062 3.117188 6.664062 C 3.117188 6.757812 3.117188 6.851562 3.117188 6.949219 C 3.164062 6.949219 3.207031 6.949219 3.253906 6.949219 C 3.253906 6.96875 3.253906 6.988281 3.253906 7.007812 C 3.1875 7.007812 3.121094 7.007812 3.054688 7.007812 C 3.054688 6.894531 3.054688 6.78125 3.054688 6.664062 Z M 3.054688 6.664062 "/>
<path style=" stroke:none;fill-rule:nonzero;fill:rgb(43.137255%,29.019609%,51.764709%);fill-opacity:1;" d="M 3.769531 7.332031 C 3.789062 7.332031 3.808594 7.332031 3.828125 7.332031 C 3.828125 7.371094 3.828125 7.410156 3.828125 7.449219 C 3.828125 7.464844 3.828125 7.476562 3.828125 7.492188 C 3.828125 7.507812 3.828125 7.53125 3.828125 7.546875 C 3.828125 7.550781 3.828125 7.558594 3.828125 7.566406 C 3.828125 7.605469 3.824219 7.625 3.800781 7.652344 C 3.769531 7.683594 3.746094 7.683594 3.707031 7.683594 C 3.675781 7.679688 3.660156 7.667969 3.636719 7.644531 C 3.621094 7.621094 3.621094 7.609375 3.625 7.585938 C 3.644531 7.585938 3.664062 7.585938 3.683594 7.585938 C 3.6875 7.59375 3.691406 7.605469 3.695312 7.613281 C 3.71875 7.617188 3.71875 7.617188 3.742188 7.617188 C 3.761719 7.589844 3.765625 7.5625 3.765625 7.527344 C 3.765625 7.519531 3.765625 7.515625 3.765625 7.507812 C 3.765625 7.492188 3.765625 7.472656 3.765625 7.457031 C 3.765625 7.445312 3.765625 7.433594 3.765625 7.421875 C 3.765625 7.394531 3.765625 7.363281 3.769531 7.332031 Z M 3.769531 7.332031 "/>
<path style=" stroke:none;fill-rule:nonzero;fill:rgb(43.137255%,29.019609%,51.764709%);fill-opacity:1;" d="M 4.300781 6.664062 C 4.324219 6.664062 4.34375 6.664062 4.367188 6.664062 C 4.367188 6.777344 4.367188 6.890625 4.367188 7.007812 C 4.34375 7.007812 4.324219 7.007812 4.300781 7.007812 C 4.300781 6.894531 4.300781 6.78125 4.300781 6.664062 Z M 4.300781 6.664062 "/>
<path style=" stroke:none;fill-rule:nonzero;fill:rgb(43.137255%,29.019609%,51.764709%);fill-opacity:1;" d="M 5.925781 6.9375 C 5.9375 6.949219 5.9375 6.949219 5.941406 6.972656 C 5.9375 6.992188 5.9375 6.992188 5.933594 7.007812 C 5.914062 7.015625 5.90625 7.015625 5.886719 7.011719 C 5.875 7.007812 5.875 7.007812 5.867188 6.992188 C 5.867188 6.96875 5.867188 6.96875 5.875 6.945312 C 5.894531 6.933594 5.90625 6.9375 5.925781 6.9375 Z M 5.925781 6.9375 "/>
<path style=" stroke:none;fill-rule:nonzero;fill:rgb(43.137255%,29.019609%,51.764709%);fill-opacity:1;" d="M 3.800781 6.9375 C 3.8125 6.949219 3.8125 6.949219 3.816406 6.972656 C 3.8125 6.992188 3.8125 6.992188 3.804688 7.007812 C 3.789062 7.015625 3.78125 7.015625 3.761719 7.011719 C 3.75 7.007812 3.75 7.007812 3.742188 6.992188 C 3.742188 6.96875 3.742188 6.96875 3.75 6.945312 C 3.765625 6.933594 3.78125 6.9375 3.800781 6.9375 Z M 3.800781 6.9375 "/>
</g>
</svg>
